<?xml version="1.0" encoding="UTF-8"?>
<svg width="33px" height="26px" viewBox="0 0 33 26" version="1.1" xmlns="http://www.w3.org/2000/svg" xmlns:xlink="http://www.w3.org/1999/xlink">
    <!-- Generator: Sketch 52.2 (67145) - http://www.bohemiancoding.com/sketch -->
    <title>ergeon_heart</title>
    <desc>Created with Sketch.</desc>
    <g id="ergeon" stroke="none" stroke-width="1" fill="none" fill-rule="evenodd">
        <g id="about" transform="translate(-1023.000000, -364.000000)" fill="#09A873">
            <g id="Group-3" transform="translate(250.000000, 314.000000)">
                <g id="Group-6" transform="translate(680.000000, 40.000000)">
                    <path d="M119.301151,18.5811022 C118.05709,18.5811022 117.048899,17.570824 117.048899,16.3330246 C117.048899,15.0910504 118.05709,14.0828596 119.301151,14.0828596 C120.545213,14.0828596 121.547141,15.0910504 121.547141,16.3330246 C121.547141,17.570824 120.545213,18.5811022 119.301151,18.5811022 M99.3293717,18.5831895 C98.0873975,18.5831895 97.0792067,17.5770861 97.0792067,16.3330246 C97.0792067,15.0910504 98.0873975,14.0828596 99.3293717,14.0828596 C100.573433,14.0828596 101.579537,15.0910504 101.579537,16.3330246 C101.579537,17.5770861 100.573433,18.5831895 99.3293717,18.5831895 M123.776433,11.8535682 C121.302921,9.38214394 117.295206,9.38214394 114.821695,11.8535682 L109.313174,17.3641762 L103.804653,11.8535682 C101.335317,9.38214394 97.3255142,9.38214394 94.8520027,11.8535682 C92.3826658,14.3270797 92.3826658,18.3347947 94.8520027,20.8062189 L109.313174,35.2715651 L123.776433,20.8062189 C126.247857,18.3347947 126.247857,14.3270797 123.776433,11.8535682" id="ergeon_heart"></path>
                </g>
            </g>
        </g>
    </g>
</svg>
