<?xml version="1.0" encoding="UTF-8"?>
<svg width="60px" height="60px" viewBox="0 0 60 60" version="1.1" xmlns="http://www.w3.org/2000/svg" xmlns:xlink="http://www.w3.org/1999/xlink">
    <title>Group 10</title>
    <g id="brand-REfresh" stroke="none" stroke-width="1" fill="none" fill-rule="evenodd">
        <g id="Group-10">
            <path d="M30.5,10 C42.695,10 53,18.5055725 53,28.5711189 C53,38.1595304 44.366,46.3536795 33.698,47.3479486 C33.695,47.3479486 33.686,47.3508057 33.68,47.3536628 C29.792,47.7050855 25.964,47.0222398 22.964,45.8222598 C22.022,46.159397 12.476,49.5707687 11.525,49.9079059 C10.973,50.1107597 10.31,49.9764762 9.884,49.5250552 C9.473,49.0907767 9.383,48.4593587 9.659,47.9336531 C10.487,46.3536795 12.866,41.8308978 13.631,40.3623508 C10.019,37.2538312 8,33.1938989 8,28.5711189 C8,18.5055725 18.305,10 30.5,10 Z M33.7211538,22.5 L23.1442308,22.5 C21.6899038,22.5 20.5,23.5323958 20.5,24.7916667 L20.5,33.9583333 C20.5,35.21875 21.6899038,36.25 23.1442308,36.25 L33.7211538,36.25 C35.1741587,36.25 36.3653846,35.21875 36.3653846,33.9583333 L36.3653846,32.2395833 L40.415024,33.5561458 C41.0959135,33.7772917 41.6538462,33.4427083 41.6538462,32.8125 L41.6538462,25.9375 C41.6538462,25.3084375 41.0959135,24.9738542 40.415024,25.195 L36.3653846,26.5104167 L36.3653846,24.7916667 C36.3653846,23.5323958 35.1741587,22.5 33.7211538,22.5 Z" id="Combined-Shape-Copy-2" fill="#0970CE"></path>
            <rect id="Rectangle-Copy-3" x="0" y="0" width="60" height="60"></rect>
        </g>
    </g>
</svg>