<?xml version="1.0" encoding="UTF-8"?>
<svg width="60px" height="60px" viewBox="0 0 60 60" version="1.1" xmlns="http://www.w3.org/2000/svg" xmlns:xlink="http://www.w3.org/1999/xlink">
    <title>Group 7</title>
    <g id="brand-REfresh" stroke="none" stroke-width="1" fill="none" fill-rule="evenodd">
        <g id="Group-7">
            <path d="M31.0921053,28.5686499 L27.5394737,28.5686499 C26.5589474,28.5686499 25.7631579,27.7843936 25.7631579,26.8180778 C25.7631579,25.851762 26.5589474,25.0675057 27.5394737,25.0675057 L34.6447368,25.0675057 L34.6447368,21.5663616 L31.0921053,21.5663616 L31.0921053,19.8157895 L27.5394737,19.8157895 L27.5394737,21.5663616 C24.6014474,21.5663616 22.2105263,23.9226316 22.2105263,26.8180778 C22.2105263,29.713524 24.6014474,32.0697941 27.5394737,32.0697941 L31.0921053,32.0697941 C32.0726316,32.0697941 32.8684211,32.8540503 32.8684211,33.8203661 C32.8684211,34.7866819 32.0726316,35.5709382 31.0921053,35.5709382 L23.9868421,35.5709382 L23.9868421,39.0720824 L27.5394737,39.0720824 L27.5394737,40.8226545 L31.0921053,40.8226545 L31.0921053,39.0720824 C34.0301316,39.0720824 36.4210526,36.7158124 36.4210526,33.8203661 C36.4210526,30.9249199 34.0301316,28.5686499 31.0921053,28.5686499 M45.6662949,12 C46.6691817,12 47.4831187,12.8064 47.4831187,13.8 L47.4831187,13.8 L47.4831187,35.1066 L50.4499919,43.923 C50.7879211,44.9256 50.6498425,45.9552 50.0720926,46.7508 C49.4943426,47.5446 48.5514111,48 47.4831187,48 L47.4831187,48 L11.1466434,48 C10.0783511,48 9.13541952,47.5446 8.55948638,46.7508 C7.98173643,45.9552 7.84365782,44.9256 8.18158704,43.9212 L8.18158704,43.9212 L11.1466434,35.1066 L11.1466434,13.8 C11.1466434,12.8064 11.9605805,12 12.9634672,12 L12.9634672,12 Z" id="Fill-506-Copy" fill="#0970CE"></path>
            <rect id="Rectangle-Copy-4" x="0" y="0" width="60" height="60"></rect>
        </g>
    </g>
</svg>