<?xml version="1.0" encoding="UTF-8"?>
<svg width="36px" height="33px" viewBox="0 0 36 33" version="1.1" xmlns="http://www.w3.org/2000/svg" xmlns:xlink="http://www.w3.org/1999/xlink">
    <!-- Generator: Sketch 64 (93537) - https://sketch.com -->
    <title>icon_monitor@2x</title>
    <desc>Created with Sketch.</desc>
    <g id="home-page" stroke="none" stroke-width="1" fill="none" fill-rule="evenodd">
        <g id="coronavirus-copy-6" transform="translate(-702.000000, -778.000000)" fill="#09A873">
            <g id="section" transform="translate(130.000000, 750.000000)">
                <g id="card-copy" transform="translate(400.000000, 0.000000)">
                    <g id="icon" transform="translate(166.000000, 20.000000)">
                        <path d="M39,30.5 L9,30.5 L9,11 L39,11 L39,30.5 Z M24,34.25 C23.172,34.25 22.5,33.578 22.5,32.75 C22.5,31.922 23.172,31.25 24,31.25 C24.8265,31.25 25.5,31.922 25.5,32.75 C25.5,33.578 24.8265,34.25 24,34.25 L24,34.25 Z M39,8 L9,8 C7.344,8 6,9.3455 6,11 L6,33.5 C6,35.1545 7.344,36.5 9,36.5 L19.2105,36.5 L18.21,39.5 L13.5,39.5 C13.086,39.5 12.75,39.836 12.75,40.25 C12.75,40.664 13.086,41 13.5,41 L18.75,41 L29.25,41 L29.265,41 L34.5,41 C34.914,41 35.25,40.664 35.25,40.25 C35.25,39.836 34.914,39.5 34.5,39.5 L29.7885,39.5 L28.7895,36.5 L39,36.5 C40.653,36.5 42,35.1545 42,33.5 L42,11 C42,9.3455 40.653,8 39,8 L39,8 Z" id="icon_monitor"></path>
                    </g>
                </g>
            </g>
        </g>
    </g>
</svg>