<?xml version="1.0" encoding="UTF-8"?>
<svg width="60px" height="60px" viewBox="0 0 60 60" version="1.1" xmlns="http://www.w3.org/2000/svg" xmlns:xlink="http://www.w3.org/1999/xlink">
    <title>Group 6</title>
    <g id="brand-REfresh" stroke="none" stroke-width="1" fill="none" fill-rule="evenodd">
        <g id="Group-6">
            <path d="M46.5627803,36.035702 C49.0226457,36.035702 51.0190583,38.0437047 51.0190583,40.517851 C51.0190583,42.9919972 49.0226457,45 46.5627803,45 C44.1029148,45 42.1065022,42.9919972 42.1065022,40.517851 C42.1065022,38.0437047 44.1029148,36.035702 46.5627803,36.035702 Z M15.3688341,36.035702 C17.8286996,36.035702 19.8251121,38.0437047 19.8251121,40.517851 C19.8251121,42.9919972 17.8286996,45 15.3688341,45 C12.9089686,45 10.9125561,42.9919972 10.9125561,40.517851 C10.9125561,38.0437047 12.9089686,36.035702 15.3688341,36.035702 Z M28.2920404,15 C29.5219731,15 30.5201794,16.0526539 30.5201794,17.3496739 L30.5201794,17.3496739 L30.5201794,26.7483693 L57.7034753,26.7483693 C58.9334081,26.7483693 59.9316143,27.8010232 59.9316143,29.0980432 L59.9316143,29.0980432 L59.9316143,34.3645536 C59.9316143,36.9585936 57.9352018,39.0639013 55.4753363,39.0639013 L55.4753363,39.0639013 L52.8372197,39.0639013 C51.9169983,36.3335803 49.4682735,34.3645536 46.5627803,34.3645536 C43.657287,34.3645536 41.2085622,36.3335803 40.2883408,39.0639013 L40.2883408,39.0639013 L21.6432735,39.0639013 C20.7230521,36.3335803 18.2743274,34.3645536 15.3688341,34.3645536 C12.4633408,34.3645536 10.014616,36.3335803 9.09439462,39.0639013 L9.09439462,39.0639013 L4.22813901,39.0639013 C2.99820628,39.0639013 2,38.0112475 2,36.7142275 L2,36.7142275 L2.00088821,29.4281457 C2.01967375,27.0412199 2.3495946,26.5774908 4.22813901,26.1406951 L4.22813901,26.1406951 L9.57567265,24.9658581 L12.9111967,17.9535401 C13.588551,16.1701376 15.2262332,15 17.0488509,15 L17.0488509,15 Z M47.3255465,19.5403587 C48.9757063,19.5403587 50.3279205,19.8776555 50.4377402,20.3040449 L50.4449411,20.3601457 L50.4439417,22.0703587 L52.5269058,22.0711883 C54.7407848,22.0711883 56.5524528,22.3682056 56.6790338,22.7423186 L56.6860987,22.7841928 L56.6860987,25.6362108 L31.7309417,25.6362108 L31.7309417,22.8383587 L31.7285734,22.8195067 L31.7285734,20.3601457 C31.7285734,19.9264784 33.012031,19.5711121 34.6344971,19.5422512 L34.847968,19.5403587 L47.3255465,19.5403587 Z" id="Combined-Shape-Copy-3" fill="#0970CE"></path>
            <rect id="Rectangle" x="0" y="0" width="60" height="60"></rect>
        </g>
    </g>
</svg>