<?xml version="1.0" encoding="UTF-8"?>
<svg width="36px" height="26px" viewBox="0 0 36 26" version="1.1" xmlns="http://www.w3.org/2000/svg" xmlns:xlink="http://www.w3.org/1999/xlink">
    <!-- Generator: Sketch 64 (93537) - https://sketch.com -->
    <title>icon_van@2x</title>
    <desc>Created with Sketch.</desc>
    <g id="home-page" stroke="none" stroke-width="1" fill="none" fill-rule="evenodd">
        <g id="coronavirus-copy-6" transform="translate(-1102.000000, -781.000000)" fill="#09A873">
            <g id="section" transform="translate(130.000000, 750.000000)">
                <g id="card-copy-2" transform="translate(800.000000, 0.000000)">
                    <g id="icon" transform="translate(166.000000, 20.000000)">
                        <path d="M13.5,29 C15.567,29 17.25,30.6815 17.25,32.75 C17.25,34.817 15.567,36.5 13.5,36.5 C11.4315,36.5 9.75,34.817 9.75,32.75 C9.75,30.6815 11.4315,29 13.5,29 Z M34.5,29 C36.567,29 38.25,30.6815 38.25,32.75 C38.25,34.817 36.567,36.5 34.5,36.5 C32.4315,36.5 30.75,34.817 30.75,32.75 C30.75,30.6815 32.4315,29 34.5,29 Z M41.25,11 C41.664,11 42,11.336 42,11.75 L42,11.75 L42,32.75 C42,33.1625 41.664,33.5 41.25,33.5 L41.25,33.5 L39.69,33.5 C39.7245,33.254 39.75,33.005 39.75,32.75 C39.75,29.8535 37.395,27.5 34.5,27.5 C31.605,27.5 29.25,29.8535 29.25,32.75 C29.25,33.005 29.274,33.254 29.3085,33.5 L29.3085,33.5 L18.69,33.5 C18.7245,33.254 18.75,33.005 18.75,32.75 C18.75,29.8535 16.395,27.5 13.5,27.5 C10.605,27.5 8.25,29.8535 8.25,32.75 C8.25,33.005 8.274,33.254 8.3085,33.5 L8.3085,33.5 L6.75,33.5 C6.336,33.5 6,33.1625 6,32.75 L6,32.75 L6,24.5 C6,24.3005 6.0795,24.11 6.219,23.969 L6.219,23.969 L9.1455,21.0425 L12.843,14.3855 C12.975,14.147 13.227,14 13.5,14 L13.5,14 L18.75,14 C19.164,14 19.5,14.336 19.5,14.75 L19.5,14.75 L19.5,29 L21,29 L21,11.75 C21,11.336 21.336,11 21.75,11 L21.75,11 Z M17.25,17 L15,17 C14.7165,17 14.457,17.1605 14.3295,17.414 L14.3295,17.414 L12.0795,21.914 C11.8935,22.2845 12.0435,22.736 12.414,22.9205 C12.522,22.9745 12.636,23 12.7485,23 C13.0245,23 13.2885,22.8485 13.4205,22.5845 L13.4205,22.5845 L15.4635,18.5 L17.25,18.5 C17.664,18.5 18,18.1625 18,17.75 C18,17.336 17.664,17 17.25,17 L17.25,17 Z" id="icon_van"></path>
                    </g>
                </g>
            </g>
        </g>
    </g>
</svg>