<?xml version="1.0" encoding="UTF-8"?>
<svg width="36px" height="34px" viewBox="0 0 36 34" version="1.1" xmlns="http://www.w3.org/2000/svg" xmlns:xlink="http://www.w3.org/1999/xlink">
    <!-- Generator: Sketch 64 (93537) - https://sketch.com -->
    <title>icon_video-call@2x</title>
    <desc>Created with Sketch.</desc>
    <g id="home-page" stroke="none" stroke-width="1" fill="none" fill-rule="evenodd">
        <g id="coronavirus-copy-6" transform="translate(-302.000000, -777.000000)" fill="#09A873" fill-rule="nonzero">
            <g id="section" transform="translate(130.000000, 750.000000)">
                <g id="card">
                    <g id="icon" transform="translate(166.000000, 20.000000)">
                        <path d="M38.6181482,7 C40.4857564,7 42,8.5142436 42,10.3818518 L42,10.3818518 L42,29.9966748 C42,31.8646944 40.4857564,33.3785266 38.6181482,33.3785266 L38.6181482,33.3785266 L18.9529467,33.3785266 C16.0519834,38.6181139 9.01015447,40.4351239 7.31925542,40.1381166 C9.69572521,37.3683796 10.3368461,34.8294196 10.7992231,33.3785266 L10.7992231,33.3785266 L9.38226321,33.3785266 C7.51465497,33.3785266 6,31.8646944 6,29.9966748 L6,29.9966748 L6,10.3818518 C6,8.5142436 7.51465497,7 9.38226321,7 L9.38226321,7 Z M35.0738062,15.1660553 L28.8995921,17.4112989 L28.8995921,23.4917212 L35.0738062,25.7369648 L35.0738062,15.1660553 Z M25.8361386,15.8213637 L14.0496383,15.8213637 C13.430119,15.8213637 12.9270166,16.5219225 12.9270166,17.3857941 L12.9270166,17.3857941 L12.9270166,23.5176374 C12.9270166,24.381509 13.4297076,25.0812451 14.0496383,25.0812451 L14.0496383,25.0812451 L25.8357273,25.0812451 C26.4552466,25.0812451 26.958349,24.381509 26.9587604,23.5176374 L26.9587604,23.5176374 L26.9587604,17.3857941 C26.9587604,16.5219225 26.455658,15.8213637 25.8361386,15.8213637 L25.8361386,15.8213637 Z" id="icon_video-call"></path>
                    </g>
                </g>
            </g>
        </g>
    </g>
</svg>