<?xml version="1.0" encoding="UTF-8"?>
<svg width="32px" height="31px" viewBox="0 0 32 31" version="1.1" xmlns="http://www.w3.org/2000/svg" xmlns:xlink="http://www.w3.org/1999/xlink">
    <!-- Generator: Sketch 52 (66869) - http://www.bohemiancoding.com/sketch -->
    <title>Beach</title>
    <desc>Created with Sketch.</desc>
    <g id="page" stroke="none" stroke-width="1" fill="none" fill-rule="evenodd">
        <g id="careers_page" transform="translate(-636.000000, -3051.000000)" fill="#333631">
            <g id="benefit-copy-4" transform="translate(250.000000, 3010.000000)">
                <g id="Beach" transform="translate(386.000000, 41.000000)">
                    <path d="M6.97005507,15.5574546 C7.0342277,15.7204838 7.15995367,15.8493295 7.31973042,15.9176966 C7.40092844,15.9558243 7.48998433,15.9729161 7.57904023,15.9729161 C7.66023825,15.9729161 7.74143627,15.9571391 7.81870536,15.9268998 L10.8636312,14.7146989 C11.0260272,14.6515908 11.1543725,14.5253747 11.2237837,14.364975 L11.6978753,13.2618985 L12.7966679,13.7391533 C12.9564447,13.8075204 13.1371758,13.8114646 13.2982622,13.7470418 L18.7765093,11.5671838 L22.5378112,21.0925585 C19.6448043,21.2713647 17.0097975,22.2482251 15.209035,23.8509072 C14.9379383,24.0915067 14.9117454,24.5069682 15.1527202,24.7791217 C15.2823751,24.9263739 15.4617965,25 15.6425276,25 C15.7970658,25 15.9529136,24.9474099 16.0773299,24.8356561 C17.8113006,23.2921378 20.5825105,22.3718117 23.4859946,22.370497 L23.4873042,22.3718117 L23.4873042,22.370497 L31.3451772,22.370497 C31.7066394,22.370497 32,22.0759926 32,21.7131212 C32,21.3502498 31.7066394,21.0557455 31.3451772,21.0557455 L23.9325837,21.0557455 L19.99317,11.0820405 L25.4740364,8.90218249 C25.6351228,8.83775966 25.7647777,8.71154352 25.8328793,8.55114383 L26.3095903,7.44938207 L27.4083829,7.92532211 C27.5681596,7.99500394 27.747581,7.99763345 27.9086674,7.93321062 L30.9522836,6.72100973 C31.2875528,6.58821983 31.4525682,6.20562714 31.320294,5.86905075 L30.8383444,4.64633184 C29.6544249,1.65001315 26.8124941,0 22.8298622,0 C20.7737187,0 18.4713619,0.457533526 16.1388833,1.31606626 L15.8939796,0.691559295 C15.7590861,0.354982908 15.3779792,0.190638969 15.04271,0.323428872 C14.7061311,0.457533526 14.5424254,0.840126216 14.6760092,1.1767026 L14.9235322,1.80515383 C8.05182226,4.7423087 4.66507898,9.71995793 6.48810552,14.3347357 L6.97005507,15.5574546 Z" id="Fill-2491"></path>
                    <path d="M31.3333395,29.6666667 C30.4080147,29.6666667 29.333358,28.7946667 29.333358,27.6666667 C29.333358,27.3 29.0346941,27 28.6666975,27 C28.2987009,27 28.000037,27.3 28.000037,27.6666667 C28.000037,28.7946667 26.924047,29.6666667 26.0000555,29.6666667 C25.0747307,29.6666667 24.000074,28.7946667 24.000074,27.6666667 C24.000074,27.3 23.7014101,27 23.3334135,27 C22.9654169,27 22.666753,27.3 22.666753,27.6666667 C22.666753,28.7946667 21.590763,29.6666667 20.6667715,29.6666667 C19.7414467,29.6666667 18.66679,28.7946667 18.66679,27.6666667 C18.66679,27.3 18.3681261,27 18.0001295,27 C17.6321329,27 17.333469,27.3 17.333469,27.6666667 C17.333469,28.7946667 16.257479,29.6666667 15.3334875,29.6666667 C14.4081627,29.6666667 13.333506,28.7946667 13.333506,27.6666667 C13.333506,27.3 13.0348421,27 12.6668455,27 C12.2988489,27 12.000185,27.3 12.000185,27.6666667 C12.000185,28.7946667 10.924195,29.6666667 10.0002035,29.6666667 C9.07487874,29.6666667 8.00022202,28.7946667 8.00022202,27.6666667 C8.00022202,27.3 7.70155811,27 7.33356152,27 C6.96556492,27 6.66690102,27.3 6.66690102,27.6666667 C6.66690102,28.7946667 5.59091097,29.6666667 4.66691952,29.6666667 C3.74159475,29.6666667 2.66693802,28.7946667 2.66693802,27.6666667 C2.66693802,27.3 2.36827412,27 2.00027752,27 C1.63228093,27 1.33361702,27.3 1.33361702,27.6666667 C1.33361702,28.3773333 0.797621982,28.9893333 0.296293287,29.324 C-0.0103705432,29.528 -0.0917031241,29.9426667 0.112294989,30.2493333 C0.316293102,30.5546667 0.732289253,30.6373333 1.03628644,30.4333333 C1.40561636,30.1866667 1.71894679,29.896 1.97094446,29.5746667 C2.58693876,30.424 3.58692951,31 4.66691952,31 C5.72957636,31 6.71356725,30.4426667 7.33356152,29.6146667 C7.95222246,30.4426667 8.93754668,31 10.0002035,31 C11.0628604,31 12.0468513,30.4426667 12.6668455,29.6146667 C13.2855065,30.4426667 14.2708307,31 15.3334875,31 C16.3961443,31 17.3801352,30.4426667 18.0001295,29.6146667 C18.6187905,30.4426667 19.6041147,31 20.6667715,31 C21.7294283,31 22.7134192,30.4426667 23.3334135,29.6146667 C23.9520745,30.4426667 24.9373987,31 26.0000555,31 C27.0627123,31 28.0467032,30.4426667 28.6666975,29.6146667 C29.2853584,30.4426667 30.2706827,31 31.3333395,31 C31.7013361,31 32,30.7013333 32,30.3333333 C32,29.9666667 31.7013361,29.6666667 31.3333395,29.6666667" id="Fill-2492"></path>
                </g>
            </g>
        </g>
    </g>
</svg>