<?xml version="1.0" encoding="UTF-8"?>
<svg width="32px" height="32px" viewBox="0 0 32 32" version="1.1" xmlns="http://www.w3.org/2000/svg" xmlns:xlink="http://www.w3.org/1999/xlink">
    <!-- Generator: Sketch 52 (66869) - http://www.bohemiancoding.com/sketch -->
    <title>Growth</title>
    <desc>Created with Sketch.</desc>
    <g id="page" stroke="none" stroke-width="1" fill="none" fill-rule="evenodd">
        <g id="careers_page" transform="translate(-638.000000, -2863.000000)" fill="#333631">
            <g id="benefit-copy-2" transform="translate(250.000000, 2823.000000)">
                <g id="Growth" transform="translate(388.000000, 40.000000)">
                    <path d="M31.3333333,30.6666667 L30.6666667,30.6666667 L30.6666667,11.3333333 C30.6666667,10.9653333 30.3666667,10.6666667 30,10.6666667 L26,10.6666667 C25.632,10.6666667 25.3333333,10.9653333 25.3333333,11.3333333 L25.3333333,30.6666667 L22.6666667,30.6666667 L22.6666667,16.6666667 C22.6666667,16.2986667 22.3666667,16 22,16 L18,16 C17.632,16 17.3333333,16.2986667 17.3333333,16.6666667 L17.3333333,30.6666667 L14.6666667,30.6666667 L14.6666667,22 C14.6666667,21.632 14.3666667,21.3333333 14,21.3333333 L10,21.3333333 C9.632,21.3333333 9.33333333,21.632 9.33333333,22 L9.33333333,30.6666667 L6.66666667,30.6666667 L6.66666667,27.3333333 C6.66666667,26.9653333 6.36666667,26.6666667 6,26.6666667 L2,26.6666667 C1.632,26.6666667 1.33333333,26.9653333 1.33333333,27.3333333 L1.33333333,30.6666667 L0.666666667,30.6666667 C0.298666667,30.6666667 0,30.9653333 0,31.3333333 C0,31.7 0.298666667,32 0.666666667,32 L31.3333333,32 C31.7,32 32,31.7 32,31.3333333 C32,30.9653333 31.7,30.6666667 31.3333333,30.6666667" id="Fill-1912"></path>
                    <path d="M4,18.6276 C4.128,18.6276 4.25466667,18.5929333 4.36933333,18.5156 L27.1586667,3.32226667 L26.672,7.25026667 C26.6266667,7.6156 26.8853333,7.94893333 27.2506667,7.99426667 C27.2786667,7.99826667 27.3053333,7.9996 27.3333333,7.9996 C27.6653333,7.9996 27.9533333,7.75293333 27.9946667,7.4156 L28.6613333,2.0436 C28.7013333,1.7156 28.4586667,1.35293333 28.1013333,1.30893333 C28.064,1.29426667 22.7853333,0.6756 22.7453333,0.670266667 C22.372,0.6276 22.0466667,0.888933333 22.004,1.2556 C21.9613333,1.62226667 22.2226667,1.95293333 22.588,1.99426667 L26.1226667,2.4116 L3.63066667,17.4062667 C3.32266667,17.6116 3.24133333,18.0249333 3.44533333,18.3316 C3.57333333,18.5249333 3.78533333,18.6276 4,18.6276" id="Fill-1913"></path>
                </g>
            </g>
        </g>
    </g>
</svg>