<?xml version="1.0" encoding="UTF-8"?>
<svg width="31px" height="32px" viewBox="0 0 31 32" version="1.1" xmlns="http://www.w3.org/2000/svg" xmlns:xlink="http://www.w3.org/1999/xlink">
    <!-- Generator: Sketch 52 (66869) - http://www.bohemiancoding.com/sketch -->
    <title>lamp</title>
    <desc>Created with Sketch.</desc>
    <g id="page" stroke="none" stroke-width="1" fill="none" fill-rule="evenodd">
        <g id="careers_page" transform="translate(-1119.000000, -2839.000000)" fill="#333631">
            <g id="benefit-copy-3" transform="translate(730.000000, 2799.000000)">
                <g id="lamp" transform="translate(389.000000, 40.000000)">
                    <path d="M15.2727273,5.81818182 C10.0596364,5.81818182 5.81818182,10.0581818 5.81818182,15.2727273 C5.81818182,19.392 8.48145455,23.0094545 12.3636364,24.2618182 L12.3636364,25.4545455 C12.3636364,25.856 12.6894545,26.1818182 13.0909091,26.1818182 L17.4545455,26.1818182 C17.8545455,26.1818182 18.1818182,25.856 18.1818182,25.4545455 L18.1818182,24.2618182 C22.0625455,23.008 24.7272727,19.392 24.7272727,15.2727273 C24.7272727,10.0581818 20.4858182,5.81818182 15.2727273,5.81818182" id="Fill-2630"></path>
                    <path d="M16,30.5454545 L14.5454545,30.5454545 C14.144,30.5454545 13.8181818,30.8712727 13.8181818,31.2727273 C13.8181818,31.6741818 14.144,32 14.5454545,32 L16,32 C16.4,32 16.7272727,31.6741818 16.7272727,31.2727273 C16.7272727,30.8712727 16.4,30.5454545 16,30.5454545" id="Fill-2631"></path>
                    <path d="M17.4545455,27.6363636 L13.0909091,27.6363636 C12.6894545,27.6363636 12.3636364,27.9621818 12.3636364,28.3636364 C12.3636364,28.7650909 12.6894545,29.0909091 13.0909091,29.0909091 L17.4545455,29.0909091 C17.8545455,29.0909091 18.1818182,28.7650909 18.1818182,28.3636364 C18.1818182,27.9621818 17.8545455,27.6363636 17.4545455,27.6363636" id="Fill-2632"></path>
                    <path d="M15.2727273,4.36363636 C15.6727273,4.36363636 16,4.03781818 16,3.63636364 L16,0.727272727 C16,0.325818182 15.6727273,0 15.2727273,0 C14.8712727,0 14.5454545,0.325818182 14.5454545,0.727272727 L14.5454545,3.63636364 C14.5454545,4.03781818 14.8712727,4.36363636 15.2727273,4.36363636" id="Fill-2633"></path>
                    <path d="M29.8181818,14.5454545 L26.9090909,14.5454545 C26.5076364,14.5454545 26.1818182,14.8712727 26.1818182,15.2727273 C26.1818182,15.6741818 26.5076364,16 26.9090909,16 L29.8181818,16 C30.2181818,16 30.5454545,15.6741818 30.5454545,15.2727273 C30.5454545,14.8712727 30.2181818,14.5454545 29.8181818,14.5454545" id="Fill-2634"></path>
                    <path d="M3.63636364,14.5454545 L0.727272727,14.5454545 C0.325818182,14.5454545 0,14.8712727 0,15.2727273 C0,15.6741818 0.325818182,16 0.727272727,16 L3.63636364,16 C4.03636364,16 4.36363636,15.6741818 4.36363636,15.2727273 C4.36363636,14.8712727 4.03636364,14.5454545 3.63636364,14.5454545" id="Fill-2635"></path>
                    <path d="M6.52843636,7.56174545 C6.67098182,7.70283636 6.85716364,7.77410909 7.04334545,7.77410909 C7.22807273,7.77410909 7.41425455,7.70283636 7.5568,7.56174545 C7.84043636,7.27810909 7.84043636,6.81701818 7.5568,6.53338182 L4.47170909,3.44538182 C4.18807273,3.16174545 3.72698182,3.16174545 3.44334545,3.44538182 C3.15970909,3.72901818 3.15970909,4.19010909 3.44334545,4.4752 L6.52843636,7.56174545 Z" id="Fill-2636"></path>
                    <path d="M23.4986182,7.77410909 C23.6848,7.77410909 23.8709818,7.70283636 24.0135273,7.56174545 L27.1000727,4.4752 C27.3837091,4.19010909 27.3837091,3.72901818 27.1000727,3.44538182 C26.8149818,3.16174545 26.3553455,3.16174545 26.0717091,3.44538182 L22.9837091,6.53338182 C22.7000727,6.81701818 22.7000727,7.27810909 22.9837091,7.56174545 C23.1262545,7.70283636 23.3124364,7.77410909 23.4986182,7.77410909" id="Fill-2637"></path>
                </g>
            </g>
        </g>
    </g>
</svg>