<?xml version="1.0" encoding="UTF-8"?>
<svg width="31px" height="31px" viewBox="0 0 31 31" version="1.1" xmlns="http://www.w3.org/2000/svg" xmlns:xlink="http://www.w3.org/1999/xlink">
    <!-- Generator: Sketch 52 (66869) - http://www.bohemiancoding.com/sketch -->
    <title>Positively</title>
    <desc>Created with Sketch.</desc>
    <g id="page" stroke="none" stroke-width="1" fill="none" fill-rule="evenodd">
        <g id="careers_page" transform="translate(-639.000000, -2652.000000)" fill="#333631">
            <g id="benefit" transform="translate(250.000000, 2612.000000)">
                <g id="Positively" transform="translate(389.000000, 40.000000)">
                    <path d="M16.016192,23.55776 C15.903552,23.63968 15.771712,23.68064 15.639872,23.68064 C15.508032,23.68064 15.374912,23.63968 15.262272,23.55776 C14.965312,23.34144 7.959872,18.19968 7.959872,14.128 C7.959872,11.29408 10.057792,9.60064 12.085312,9.60064 C13.302592,9.60064 14.734912,10.22912 15.639872,11.88416 C16.542272,10.22912 17.975872,9.60064 19.193152,9.60064 C21.221952,9.60064 23.319872,11.29408 23.319872,14.128 C23.319872,18.19968 16.313152,23.34144 16.016192,23.55776 M15.639872,0.00064 C7.170112,0.00064 0.279872,6.89088 0.279872,15.36064 C0.279872,23.82912 7.170112,30.72064 15.639872,30.72064 C24.108352,30.72064 30.999872,23.82912 30.999872,15.36064 C30.999872,6.89088 24.108352,0.00064 15.639872,0.00064" id="Fill-1381"></path>
                </g>
            </g>
        </g>
    </g>
</svg>