<?xml version="1.0" encoding="UTF-8"?>
<svg width="31px" height="31px" viewBox="0 0 31 31" version="1.1" xmlns="http://www.w3.org/2000/svg" xmlns:xlink="http://www.w3.org/1999/xlink">
    <!-- Generator: Sketch 52 (66869) - http://www.bohemiancoding.com/sketch -->
    <title>Reimbursements</title>
    <desc>Created with Sketch.</desc>
    <g id="page" stroke="none" stroke-width="1" fill="none" fill-rule="evenodd">
        <g id="careers_page" transform="translate(-1118.000000, -3026.000000)" fill="#333631">
            <g id="benefit-copy-6" transform="translate(730.000000, 2986.000000)">
                <g id="Reimbursements" transform="translate(388.000000, 40.000000)">
                    <path d="M6.4,5.12 C6.4,4.76672 6.68672,4.48 7.04,4.48 C7.39328,4.48 7.68,4.76672 7.68,5.12 L7.68,7.68 L10.24,7.68 C10.59328,7.68 10.88,7.96672 10.88,8.32 C10.88,8.67328 10.59328,8.96 10.24,8.96 L7.68,8.96 L7.68,11.52 C7.68,11.87328 7.39328,12.16 7.04,12.16 C6.68672,12.16 6.4,11.87328 6.4,11.52 L6.4,8.96 L3.84,8.96 C3.48672,8.96 3.2,8.67328 3.2,8.32 C3.2,7.96672 3.48672,7.68 3.84,7.68 L6.4,7.68 L6.4,5.12 Z M0,4.48 L0,14.08 L14.08,14.08 L14.08,0 L4.48,0 C2.0096,0 0,2.0096 0,4.48 L0,4.48 Z" id="Fill-1921"></path>
                    <path d="M19.2,23.04064 L25.6,23.04064 C25.95328,23.04064 26.24,23.32736 26.24,23.68064 C26.24,24.03264 25.95328,24.32064 25.6,24.32064 L19.2,24.32064 C18.84672,24.32064 18.56,24.03264 18.56,23.68064 C18.56,23.32736 18.84672,23.04064 19.2,23.04064 L19.2,23.04064 Z M19.2,20.48064 L25.6,20.48064 C25.95328,20.48064 26.24,20.76736 26.24,21.12064 C26.24,21.47264 25.95328,21.76064 25.6,21.76064 L19.2,21.76064 C18.84672,21.76064 18.56,21.47264 18.56,21.12064 C18.56,20.76736 18.84672,20.48064 19.2,20.48064 L19.2,20.48064 Z M15.36,30.72064 L26.24,30.72064 C28.7104,30.72064 30.72,28.71104 30.72,26.24064 L30.72,15.36064 L15.36,15.36064 L15.36,30.72064 Z" id="Fill-1922"></path>
                    <path d="M25.6,8.96 L19.2,8.96 C18.84672,8.96 18.56,8.67328 18.56,8.32 C18.56,7.96672 18.84672,7.68 19.2,7.68 L25.6,7.68 C25.95328,7.68 26.24,7.96672 26.24,8.32 C26.24,8.67328 25.95328,8.96 25.6,8.96 M26.24,0 L15.36,0 L15.36,14.08 L30.72,14.08 L30.72,4.48 C30.72,2.0096 28.7104,0 26.24,0" id="Fill-1923"></path>
                    <path d="M4.66752,20.29312 C4.41792,20.04352 4.41792,19.63776 4.66752,19.38688 C4.91712,19.13856 5.32288,19.13856 5.57248,19.38688 L7.68064,21.49504 L9.78752,19.38688 C10.03712,19.13856 10.44288,19.13856 10.69248,19.38688 C10.94208,19.63776 10.94208,20.04352 10.69248,20.29312 L8.58432,22.4 L10.69248,24.50688 C10.94208,24.75776 10.94208,25.16352 10.69248,25.41312 C10.56704,25.53856 10.4032,25.6 10.24064,25.6 C10.0768,25.6 9.91296,25.53856 9.78752,25.41312 L7.68064,23.30496 L5.57248,25.41312 C5.44704,25.53856 5.2832,25.6 5.12064,25.6 C4.9568,25.6 4.79296,25.53856 4.66752,25.41312 C4.41792,25.16352 4.41792,24.75776 4.66752,24.50688 L6.77568,22.4 L4.66752,20.29312 Z M0.00064,26.24 C0.00064,28.7104 2.01024,30.72 4.48064,30.72 L14.08064,30.72 L14.08064,15.36 L0.00064,15.36 L0.00064,26.24 Z" id="Fill-1924"></path>
                </g>
            </g>
        </g>
    </g>
</svg>