<?xml version="1.0" encoding="UTF-8"?>
<svg width="32px" height="32px" viewBox="0 0 32 32" version="1.1" xmlns="http://www.w3.org/2000/svg" xmlns:xlink="http://www.w3.org/1999/xlink">
    <!-- Generator: Sketch 52 (66869) - http://www.bohemiancoding.com/sketch -->
    <title>Salary</title>
    <desc>Created with Sketch.</desc>
    <g id="page" stroke="none" stroke-width="1" fill="none" fill-rule="evenodd">
        <g id="careers_page" transform="translate(-1118.000000, -2652.000000)" fill="#333631">
            <g id="benefit-copy" transform="translate(730.000000, 2612.000000)">
                <g id="Salary" transform="translate(388.000000, 40.000000)">
                    <path d="M16.6666667,21.9049333 C17.812,21.6062667 18.6666667,20.5716 18.6666667,19.3329333 C18.6666667,18.0942667 17.812,17.0596 16.6666667,16.7609333 L16.6666667,21.9049333 Z" id="Fill-2162"></path>
                    <path d="M13.3333333,12.6666667 C13.3333333,13.9053333 14.1866667,14.94 15.3333333,15.2386667 L15.3333333,10.0946667 C14.1866667,10.392 13.3333333,11.4266667 13.3333333,12.6666667" id="Fill-2163"></path>
                    <path d="M20,19.3333333 C20,21.3106667 18.5546667,22.9533333 16.6666667,23.272 L16.6666667,24.6666667 C16.6666667,25.0333333 16.368,25.3333333 16,25.3333333 C15.632,25.3333333 15.3333333,25.0333333 15.3333333,24.6666667 L15.3333333,23.272 C13.444,22.9533333 12,21.3106667 12,19.3333333 C12,18.9653333 12.2986667,18.6666667 12.6666667,18.6666667 C13.0346667,18.6666667 13.3333333,18.9653333 13.3333333,19.3333333 C13.3333333,20.572 14.1866667,21.6066667 15.3333333,21.9053333 L15.3333333,16.6053333 C13.444,16.2866667 12,14.644 12,12.6666667 C12,10.688 13.444,9.04533333 15.3333333,8.72666667 L15.3333333,7.33333333 C15.3333333,6.96533333 15.632,6.66666667 16,6.66666667 C16.368,6.66666667 16.6666667,6.96533333 16.6666667,7.33333333 L16.6666667,8.72666667 C18.5546667,9.04533333 20,10.688 20,12.6666667 C20,13.0333333 19.7013333,13.3333333 19.3333333,13.3333333 C18.9653333,13.3333333 18.6666667,13.0333333 18.6666667,12.6666667 C18.6666667,11.4266667 17.812,10.392 16.6666667,10.0946667 L16.6666667,15.3933333 C18.5546667,15.712 20,17.3546667 20,19.3333333 M16,0 C7.17733333,0 0,7.17733333 0,16 C0,24.8213333 7.17733333,32 16,32 C24.8213333,32 32,24.8213333 32,16 C32,7.17733333 24.8213333,0 16,0" id="Fill-2164"></path>
                </g>
            </g>
        </g>
    </g>
</svg>