<?xml version="1.0" encoding="UTF-8"?>
<svg width="36px" height="36px" viewBox="0 0 36 36" version="1.1" xmlns="http://www.w3.org/2000/svg" xmlns:xlink="http://www.w3.org/1999/xlink">
    <title>Group 3</title>
    <g id="brand-REfresh" stroke="none" stroke-width="1" fill="none" fill-rule="evenodd">
        <g id="Group-3">
            <path d="M27.7933437,13.4511623 C26.5733023,13.4511623 25.5845769,12.4561823 25.5845769,11.2371264 C25.5845769,10.0139589 26.5733023,9.02103465 27.7933437,9.02103465 C29.0133861,9.02103465 29.9959695,10.0139589 29.9959695,11.2371264 C29.9959695,12.4561823 29.0133861,13.4511623 27.7933437,13.4511623 M8.20716787,13.453218 C6.98917298,13.453218 6.00044774,12.4623496 6.00044774,11.2371264 C6.00044774,10.0139589 6.98917298,9.02103465 8.20716787,9.02103465 C9.42720956,9.02103465 10.4138883,10.0139589 10.4138883,11.2371264 C10.4138883,12.4623496 9.42720956,13.453218 8.20716787,13.453218 M32.1822196,6.82550043 C29.7564647,4.39149986 25.8261283,4.39149986 23.4003745,6.82550043 L17.9982088,12.2526637 L12.5960431,6.82550043 C10.1743835,4.39149986 6.24199968,4.39149986 3.81624529,6.82550043 C1.3945849,9.26155663 1.3945849,13.2085846 3.81624529,15.6425851 L17.9982088,29.8888889 L32.1822196,15.6425851 C34.6059268,13.2085846 34.6059268,9.26155663 32.1822196,6.82550043" id="ergeon_heart" fill="#0970CE" fill-rule="nonzero"></path>
            <rect id="Rectangle" x="0" y="0" width="36" height="36"></rect>
        </g>
    </g>
</svg>