<?xml version="1.0" encoding="UTF-8"?>
<svg width="36px" height="36px" viewBox="0 0 36 36" version="1.1" xmlns="http://www.w3.org/2000/svg" xmlns:xlink="http://www.w3.org/1999/xlink">
    <title>Group 5</title>
    <g id="brand-REfresh" stroke="none" stroke-width="1" fill="none" fill-rule="evenodd">
        <g id="Group-5">
            <g id="icons/text-copy-2" transform="translate(2.000000, 2.000000)" fill="#0970CE">
                <path d="M22.4678619,11.5743531 C23.1160257,11.5743531 23.7492109,11.6356291 24.3728643,11.7309473 C24.461374,11.2148673 24.5103948,10.6810854 24.5103948,10.1241547 C24.5103948,4.54123148 19.0118962,0 12.2551974,0 C5.49713688,0 0,4.54123148 0,10.1241547 C0,12.7944261 1.16424375,15.3339753 3.2135851,17.1736166 L0.770715748,21.4493188 C0.626376756,21.7012312 0.657695594,22.0157813 0.848331998,22.2336515 C0.980415792,22.3861606 1.16832882,22.4678619 1.3616886,22.4678619 C1.44611329,22.4678619 1.53189968,22.4515216 1.61496268,22.4202028 L8.20417382,19.782612 C8.79650836,19.9514614 9.4119916,20.0794601 10.03973,20.1666082 C10.0696872,20.1693315 10.1268781,20.1597997 10.1418567,20.1720549 C10.2439833,20.1720549 10.5762354,20.1693315 11.0650816,20.1407361 C11.9896681,15.3557623 16.8291094,11.5743531 22.4678619,11.5743531" id="Fill-882"></path>
                <path d="M22.4678619,12.9360417 C16.9325977,12.9360417 12.2551974,16.9897887 12.2551974,21.7870176 C12.2551974,26.3568445 16.1741372,30.2621674 21.0163019,30.7360351 C21.0176635,30.7360351 21.0217486,30.7373968 21.024472,30.7387585 C22.7892204,30.9062462 24.5267351,30.5808026 25.8884237,30.0088934 C26.3159939,30.1695726 30.648887,31.7954288 31.0805423,31.9561081 C31.331093,32.052788 31.6320262,31.9887886 31.825386,31.7736418 C32.0119373,31.5666651 32.052788,31.2657319 31.9275126,31.0151812 C31.5516866,30.2621674 30.4718675,28.1066144 30.1246369,27.4067065 C31.76411,25.9251893 32.6805264,23.9902298 32.6805264,21.7870176 C32.6805264,16.9897887 28.0031261,12.9360417 22.4678619,12.9360417" id="Fill-883"></path>
            </g>
            <rect id="Rectangle-Copy-2" x="0" y="0" width="36" height="36"></rect>
        </g>
    </g>
</svg>