<?xml version="1.0" encoding="UTF-8"?>
<svg width="36px" height="36px" viewBox="0 0 36 36" version="1.1" xmlns="http://www.w3.org/2000/svg" xmlns:xlink="http://www.w3.org/1999/xlink">
    <title>Group 11</title>
    <g id="brand-REfresh" stroke="none" stroke-width="1" fill="none" fill-rule="evenodd">
        <g id="Group-11">
            <g id="lightbulb" transform="translate(1.000000, 0.000000)" fill="#0970CE">
                <path d="M17.1314401,7.92857143 C11.7550115,7.92857143 7.38144006,12.3021429 7.38144006,17.6785714 C7.38144006,20.9824286 9.04172578,23.8907143 11.5600115,25.6568571 L11.5600115,29.2141387 C11.5600115,29.7665046 12.0106256,30.2142857 12.5685186,30.2142857 L21.6943616,30.2142857 C22.2513446,30.2142857 22.7028686,29.7606404 22.7028686,29.2141387 L22.7028686,25.6568571 C25.2211543,23.8907143 26.8814401,20.9824286 26.8814401,17.6785714 C26.8814401,12.3021429 22.5078686,7.92857143 17.1314401,7.92857143 Z" id="Fill-1547"></path>
                <path d="M19.1314401,37.2852785 C19.1314401,37.5616615 18.9163827,37.7857143 18.6409615,37.7857143 L15.6219186,37.7857143 C15.3510348,37.7857143 15.1314401,37.5549175 15.1314401,37.2852785 L15.1314401,30.2861501 C15.1314401,30.009767 15.3464974,29.7857143 15.6219186,29.7857143 L18.6409615,29.7857143 C18.9118454,29.7857143 19.1314401,30.0165111 19.1314401,30.2861501 L19.1314401,37.2852785 Z" id="Fill-1548" transform="translate(17.131440, 33.785714) rotate(-90.000000) translate(-17.131440, -33.785714) "></path>
                <path d="M19.3457258,5.07700145 C19.3457258,5.35006601 19.1306684,5.57142857 18.8552473,5.57142857 L15.8362043,5.57142857 C15.5653205,5.57142857 15.3457258,5.34612153 15.3457258,5.07700145 L15.3457258,0.494427119 C15.3457258,0.221362561 15.5607832,5.68434189e-14 15.8362043,5.68434189e-14 L18.8552473,5.68434189e-14 C19.1261311,5.68434189e-14 19.3457258,0.225307039 19.3457258,0.494427119 L19.3457258,5.07700145 Z" id="Fill-1548-Copy-2"></path>
                <path d="M5.34572578,14.0770015 C5.34572578,14.350066 5.1306684,14.5714286 4.85524726,14.5714286 L1.83620429,14.5714286 C1.56532049,14.5714286 1.34572578,14.3461215 1.34572578,14.0770015 L1.34572578,9.49442712 C1.34572578,9.22136256 1.56078315,9 1.83620429,9 L4.85524726,9 C5.12613107,9 5.34572578,9.22530704 5.34572578,9.49442712 L5.34572578,14.0770015 Z" id="Fill-1548-Copy" transform="translate(3.345726, 11.785714) rotate(-67.000000) translate(-3.345726, -11.785714) "></path>
                <path d="M32.6100158,14.0770015 C32.6100158,14.350066 32.3949585,14.5714286 32.1195373,14.5714286 L29.1004944,14.5714286 C28.8296106,14.5714286 28.6100158,14.3461215 28.6100158,14.0770015 L28.6100158,9.49442712 C28.6100158,9.22136256 28.8250732,9 29.1004944,9 L32.1195373,9 C32.3904211,9 32.6100158,9.22530704 32.6100158,9.49442712 L32.6100158,14.0770015 Z" id="Fill-1548-Copy" transform="translate(30.610016, 11.785714) scale(-1, 1) rotate(-67.000000) translate(-30.610016, -11.785714) "></path>
            </g>
            <rect id="Rectangle" x="0" y="0" width="36" height="36"></rect>
        </g>
    </g>
</svg>