<?xml version="1.0" encoding="UTF-8"?>
<svg width="36px" height="36px" viewBox="0 0 36 36" version="1.1" xmlns="http://www.w3.org/2000/svg" xmlns:xlink="http://www.w3.org/1999/xlink">
    <title>Group 4</title>
    <g id="brand-REfresh" stroke="none" stroke-width="1" fill="none" fill-rule="evenodd">
        <g id="Group-4">
            <g id="Fill-47-Copy" transform="translate(2.000000, 2.000000)" fill="#0970CE">
                <path d="M14.9191616,22.6666667 L10.5545209,18.3031053 C9.88016105,17.6289122 9.88002586,16.5356939 10.554219,15.861334 C10.5542693,15.8612837 10.5543196,15.8612334 10.55437,15.8611831 C11.2287299,15.1868231 12.3220833,15.1868231 12.9964432,15.8611831 L14.4785386,17.3432784 L14.4785386,17.3432784 L19.1965645,10.7378144 C19.7506405,9.96208123 20.8285965,9.78225825 21.6044753,10.3361304 C22.3801315,10.8898437 22.5600518,11.9675106 22.0063385,12.7431668 C22.0062684,12.7432651 22.0061982,12.7433633 22.0061281,12.7434616 L14.9191616,22.6666667 L14.9191616,22.6666667 Z M32,16 C32,13.6770909 30.6298182,11.6872727 28.6618182,10.7549091 C29.3934545,8.704 28.9570909,6.32872727 27.3149091,4.68509091 C25.6712727,3.04290909 23.296,2.60654545 21.2450909,3.33818182 C20.3127273,1.37018182 18.3229091,0 16,0 C13.6785455,0 11.6887273,1.37018182 10.7563636,3.33818182 C8.70545455,2.60654545 6.33018182,3.04290909 4.68654545,4.68509091 C3.04436364,6.32872727 2.608,8.704 3.33963636,10.7549091 C1.37163636,11.6872727 0,13.6770909 0,16 C0,18.3214545 1.37163636,20.3112727 3.33963636,21.2450909 C2.608,23.296 3.04436364,25.6727273 4.68654545,27.3134545 C6.33018182,28.9556364 8.70545455,29.3934545 10.7563636,28.6618182 C11.6901818,30.6283636 13.6785455,32 16,32 C18.3229091,32 20.3112727,30.6283636 21.2450909,28.6618182 C23.296,29.3934545 25.6712727,28.9556364 27.3149091,27.3134545 C28.9570909,25.6727273 29.3934545,23.296 28.6618182,21.2450909 C30.6298182,20.3112727 32,18.3214545 32,16 L32,16 Z" id="Fill-47"></path>
            </g>
            <rect id="Rectangle-Copy" x="0" y="0" width="36" height="36"></rect>
        </g>
    </g>
</svg>