<?xml version="1.0" encoding="UTF-8"?>
<svg width="24px" height="24px" viewBox="0 0 24 24" version="1.1" xmlns="http://www.w3.org/2000/svg" xmlns:xlink="http://www.w3.org/1999/xlink">
    <!-- Generator: Sketch 52.5 (67469) - http://www.bohemiancoding.com/sketch -->
    <title>buck</title>
    <desc>Created with Sketch.</desc>
    <g id="fences" stroke="none" stroke-width="1" fill="none" fill-rule="evenodd">
        <g transform="translate(-858.000000, -2405.000000)" fill="#09A873" id="cards">
            <g transform="translate(130.000000, 2381.000000)">
                <g id="block-copy" transform="translate(600.000000, 0.000000)">
                    <g id="buck" transform="translate(128.000000, 24.000000)">
                        <path d="M12.5,16.4287 C13.359,16.2047 14,15.4287 14,14.4997 C14,13.5707 13.359,12.7947 12.5,12.5707 L12.5,16.4287 Z" id="Fill-2159"></path>
                        <path d="M10,9.5 C10,10.429 10.64,11.205 11.5,11.429 L11.5,7.571 C10.64,7.794 10,8.57 10,9.5" id="Fill-2160"></path>
                        <path d="M15,14.5 C15,15.983 13.916,17.215 12.5,17.454 L12.5,18.5 C12.5,18.775 12.276,19 12,19 C11.724,19 11.5,18.775 11.5,18.5 L11.5,17.454 C10.083,17.215 9,15.983 9,14.5 C9,14.224 9.224,14 9.5,14 C9.776,14 10,14.224 10,14.5 C10,15.429 10.64,16.205 11.5,16.429 L11.5,12.454 C10.083,12.215 9,10.983 9,9.5 C9,8.016 10.083,6.784 11.5,6.545 L11.5,5.5 C11.5,5.224 11.724,5 12,5 C12.276,5 12.5,5.224 12.5,5.5 L12.5,6.545 C13.916,6.784 15,8.016 15,9.5 C15,9.775 14.776,10 14.5,10 C14.224,10 14,9.775 14,9.5 C14,8.57 13.359,7.794 12.5,7.571 L12.5,11.545 C13.916,11.784 15,13.016 15,14.5 M24,12 C24,11.1 23.519,10.295 22.781,9.855 C23.294,9.166 23.431,8.239 23.086,7.408 C22.745,6.584 22.004,6.018 21.14,5.893 C21.35,5.06 21.121,4.151 20.485,3.515 C19.866,2.896 18.94,2.649 18.106,2.859 C17.982,2.01 17.423,1.258 16.592,0.914 C15.776,0.576 14.823,0.71 14.144,1.218 C13.703,0.48 12.899,0 12,0 C11.101,0 10.296,0.48 9.856,1.218 C9.177,0.711 8.223,0.575 7.407,0.914 C6.576,1.257 6.017,2.009 5.893,2.859 C5.058,2.649 4.134,2.896 3.514,3.515 C2.878,4.151 2.649,5.06 2.859,5.893 C1.996,6.018 1.255,6.584 0.913,7.408 C0.569,8.239 0.706,9.166 1.219,9.855 C0.481,10.295 0,11.1 0,12 C0,12.899 0.481,13.704 1.219,14.144 C0.705,14.833 0.569,15.761 0.913,16.592 C1.254,17.415 1.996,17.982 2.859,18.107 C2.649,18.939 2.878,19.849 3.514,20.485 C4.134,21.104 5.059,21.35 5.893,21.14 C6.018,21.989 6.576,22.742 7.407,23.086 C8.222,23.425 9.177,23.289 9.856,22.782 C10.296,23.52 11.101,24 12,24 C12.899,24 13.703,23.52 14.144,22.782 C14.822,23.289 15.774,23.424 16.592,23.086 C17.423,22.742 17.982,21.99 18.106,21.14 C18.94,21.351 19.866,21.104 20.485,20.485 C21.121,19.849 21.35,18.939 21.14,18.107 C22.003,17.982 22.745,17.415 23.087,16.592 C23.431,15.761 23.295,14.833 22.781,14.145 C23.519,13.705 24,12.9 24,12" id="Fill-2161"></path>
                    </g>
                </g>
            </g>
        </g>
    </g>
</svg>