<?xml version="1.0" encoding="UTF-8"?>
<svg width="24px" height="15px" viewBox="0 0 24 15" version="1.1" xmlns="http://www.w3.org/2000/svg" xmlns:xlink="http://www.w3.org/1999/xlink">
    <!-- Generator: Sketch 52.5 (67469) - http://www.bohemiancoding.com/sketch -->
    <title>card@2x</title>
    <desc>Created with Sketch.</desc>
    <g id="fences" stroke="none" stroke-width="1" fill="none" fill-rule="evenodd">
        <g transform="translate(-558.000000, -2414.000000)" fill="#09A873" id="cards">
            <g transform="translate(130.000000, 2381.000000)">
                <g id="block-copy-2" transform="translate(300.000000, 0.000000)">
                    <g id="card" transform="translate(128.000000, 32.000000)">
                        <path d="M21.5,0.9995 L2.5,0.9995 C1.121,0.9995 0,2.1215 0,3.4995 L0,4.9995 L24,4.9995 L24,3.4995 C24,2.1215 22.878,0.9995 21.5,0.9995" id="Fill-2052"></path>
                        <path d="M3.5,10 L6.5,10 C6.775,10 7,10.224 7,10.5 C7,10.776 6.775,11 6.5,11 L3.5,11 C3.224,11 3,10.776 3,10.5 C3,10.224 3.224,10 3.5,10 L3.5,10 Z M3.5,8 L11.5,8 C11.775,8 12,8.224 12,8.5 C12,8.776 11.775,9 11.5,9 L3.5,9 C3.224,9 3,8.776 3,8.5 C3,8.224 3.224,8 3.5,8 L3.5,8 Z M17.5,8 L20.5,8 C20.775,8 21,8.224 21,8.5 C21,8.776 20.775,9 20.5,9 L17.5,9 C17.224,9 17,8.776 17,8.5 C17,8.224 17.224,8 17.5,8 L17.5,8 Z M0,13.5 C0,14.878 1.121,16 2.5,16 L21.5,16 C22.878,16 24,14.878 24,13.5 L24,6 L0,6 L0,13.5 Z" id="Fill-2053"></path>
                    </g>
                </g>
            </g>
        </g>
    </g>
</svg>