<?xml version="1.0" encoding="UTF-8"?>
<svg width="64px" height="64px" viewBox="0 0 64 64" version="1.1" xmlns="http://www.w3.org/2000/svg" xmlns:xlink="http://www.w3.org/1999/xlink">
    <g id="Page-1" stroke="none" stroke-width="1" fill="none" fill-rule="evenodd">
        <g id="chart">
            <path d="M20.068,38.128 C21.5826667,38.128 22.7933333,37.656 23.7,36.712 C24.6066667,35.768 25.06,34.3413333 25.06,32.432 C25.06,30.8746667 24.7053333,29.6453333 23.996,28.744 C23.2866667,27.8426667 22.308,27.392 21.06,27.392 C19.94,27.392 19.052,27.7386667 18.396,28.432 C17.74,29.1253333 17.412,29.9946667 17.412,31.04 C17.412,32.0426667 17.7026667,32.8453333 18.284,33.448 C18.8653333,34.0506667 19.6253333,34.352 20.564,34.352 C21.492,34.352 22.1853333,34.1226667 22.644,33.664 C22.5053333,34.4746667 22.2066667,35.0693333 21.748,35.448 C21.2893333,35.8266667 20.644,36.016 19.812,36.016 C19.268,36.016 18.7186667,35.8826667 18.164,35.616 L18.164,35.616 L18.164,37.824 C18.708,38.0266667 19.3426667,38.128 20.068,38.128 Z M21.156,32.464 C20.74,32.464 20.4093333,32.3253333 20.164,32.048 C19.9186667,31.7706667 19.796,31.4186667 19.796,30.992 C19.796,30.512 19.9213333,30.1386667 20.172,29.872 C20.4226667,29.6053333 20.756,29.472 21.172,29.472 C22.068,29.472 22.58,30.2293333 22.708,31.744 C22.3133333,32.224 21.796,32.464 21.156,32.464 Z M29.94,38.16 C31.0813333,38.16 32.0066667,37.8773333 32.716,37.312 C33.4253333,36.7466667 33.78,36.0053333 33.78,35.088 C33.78,33.936 33.284,33.1306667 32.292,32.672 C33.1666667,32.16 33.604,31.424 33.604,30.464 C33.604,29.4293333 33.2653333,28.6506667 32.588,28.128 C31.9106667,27.6053333 31.028,27.344 29.94,27.344 C28.8946667,27.344 28.0333333,27.6186667 27.356,28.168 C26.6786667,28.7173333 26.34,29.4826667 26.34,30.464 C26.34,31.4453333 26.7933333,32.1973333 27.7,32.72 C26.6866667,33.2213333 26.18,34.0373333 26.18,35.168 C26.18,36.0853333 26.5186667,36.8133333 27.196,37.352 C27.8733333,37.8906667 28.788,38.16 29.94,38.16 Z M29.988,31.712 C29.6146667,31.712 29.3053333,31.6 29.06,31.376 C28.8146667,31.152 28.692,30.8373333 28.692,30.432 C28.692,30.0906667 28.7933333,29.8 28.996,29.56 C29.1986667,29.32 29.5133333,29.2 29.94,29.2 C30.8253333,29.2 31.268,29.6106667 31.268,30.432 C31.268,30.8373333 31.1453333,31.152 30.9,31.376 C30.6546667,31.6 30.3506667,31.712 29.988,31.712 Z M29.956,36.304 C29.4546667,36.304 29.0893333,36.1866667 28.86,35.952 C28.6306667,35.7173333 28.516,35.4346667 28.516,35.104 C28.516,34.7413333 28.636,34.4266667 28.876,34.16 C29.116,33.8933333 29.476,33.76 29.956,33.76 C30.4253333,33.76 30.7906667,33.8826667 31.052,34.128 C31.3133333,34.3733333 31.444,34.688 31.444,35.072 C31.444,35.4133333 31.3186667,35.704 31.068,35.944 C30.8173333,36.184 30.4466667,36.304 29.956,36.304 Z M38.1,32.528 C38.9426667,32.528 39.66,32.232 40.252,31.64 C40.844,31.048 41.14,30.3306667 41.14,29.488 C41.14,28.6453333 40.8413333,27.9306667 40.244,27.344 C39.6573333,26.7466667 38.9426667,26.448 38.1,26.448 C37.2573333,26.448 36.54,26.744 35.948,27.336 C35.356,27.928 35.06,28.6453333 35.06,29.488 C35.06,30.3306667 35.356,31.048 35.948,31.64 C36.54,32.232 37.2573333,32.528 38.1,32.528 Z M40.068,38.016 L46.148,26.688 L44.036,26.688 L37.972,38.016 L40.068,38.016 Z M38.1,30.656 C37.78,30.656 37.5053333,30.5413333 37.276,30.312 C37.0466667,30.0826667 36.932,29.808 36.932,29.488 C36.932,29.168 37.044,28.896 37.268,28.672 C37.5026667,28.4373333 37.78,28.32 38.1,28.32 C38.42,28.32 38.6946667,28.4346667 38.924,28.664 C39.1533333,28.8933333 39.268,29.168 39.268,29.488 C39.268,29.808 39.1533333,30.0826667 38.924,30.312 C38.6946667,30.5413333 38.42,30.656 38.1,30.656 Z M46.148,38.128 C46.9906667,38.128 47.708,37.832 48.3,37.24 C48.892,36.648 49.188,35.9306667 49.188,35.088 C49.188,34.2453333 48.8893333,33.5306667 48.292,32.944 C47.7053333,32.3466667 46.9906667,32.048 46.148,32.048 C45.3053333,32.048 44.588,32.344 43.996,32.936 C43.404,33.528 43.108,34.2453333 43.108,35.088 C43.108,35.9306667 43.404,36.648 43.996,37.24 C44.588,37.832 45.3053333,38.128 46.148,38.128 Z M46.148,36.256 C45.828,36.256 45.5533333,36.1413333 45.324,35.912 C45.0946667,35.6826667 44.98,35.408 44.98,35.088 C44.98,34.768 45.092,34.496 45.316,34.272 C45.5506667,34.0373333 45.828,33.92 46.148,33.92 C46.468,33.92 46.7426667,34.0346667 46.972,34.264 C47.2013333,34.4933333 47.316,34.768 47.316,35.088 C47.316,35.408 47.2013333,35.6826667 46.972,35.912 C46.7426667,36.1413333 46.468,36.256 46.148,36.256 Z" id="98%" fill="#09A873" fill-rule="nonzero"></path>
            <path d="M32,1 C49.1208272,1 63,14.8791728 63,32 C63,49.1208272 49.1208272,63 32,63 C14.8791728,63 1,49.1208272 1,32 C1,14.8791728 14.8791728,1 32,1 Z M32,5 C17.0883118,5 5,17.0883118 5,32 C5,46.9116882 17.0883118,59 32,59 C46.9116882,59 59,46.9116882 59,32 C59,17.0883118 46.9116882,5 32,5 Z" id="Combined-Shape" fill="#E4E9E2"></path>
            <path d="M32,0 C49.673112,0 64,14.326888 64,32 C64,49.673112 49.673112,64 32,64 C14.326888,64 0,49.673112 0,32 C0,16.8419078 10.5393759,4.14541873 24.6898842,0.838776398 L25.6546572,6.77981699 C14.3622911,9.61194946 6,19.8294159 6,32 C6,46.3594035 17.6405965,58 32,58 C46.3594035,58 58,46.3594035 58,32 C58,17.6405965 46.3594035,6 32,6 C31.5526623,6 31.1079633,6.01129727 30.6661726,6.03362205 L30.6664641,0.0272824138 C31.10872,0.00915324538 31.5532911,0 32,0 Z" id="Combined-Shape" fill="#09A873"></path>
        </g>
    </g>
</svg>