<?xml version="1.0" encoding="UTF-8"?>
<svg width="64px" height="64px" viewBox="0 0 64 64" version="1.1" xmlns="http://www.w3.org/2000/svg" xmlns:xlink="http://www.w3.org/1999/xlink">
    <g id="Page-1" stroke="none" stroke-width="1" fill="none" fill-rule="evenodd">
        <g id="chart-copy" fill="#0970ce">
            <path d="M18.544,38 L18.544,27.536 L16.528,27.536 L13.584,29.248 L13.584,31.632 L16.224,30.048 L16.224,38 L18.544,38 Z M23.872,38.128 C25.1306667,38.128 26.0826667,37.6373333 26.728,36.656 C27.3733333,35.6746667 27.696,34.3626667 27.696,32.72 C27.696,31.056 27.3733333,29.7386667 26.728,28.768 C26.0826667,27.7973333 25.1306667,27.312 23.872,27.312 C22.6133333,27.312 21.664,27.7973333 21.024,28.768 C20.384,29.7386667 20.064,31.056 20.064,32.72 C20.064,34.3733333 20.384,35.688 21.024,36.664 C21.664,37.64 22.6133333,38.128 23.872,38.128 Z M23.872,36.048 C22.9226667,36.048 22.448,34.9386667 22.448,32.72 C22.448,30.5013333 22.9226667,29.392 23.872,29.392 C24.832,29.392 25.312,30.5013333 25.312,32.72 C25.312,34.9386667 24.832,36.048 23.872,36.048 Z M32.624,38.128 C33.8826667,38.128 34.8346667,37.6373333 35.48,36.656 C36.1253333,35.6746667 36.448,34.3626667 36.448,32.72 C36.448,31.056 36.1253333,29.7386667 35.48,28.768 C34.8346667,27.7973333 33.8826667,27.312 32.624,27.312 C31.3653333,27.312 30.416,27.7973333 29.776,28.768 C29.136,29.7386667 28.816,31.056 28.816,32.72 C28.816,34.3733333 29.136,35.688 29.776,36.664 C30.416,37.64 31.3653333,38.128 32.624,38.128 Z M32.624,36.048 C31.6746667,36.048 31.2,34.9386667 31.2,32.72 C31.2,30.5013333 31.6746667,29.392 32.624,29.392 C33.584,29.392 34.064,30.5013333 34.064,32.72 C34.064,34.9386667 33.584,36.048 32.624,36.048 Z M40.768,32.528 C41.6106667,32.528 42.328,32.232 42.92,31.64 C43.512,31.048 43.808,30.3306667 43.808,29.488 C43.808,28.6453333 43.5093333,27.9306667 42.912,27.344 C42.3253333,26.7466667 41.6106667,26.448 40.768,26.448 C39.9253333,26.448 39.208,26.744 38.616,27.336 C38.024,27.928 37.728,28.6453333 37.728,29.488 C37.728,30.3306667 38.024,31.048 38.616,31.64 C39.208,32.232 39.9253333,32.528 40.768,32.528 Z M42.736,38.016 L48.816,26.688 L46.704,26.688 L40.64,38.016 L42.736,38.016 Z M40.768,30.656 C40.448,30.656 40.1733333,30.5413333 39.944,30.312 C39.7146667,30.0826667 39.6,29.808 39.6,29.488 C39.6,29.168 39.712,28.896 39.936,28.672 C40.1706667,28.4373333 40.448,28.32 40.768,28.32 C41.088,28.32 41.3626667,28.4346667 41.592,28.664 C41.8213333,28.8933333 41.936,29.168 41.936,29.488 C41.936,29.808 41.8213333,30.0826667 41.592,30.312 C41.3626667,30.5413333 41.088,30.656 40.768,30.656 Z M48.816,38.128 C49.6586667,38.128 50.376,37.832 50.968,37.24 C51.56,36.648 51.856,35.9306667 51.856,35.088 C51.856,34.2453333 51.5573333,33.5306667 50.96,32.944 C50.3733333,32.3466667 49.6586667,32.048 48.816,32.048 C47.9733333,32.048 47.256,32.344 46.664,32.936 C46.072,33.528 45.776,34.2453333 45.776,35.088 C45.776,35.9306667 46.072,36.648 46.664,37.24 C47.256,37.832 47.9733333,38.128 48.816,38.128 Z M48.816,36.256 C48.496,36.256 48.2213333,36.1413333 47.992,35.912 C47.7626667,35.6826667 47.648,35.408 47.648,35.088 C47.648,34.768 47.76,34.496 47.984,34.272 C48.2186667,34.0373333 48.496,33.92 48.816,33.92 C49.136,33.92 49.4106667,34.0346667 49.64,34.264 C49.8693333,34.4933333 49.984,34.768 49.984,35.088 C49.984,35.408 49.8693333,35.6826667 49.64,35.912 C49.4106667,36.1413333 49.136,36.256 48.816,36.256 Z" id="100%" fill-rule="nonzero"></path>
            <path d="M32,0 C49.673112,0 64,14.326888 64,32 C64,49.673112 49.673112,64 32,64 C14.326888,64 0,49.673112 0,32 C0,14.326888 14.326888,0 32,0 Z M32,6 C17.6405965,6 6,17.6405965 6,32 C6,46.3594035 17.6405965,58 32,58 C46.3594035,58 58,46.3594035 58,32 C58,17.6405965 46.3594035,6 32,6 Z" id="Combined-Shape-Copy-2"></path>
        </g>
    </g>
</svg>