<?xml version="1.0" encoding="utf-8"?>
<!-- Generator: Adobe Illustrator 21.1.0, SVG Export Plug-In . SVG Version: 6.00 Build 0)  -->
<svg version="1.1" id="Слой_1" xmlns="http://www.w3.org/2000/svg" xmlns:xlink="http://www.w3.org/1999/xlink" x="0px" y="0px"
	 viewBox="0 0 8 8" style="enable-background:new 0 0 8 8;" xml:space="preserve">
<style type="text/css">
	.st0{fill:#BFC4BD;}
</style>
<title>icon_error</title>
<desc>Created with Sketch.</desc>
<g id="home-page">
	<g id="lead_form" transform="translate(-852.000000, -209.000000)">
		<g id="Group-2" transform="translate(480.000000, 65.000000)">
			<g id="Product-list" transform="translate(60.000000, 126.000000)">
				<g id="icons_x2F_cross_x2F_gray" transform="translate(308.000000, 14.000000)">
					<path id="cross_x2F_white" class="st0" d="M8,6.7l2.5-2.5c0.3-0.3,0.9-0.3,1.3,0c0.3,0.3,0.3,0.9,0,1.3L9.3,8l2.5,2.5
						c0.3,0.3,0.3,0.9,0,1.3s-0.9,0.3-1.3,0L8,9.3l-2.5,2.5c-0.3,0.3-0.9,0.3-1.3,0c-0.3-0.3-0.3-0.9,0-1.3L6.7,8L4.2,5.5
						c-0.3-0.3-0.3-0.9,0-1.3c0.3-0.3,0.9-0.3,1.3,0L8,6.7z"/>
				</g>
			</g>
		</g>
	</g>
</g>
</svg>
