<?xml version="1.0" encoding="UTF-8"?>
<svg width="16px" height="16px" viewBox="0 0 16 16" version="1.1" xmlns="http://www.w3.org/2000/svg" xmlns:xlink="http://www.w3.org/1999/xlink">
    <!-- Generator: Sketch 52.5 (67469) - http://www.bohemiancoding.com/sketch -->
    <title>external_link</title>
    <desc>Created with Sketch.</desc>
    <g id="photo-gallery" stroke="none" stroke-width="1" fill="none" fill-rule="evenodd">
        <g id="driveway-gallery" transform="translate(-211.000000, -1637.000000)" fill="#09A873">
            <g id="section" transform="translate(130.000000, 1567.000000)">
                <g id="partner-copy-4" transform="translate(0.000000, 28.000000)">
                    <g id="external_link" transform="translate(81.000000, 42.000000)">
                        <path d="M5.7442,6.87784 L2.0666,10.55464 C1.4434,11.17864 1.4434,12.19304 2.0666,12.81784 L2.6322,13.38264 C3.2378,13.98824 4.2914,13.98744 4.8946,13.38264 L6.633,11.64584 C6.9458,11.33304 7.4522,11.33304 7.7642,11.64584 C8.077,11.95784 8.077,12.46424 7.7642,12.77704 L6.0266,14.51384 C5.4226,15.11784 4.6194,15.45144 3.7642,15.45144 C2.909,15.45144 2.1058,15.11864 1.501,14.51304 L0.9354,13.94904 C-0.3118,12.70104 -0.3118,10.67064 0.9354,9.42344 L4.613,5.74584 C5.2178,5.14184 6.021,4.80904 6.8754,4.80904 C7.7298,4.80904 8.5338,5.14184 9.1386,5.74664 L9.7034,6.31144 C10.0162,6.62424 10.0162,7.13064 9.7034,7.44344 C9.3914,7.75624 8.885,7.75624 8.5722,7.44344 L8.0066,6.87784 C7.4026,6.27304 6.349,6.27304 5.7442,6.87784 Z M10.83564,9.7064 C10.23084,10.3096 9.42764,10.6432 8.57244,10.6432 C7.71724,10.6432 6.91484,10.3096 6.31004,9.7056 C5.99804,9.392 5.99804,8.8872 6.31084,8.5736 C6.62284,8.2616 7.12924,8.2616 7.44204,8.5744 C8.04604,9.1792 9.09964,9.1792 9.70364,8.5736 L13.38124,4.8976 C13.68284,4.5952 13.84924,4.1936 13.84924,3.7664 C13.84924,3.3384 13.68284,2.9368 13.38124,2.6352 L12.81564,2.0696 C12.51324,1.7664 12.11164,1.6 11.68364,1.6 C11.25644,1.6 10.85484,1.7664 10.55244,2.0696 L8.96444,3.6568 C8.65164,3.9704 8.14524,3.9704 7.83244,3.6568 C7.52044,3.3448 7.52044,2.8392 7.83324,2.5256 L9.42124,0.9384 C10.02524,0.3328 10.82924,5.15143483e-14 11.68364,5.15143483e-14 C12.53884,5.15143483e-14 13.34204,0.3328 13.94684,0.9384 L14.51244,1.5048 C15.11644,2.108 15.44924,2.9112 15.44924,3.7664 C15.44924,4.6216 15.11644,5.424 14.51244,6.0288 L10.83564,9.7064 Z" id="Combined-Shape"></path>
                    </g>
                </g>
            </g>
        </g>
    </g>
</svg>