<?xml version="1.0" encoding="UTF-8"?>
<svg width="36px" height="28px" viewBox="0 0 36 28" version="1.1" xmlns="http://www.w3.org/2000/svg" xmlns:xlink="http://www.w3.org/1999/xlink">
    <!-- Generator: Sketch 57.1 (83088) - https://sketch.com -->
    <title>icon-fence-101</title>
    <desc>Created with Sketch.</desc>
    <g id="help-center" stroke="none" stroke-width="1" fill="none" fill-rule="evenodd">
        <g id="help_center_root" transform="translate(-150.000000, -327.000000)">
            <g id="Group-4" transform="translate(130.000000, 302.000000)">
                <g id="icon-fence-101" transform="translate(20.000000, 20.000000)">
                    <rect id="Rectangle" x="0" y="0" width="36" height="36"></rect>
                    <g id="Fill-2409" transform="translate(0.000000, 5.000000)" fill="#A3A9A0">
                        <g id="Fill-2408">
                            <path d="M25.5,21.5 L24,21.5 L24,9.5 L25.5,9.5 L25.5,21.5 Z M12,21.5 L10.5,21.5 L10.5,9.5 L12,9.5 L12,21.5 Z M33.281,0.719 C32.987,0.4265 28.513,0.4265 28.219,0.719 L25.719,3.219 C25.5795,3.36 25.5,3.5505 25.5,3.75 L25.5,8 L24,8 L24,3.75 C24,3.5505 23.9205,3.36 23.781,3.219 L20.531,0.719 C20.237,0.4265 15.763,0.4265 15.469,0.719 L12.219,3.219 C12.0795,3.36 12,3.5505 12,3.75 L12,8 L10.5,8 L10.5,3.75 C10.5,3.5505 10.4205,3.36 10.281,3.219 L7.781,0.719 C7.487,0.4265 3.013,0.4265 2.719,0.719 L0.219,3.219 C0.0795,3.36 0,3.5505 0,3.75 L0,26.75 C0,27.164 0.336,27.5 0.75,27.5 L9.75,27.5 C10.164,27.5 10.5,27.164 10.5,26.75 L10.5,23 L12,23 L12,26.75 C12,27.164 12.336,27.5 12.75,27.5 L23.25,27.5 C23.664,27.5 24,27.164 24,26.75 L24,23 L25.5,23 L25.5,26.75 C25.5,27.164 25.836,27.5 26.25,27.5 L35.25,27.5 C35.664,27.5 36,27.164 36,26.75 L36,3.75 C36,3.5505 35.9205,3.36 35.781,3.219 L33.281,0.719 Z"></path>
                        </g>
                    </g>
                </g>
            </g>
        </g>
    </g>
</svg>