<?xml version="1.0" encoding="UTF-8"?>
<svg width="16px" height="16px" viewBox="0 0 16 16" version="1.1" xmlns="http://www.w3.org/2000/svg" xmlns:xlink="http://www.w3.org/1999/xlink">
    <!-- Generator: Sketch 55.2 (78181) - https://sketchapp.com -->
    <title>Fill 3223</title>
    <desc>Created with Sketch.</desc>
    <g id="projects-gallery" stroke="none" stroke-width="1" fill="none" fill-rule="evenodd">
        <g id="by_tags_one_column" transform="translate(-1286.000000, -184.000000)" fill="#A3A9A0">
            <g id="text_field" transform="translate(1110.000000, 174.000000)">
                <g id="Fill-3224" transform="translate(176.000000, 10.000000)">
                    <path d="M2.46153846,6.15384615 C2.46153846,4.11815385 4.11815385,2.46153846 6.15384615,2.46153846 C8.18953846,2.46153846 9.84615385,4.11815385 9.84615385,6.15384615 C9.84615385,8.19076923 8.18953846,9.84615385 6.15384615,9.84615385 C4.11815385,9.84615385 2.46153846,8.19076923 2.46153846,6.15384615 L2.46153846,6.15384615 Z M15.2787692,13.5384615 L11.2824615,9.54215385 C11.9273846,8.56861538 12.3076923,7.40553846 12.3076923,6.15384615 C12.3076923,2.76061538 9.54707692,4.56523708e-13 6.15384615,4.56523708e-13 C2.76061538,4.56523708e-13 3.39284156e-13,2.76061538 3.39284156e-13,6.15384615 C3.39284156e-13,9.54707692 2.76061538,12.3076923 6.15384615,12.3076923 C7.40676923,12.3076923 8.56861538,11.9273846 9.54215385,11.2824615 L13.5384615,15.28 L15.2787692,13.5384615 Z" id="Fill-3223"></path>
                </g>
            </g>
        </g>
    </g>
</svg>