<?xml version="1.0" encoding="UTF-8"?>
<svg width="25px" height="24px" viewBox="0 0 25 24" version="1.1" xmlns="http://www.w3.org/2000/svg" xmlns:xlink="http://www.w3.org/1999/xlink">
    <!-- Generator: Sketch 57.1 (83088) - https://sketch.com -->
    <title>final-walkthrough</title>
    <desc>Created with Sketch.</desc>
    <g id="customer-app" stroke="none" stroke-width="1" fill="none" fill-rule="evenodd">
        <g id="quote-page" transform="translate(-250.000000, -2607.000000)">
            <g id="Group-6" transform="translate(210.000000, 2273.000000)">
                <g id="item-copy-2" transform="translate(40.000000, 334.000000)">
                    <g id="final-walkthrough">
                        <polygon id="Rectangle-2" points="0 0 24 0 24 24 0 24"></polygon>
                        <rect id="Rectangle" fill="#E4F6F0" fill-rule="nonzero" x="0" y="0" width="24" height="24" rx="12"></rect>
                        <g id="Group">
                            <path d="M13.9362,20.146 L16.8522,23.062 L13.6332,23.982 C13.5882,23.995 13.5432,24.001 13.4972,24.001 C13.3672,24.001 13.2392,23.951 13.1442,23.854 C13.0152,23.727 12.9672,23.538 13.0162,23.365 L13.0162,23.365 L13.4072,22 L13.4062,22 L13.9362,20.146 Z M19.2926,14.4989 L22.4996,17.7059 L17.7046,22.5009 L14.4976,19.2939 L17.9976,15.7939 L17.9976,15.7949 L19.2926,14.4989 Z M22.2843162,12.0887222 L22.3535,12.1465 L24.8535,14.6465 C24.9475,14.7405 25.0005,14.8675 25.0005,15.0005 C25.0005,15.1061 24.96658,15.20914 24.904884,15.293748 L24.8535,15.3535 L23.2075,16.9985 L20.0005,13.7925 L21.6465,12.1465 C21.8198333,11.9731667 22.0895617,11.9539074 22.2843162,12.0887222 Z" id="Combined-Shape" fill="#09A873"></path>
                            <path d="M12.4976,0.5 L17.4976,5.5 L12.4976,5.5 L12.4976,0.5 Z M13.2536,19.124 L17.9976,14.38 L17.9976,5.5 C17.9976,5.367 17.9446,5.24 17.8516,5.146 L12.8516,0.146 C12.7576,0.053 12.6296,0 12.4976,0 L1.4976,0 C1.2216,0 0.9976,0.224 0.9976,0.5 L0.9976,21.5 C0.9976,21.776 1.2216,22 1.4976,22 L12.3666,22 L13.1266,19.34 C13.1496,19.258 13.1936,19.184 13.2536,19.124 L13.2536,19.124 Z" id="Fill-1886" fill="#09A873"></path>
                            <path d="M12,15 L12,16 L3,16 L3,15 L12,15 Z M16,13 L16,14 L3,14 L3,13 L16,13 Z M16,11 L16,12 L3,12 L3,11 L16,11 Z M16,9 L16,10 L3,10 L3,9 L16,9 Z M16,7 L16,8 L3,8 L3,7 L16,7 Z" id="Combined-Shape" fill="#F8FBF7"></path>
                        </g>
                    </g>
                </g>
            </g>
        </g>
    </g>
</svg>