<?xml version="1.0" encoding="UTF-8"?>
<svg width="80px" height="80px" viewBox="0 0 80 80" version="1.1" xmlns="http://www.w3.org/2000/svg" xmlns:xlink="http://www.w3.org/1999/xlink">
    <title>services-policies</title>
    <g id="root-icons_help" stroke="none" stroke-width="1" fill="none" fill-rule="evenodd">
        <g id="Group-6">
            <rect id="Rectangle" x="0" y="0" width="80" height="80"></rect>
            <path d="M66.6658358,39.4861549 C67.0915067,39.4913986 67.4928127,39.7238387 67.762261,40.1210683 L67.762261,40.1210683 L69.8705506,43.2364591 C70.0812362,43.5469574 70.195895,43.9337793 70.195895,44.3362129 L70.195895,44.3362129 L70.195895,66.2653726 C70.195895,67.2228869 69.5538055,68 68.7626594,68 L68.7626594,68 L64.4629527,68 C63.6718066,68 63.0297171,67.2228869 63.0297171,66.2653726 L63.0297171,66.2653726 L63.0297171,64.5307452 L58.7300103,64.5307452 L58.7300103,66.2653726 C58.7300103,67.2228869 58.0879207,68 57.2967747,68 L57.2967747,68 L52.9970679,68 C52.2059218,68 51.5638323,67.2228869 51.5638323,66.2653726 L51.5638323,66.2653726 L51.5638323,64.5307452 L47.2641255,64.5307452 L47.2641255,66.2653726 C47.2641255,67.2228869 46.6220359,68 45.8308899,68 L45.8308899,68 L41.5311831,68 C40.7400371,68 40.0979475,67.2228869 40.0979475,66.2653726 L40.0979475,66.2653726 L40.0979475,44.3518245 C40.0979475,43.9407179 40.2183393,43.5434882 40.4376243,43.2295207 L40.4376243,43.2295207 L42.6290416,40.1002528 C42.9027896,39.7064924 43.3083952,39.4827255 43.7340662,39.4861549 C44.1597372,39.4913986 44.5610432,39.7238387 44.8304915,40.1210683 L44.8304915,40.1210683 L46.938781,43.2364591 C47.1494666,43.5469574 47.2641255,43.9337793 47.2641255,44.3362129 L47.2641255,44.3362129 L47.2641255,47.1844711 L51.5638323,47.1844711 L51.5638323,44.3518245 C51.5638323,43.9407179 51.6842241,43.5434882 51.9035092,43.2295207 L51.9035092,43.2295207 L54.0949264,40.1002528 C54.3686744,39.7064924 54.77428,39.4827255 55.199951,39.4861549 C55.625622,39.4913986 56.026928,39.7238387 56.2963762,40.1210683 L56.2963762,40.1210683 L58.4046658,43.2364591 C58.6153514,43.5469574 58.7300103,43.9337793 58.7300103,44.3362129 L58.7300103,44.3362129 L58.7300103,47.1844711 L63.0297171,47.1844711 L63.0297171,44.3518245 C63.0297171,43.9407179 63.1501089,43.5434882 63.3693939,43.2295207 L63.3693939,43.2295207 L65.5608111,40.1002528 C65.8345591,39.7064924 66.2401648,39.4827255 66.6658358,39.4861549 Z M44.9657975,13 C48.1042347,13 50.1305967,14.862199 50.1305967,18.0163246 L50.1305967,18.0163246 L50.1305967,35.5734606 L40.0979475,35.5734606 C37.3289364,35.5734606 35.0816229,37.8207741 35.0816229,40.5897852 L35.0816229,40.5897852 L35.0816229,63.1632459 L15.0163246,63.1632459 C12.2498216,63.1632459 10,60.9134243 10,58.1469213 L10,58.1469213 L10,18.0163246 C10,15.2498216 12.2498216,13 15.0163246,13 L15.0163246,13 Z M63.0297171,57.5922356 L58.7300103,57.5922356 L58.7300103,61.0614904 L63.0297171,61.0614904 L63.0297171,57.5922356 Z M51.5638323,57.5922356 L47.2641255,57.5922356 L47.2641255,61.0614904 L51.5638323,61.0614904 L51.5638323,57.5922356 Z M51.5638323,50.6537259 L47.2641255,50.6537259 L47.2641255,54.1229807 L51.5638323,54.1229807 L51.5638323,50.6537259 Z M63.0297171,50.6537259 L58.7300103,50.6537259 L58.7300103,54.1229807 L63.0297171,54.1229807 L63.0297171,50.6537259 Z M26.8548506,37.078358 L14.8156716,37.078358 L14.8156716,41.8940296 L26.8548506,41.8940296 L26.8548506,37.078358 Z M26.8548506,27.4470148 L14.8156716,27.4470148 L14.8156716,32.2626864 L26.8548506,32.2626864 L26.8548506,27.4470148 Z M44.9136191,17.8156716 L14.8156716,17.8156716 L14.8156716,22.6313432 L44.9136191,22.6313432 L44.9136191,17.8156716 Z" id="Fill-1772" fill="#A0A0A9"></path>
        </g>
    </g>
</svg>