<?xml version="1.0" encoding="UTF-8"?>
<svg width="30px" height="18px" viewBox="0 0 30 18" version="1.1" xmlns="http://www.w3.org/2000/svg" xmlns:xlink="http://www.w3.org/1999/xlink">
    <!-- Generator: Sketch 57.1 (83088) - https://sketch.com -->
    <title>icon-ergeon</title>
    <desc>Created with Sketch.</desc>
    <g id="help-center" stroke="none" stroke-width="1" fill="none" fill-rule="evenodd">
        <g id="help_center_root" transform="translate(-874.000000, -331.000000)">
            <g id="Group-2-Copy" transform="translate(851.000000, 302.000000)">
                <g id="icon-ergeon" transform="translate(20.000000, 20.000000)">
                    <rect id="Rectangle" x="0" y="0" width="36" height="36"></rect>
                    <path d="M29.7782998,24.5471276 C29.2088971,24.5471276 28.7477337,24.0835146 28.7477337,23.5134579 C28.7477337,22.9419868 29.2088971,22.4783737 29.7782998,22.4783737 C30.3469974,22.4783737 30.8078082,22.9419868 30.8078082,23.5134579 C30.8078082,24.0835146 30.3469974,24.5471276 29.7782998,24.5471276 M5.90251991,24.5280314 C5.33241202,24.5280314 4.87089611,24.0644184 4.87089611,23.4933008 C4.87089611,22.9228906 5.33241202,22.4592775 5.90251991,22.4592775 C6.47192266,22.4592775 6.93414371,22.9228906 6.93414371,23.4933008 C6.93414371,24.0644184 6.47192266,24.5280314 5.90251991,24.5280314 M31.7040446,21.3354314 L17.8419964,9 L3.97818543,21.314567 C2.77803252,22.3804173 2.66697254,24.2207242 3.72962262,25.4241378 C4.7922727,26.627905 6.62634891,26.7392995 7.82685439,25.6738028 L17.8384707,16.7806365 L27.8514973,25.6911308 C28.4043292,26.1826809 29.0918434,26.4249196 29.7768895,26.4249196 C30.5779317,26.424566 31.3758007,26.093919 31.9490817,25.4457094 C33.0127895,24.2426495 32.9031398,22.4026962 31.7040446,21.3354314" id="Fill-1" fill="#A3A9A0"></path>
                </g>
            </g>
        </g>
    </g>
</svg>