<?xml version="1.0" encoding="UTF-8"?>
<svg width="24px" height="24px" viewBox="0 0 24 24" version="1.1" xmlns="http://www.w3.org/2000/svg" xmlns:xlink="http://www.w3.org/1999/xlink">
    <!-- Generator: Sketch 57.1 (83088) - https://sketch.com -->
    <title>icon-calendar</title>
    <desc>Created with Sketch.</desc>
    <g id="customer-app" stroke="none" stroke-width="1" fill="none" fill-rule="evenodd">
        <g id="quote-page" transform="translate(-250.000000, -2367.000000)">
            <g id="Group-6" transform="translate(210.000000, 2273.000000)">
                <g id="item" transform="translate(40.000000, 94.000000)">
                    <g id="icon-calendar">
                        <polygon id="Rectangle-2" points="0 0 24 0 24 24 0 24"></polygon>
                        <rect id="Rectangle" fill="#e6f1fb" fill-rule="nonzero" x="0" y="0" width="24" height="24" rx="12"></rect>
                        <g id="Group" transform="translate(0.000000, 6.000000)" fill="#0970ce">
                            <polygon id="Fill-1" points="12 12 9 12 9 14.25 12 14.25"></polygon>
                            <polygon id="Fill-2" points="8.25 12 5.25 12 5.25 14.25 8.25 14.25"></polygon>
                            <polygon id="Fill-3" points="12 9 9 9 9 11.25 12 11.25"></polygon>
                            <polygon id="Fill-4" points="8.25 9 5.25 9 5.25 11.25 8.25 11.25"></polygon>
                            <path d="M1.875,12 C1.668,12 1.5,11.832 1.5,11.625 C1.5,11.418 1.668,11.25 1.875,11.25 L4.5,11.25 L4.5,9 L1.875,9 C1.668,9 1.5,8.832 1.5,8.625 C1.5,8.418 1.668,8.25 1.875,8.25 L4.5,8.25 L4.5,7.125 C4.5,6.918 4.668,6.75 4.875,6.75 C5.082,6.75 5.25,6.918 5.25,7.125 L5.25,8.25 L8.25,8.25 L8.25,7.125 C8.25,6.918 8.418,6.75 8.625,6.75 C8.832,6.75 9,6.918 9,7.125 L9,8.25 L12,8.25 L12,7.125 C12,6.918 12.168,6.75 12.375,6.75 C12.582,6.75 12.75,6.918 12.75,7.125 L12.75,8.25 L16.125,8.25 C16.332,8.25 16.5,8.418 16.5,8.625 C16.5,8.832 16.332,9 16.125,9 L12.75,9 L12.75,11.25 L16.125,11.25 C16.332,11.25 16.5,11.418 16.5,11.625 C16.5,11.832 16.332,12 16.125,12 L12.75,12 L12.75,14.25 L16.125,14.25 C16.332,14.25 16.5,14.418 16.5,14.625 C16.5,14.832 16.332,15 16.125,15 L12.75,15 L12.75,16.125 C12.75,16.332 12.582,16.5 12.375,16.5 C12.168,16.5 12,16.332 12,16.125 L12,15 L9,15 L9,16.125 C9,16.332 8.832,16.5 8.625,16.5 C8.418,16.5 8.25,16.332 8.25,16.125 L8.25,15 L5.25,15 L5.25,16.125 C5.25,16.332 5.082,16.5 4.875,16.5 C4.668,16.5 4.5,16.332 4.5,16.125 L4.5,15 L1.875,15 C1.668,15 1.5,14.832 1.5,14.625 C1.5,14.418 1.668,14.25 1.875,14.25 L4.5,14.25 L4.5,12 L1.875,12 Z M0,17.625 C0,17.832 0.168,18 0.375,18 L17.625,18 C17.832,18 18,17.832 18,17.625 L18,6 L0,6 L0,17.625 Z" id="Fill-5"></path>
                            <path d="M14.25,3 L12.75,3 L12.75,0.75 L14.25,0.75 L14.25,3 Z M5.25,3 L3.75,3 L3.75,0.75 L5.25,0.75 L5.25,3 Z M17.625,1.5 L15,1.5 L15,0.375 C15,0.168 14.832,0 14.625,0 L12.375,0 C12.168,0 12,0.168 12,0.375 L12,1.5 L6,1.5 L6,0.375 C6,0.168 5.832,0 5.625,0 L3.375,0 C3.168,0 3,0.168 3,0.375 L3,1.5 L0.375,1.5 C0.168,1.5 0,1.668 0,1.875 L0,5.25 L18,5.25 L18,1.875 C18,1.668 17.832,1.5 17.625,1.5 L17.625,1.5 Z" id="Fill-7"></path>
                        </g>
                    </g>
                </g>
            </g>
        </g>
    </g>
</svg>
