<?xml version="1.0" encoding="UTF-8"?>
<svg width="24px" height="24px" viewBox="0 0 24 24" version="1.1" xmlns="http://www.w3.org/2000/svg" xmlns:xlink="http://www.w3.org/1999/xlink">
    <!-- Generator: Sketch 57.1 (83088) - https://sketch.com -->
    <title>icon-initial-walkthrough</title>
    <desc>Created with Sketch.</desc>
    <g id="customer-app" stroke="none" stroke-width="1" fill="none" fill-rule="evenodd">
        <g id="quote-page" transform="translate(-250.000000, -2499.000000)">
            <g id="Group-6" transform="translate(210.000000, 2273.000000)">
                <g id="item-copy" transform="translate(40.000000, 226.000000)">
                    <g id="icon-initial-walkthrough">
                        <polygon id="Rectangle-2" points="0 0 24 0 24 24 0 24"></polygon>
                        <rect id="Rectangle" fill="#E4F6F0" fill-rule="nonzero" x="0" y="0" width="24" height="24" rx="12"></rect>
                        <g id="Fill-697-+-Fill-698" fill="#09A873">
                            <path d="M14.9072,13.0674 C14.5792,12.9554 14.2382,12.8424 13.8842,12.7254 C13.2602,12.5194 12.6192,12.3074 12.0002,12.0824 L12.0002,10.2174 C12.4862,9.8924 13.3822,9.0584 13.4892,7.2864 C13.8562,7.0514 14.0862,6.5424 14.0862,5.8934 C14.0862,5.3234 13.9092,4.8624 13.6182,4.5984 C13.8622,3.9834 14.2592,2.9104 13.9852,1.8084 C13.6532,0.4734 11.7652,0.0004 10.2492,0.0004 L10.2492,0.0004 C8.9072,0.0004 7.2732,0.3724 6.6862,1.3834 C6.1712,1.3564 5.7702,1.4934 5.4892,1.7994 C4.8202,2.5264 5.1912,3.8774 5.4112,4.6394 C5.2952,4.7354 5.1952,4.8594 5.1162,5.0094 C4.9852,5.2614 4.9122,5.5874 4.9122,5.9284 C4.9122,6.5634 5.1432,7.0604 5.5112,7.2904 C5.6192,9.0604 6.5142,9.8924 7.0002,10.2174 L7.0002,12.0824 C6.3812,12.3074 5.7402,12.5194 5.1162,12.7254 C2.7652,13.5014 0.9092,14.1144 0.5252,15.2714 C0.0322,16.7574 0.0012,19.3844 0.0002,19.4954 C-0.0008,19.6284 0.0512,19.7574 0.1452,19.8524 C0.2392,19.9464 0.3662,20.0004 0.5002,20.0004 L12.1472,20.0004 C12.0332,19.5174 11.9662,19.0174 11.9662,18.5004 C11.9662,16.2294 13.1382,14.2304 14.9072,13.0674" id="Fill-697"></path>
                            <path d="M19.875,19.4166667 L17.5833333,19.4166667 L17.5833333,15.75 C17.5833333,15.497 17.7886667,15.2916667 18.0416667,15.2916667 C18.2946667,15.2916667 18.5,15.497 18.5,15.75 L18.5,18.5 L19.875,18.5 C20.128,18.5 20.3333333,18.7053333 20.3333333,18.9583333 C20.3333333,19.2113333 20.128,19.4166667 19.875,19.4166667 M18.5,13 C15.4676667,13 13,15.4676667 13,18.5 C13,21.53325 15.4676667,24 18.5,24 C21.5323333,24 24,21.53325 24,18.5 C24,15.4676667 21.5323333,13 18.5,13" id="Fill-459"></path>
                        </g>
                    </g>
                </g>
            </g>
        </g>
    </g>
</svg>