<?xml version="1.0" encoding="UTF-8"?>
<svg width="80px" height="80px" viewBox="0 0 80 80" version="1.1" xmlns="http://www.w3.org/2000/svg" xmlns:xlink="http://www.w3.org/1999/xlink">
    <title>pricing-payment</title>
    <g id="root-icons_help" stroke="none" stroke-width="1" fill="none" fill-rule="evenodd">
        <g id="pricing-payment">
            <path d="M40.5,13 C44.4925,13 47.9125,15.355 49.515,18.7375 C53.04,17.48 57.1225,18.23 59.9475,21.0525 C62.77,23.8775 63.52,27.96 62.2625,31.485 C65.645,33.0875 68,36.5075 68,40.5 C68,44.49 65.645,47.91 62.2625,49.515 C63.52,53.04 62.77,57.125 59.9475,59.945 C57.1225,62.7675 53.04,63.52 49.515,62.2625 C47.91,65.6425 44.4925,68 40.5,68 C36.51,68 33.0925,65.6425 31.4875,62.2625 C27.9625,63.52 23.88,62.7675 21.055,59.945 C18.2325,57.125 17.4825,53.04 18.74,49.515 C15.3575,47.91 13,44.49 13,40.5 C13,36.5075 15.3575,33.0875 18.74,31.485 C17.4825,27.96 18.2325,23.8775 21.055,21.0525 C23.88,18.23 27.9625,17.48 31.4875,18.7375 C33.09,15.355 36.51,13 40.5,13 Z M43.3061224,27.5918367 L38.8163265,27.5918367 L38.8163265,29.8367347 C35.1032653,29.8367347 32.0816327,32.8583673 32.0816327,36.5714286 C32.0816327,40.2844898 35.1032653,43.3061224 38.8163265,43.3061224 L43.3061224,43.3061224 C44.5453061,43.3061224 45.5510204,44.3118367 45.5510204,45.5510204 C45.5510204,46.7902041 44.5453061,47.7959184 43.3061224,47.7959184 L34.3265306,47.7959184 L34.3265306,52.2857143 L38.8163265,52.2857143 L38.8163265,54.5306122 L43.3061224,54.5306122 L43.3061224,52.2857143 C47.0191837,52.2857143 50.0408163,49.2640816 50.0408163,45.5510204 C50.0408163,41.8379592 47.0191837,38.8163265 43.3061224,38.8163265 L38.8163265,38.8163265 C37.5771429,38.8163265 36.5714286,37.8106122 36.5714286,36.5714286 C36.5714286,35.3322449 37.5771429,34.3265306 38.8163265,34.3265306 L47.7959184,34.3265306 L47.7959184,29.8367347 L43.3061224,29.8367347 L43.3061224,27.5918367 Z" id="Combined-Shape" fill="#A0A0A9"></path>
            <rect id="Rectangle" x="0" y="0" width="80" height="80"></rect>
        </g>
    </g>
</svg>