<?xml version="1.0" encoding="UTF-8"?>
<svg width="14px" height="12px" viewBox="0 0 14 12" version="1.1" xmlns="http://www.w3.org/2000/svg" xmlns:xlink="http://www.w3.org/1999/xlink">
    <!-- Generator: Sketch 55.1 (78136) - https://sketchapp.com -->
    <title>home</title>
    <desc>Created with Sketch.</desc>
    <g id="projects-gallery" stroke="none" stroke-width="1" fill="none" fill-rule="evenodd">
        <g id="detailed_page" transform="translate(-135.000000, -78.000000)">
            <g id="breadcrumbs" transform="translate(130.000000, 72.000000)">
                <g id="home">
                    <rect id="Rectangle-1-Copy-142" x="0" y="0" width="24" height="24"></rect>
                    <g id="Fill-1070" transform="translate(5.000000, 6.000000)" fill="#525650">
                        <path d="M10.6666447,9.33337037 L7.33335765,9.33337037 L7.33335765,7.33339815 L10.6666447,7.33339815 L10.6666447,9.33337037 Z M13.1379437,6.19541395 L11.9999595,5.05742976 L11.9999595,2.00013889 L9.99998728,2.00013889 L9.99998728,3.05745754 L7.13802703,0.195497285 C6.87736399,-0.0651657616 6.4560365,-0.0651657616 6.19537346,0.195497285 L0.19545679,6.19541395 C0.00479277182,6.38607797 -0.0525397652,6.67274066 0.0507921329,6.92207053 C0.154124031,7.1714004 0.397453985,7.33339815 0.666783578,7.33339815 L1.33344099,7.33339815 L1.33344099,12 L3.33341321,12 L3.33341321,8.66671296 L5.33338543,8.66671296 L5.33338543,12 L11.9999595,12 L11.9999595,7.33339815 L12.6666169,7.33339815 C12.9359465,7.33339815 13.1792765,7.1714004 13.2826084,6.92207053 C13.3859403,6.67274066 13.3286077,6.38607797 13.1379437,6.19541395 L13.1379437,6.19541395 Z"></path>
                    </g>
                </g>
            </g>
        </g>
    </g>
</svg>