<?xml version="1.0" encoding="UTF-8"?>
<svg width="80px" height="80px" viewBox="0 0 80 80" version="1.1" xmlns="http://www.w3.org/2000/svg" xmlns:xlink="http://www.w3.org/1999/xlink">
    <title>about-ergeon</title>
    <g id="root-icons_help" stroke="none" stroke-width="1" fill="none" fill-rule="evenodd">
        <g id="about-ergeon">
            <path d="M39.9878501,25 L63.3749218,45.6642526 C65.3684145,47.4632581 65.5629015,50.5750515 63.763896,52.5685441 C62.7914606,53.6868448 61.4786728,54.2216843 60.1172632,54.2216843 C58.9503407,54.2216843 57.7834182,53.8327101 56.8596046,53.00614 L56.8596046,53.00614 L39.9878501,38.0792564 L23.1160956,52.9575182 C21.0739812,54.707902 18.0108097,54.5134149 16.2118041,52.5199223 C14.4614204,50.4778079 14.6072857,47.4146364 16.6494001,45.6156308 L16.6494001,45.6156308 L39.9878501,25 Z M19.7611934,47.6091234 C18.7401362,47.6091234 17.9135661,48.4356935 17.9135661,49.408129 C17.9135661,50.4291861 18.7401362,51.2557563 19.7611934,51.2557563 C20.7822506,51.2557563 21.6088207,50.4291861 21.6088207,49.408129 C21.6088207,48.4356935 20.7822506,47.6091234 19.7611934,47.6091234 Z M60.1172632,47.6091234 C59.096206,47.6091234 58.2696359,48.4356935 58.2696359,49.408129 C58.2696359,50.4291861 59.096206,51.2557563 60.1172632,51.2557563 C61.1383204,51.2557563 61.9648905,50.4291861 61.9648905,49.408129 C61.9648905,48.4356935 61.1383204,47.6091234 60.1172632,47.6091234 Z" id="path-1-path-2" fill="#A2A2AB"></path>
            <rect id="Rectangle" x="0" y="0" width="80" height="80"></rect>
        </g>
    </g>
</svg>