<?xml version="1.0" encoding="UTF-8"?>
<svg width="14px" height="14px" viewBox="0 0 14 14" version="1.1" xmlns="http://www.w3.org/2000/svg" xmlns:xlink="http://www.w3.org/1999/xlink">
    <!-- Generator: Sketch 57.1 (83088) - https://sketch.com -->
    <title>icon-plus</title>
    <desc>Created with Sketch.</desc>
    <g id="lead-form" stroke="none" stroke-width="1" fill="none" fill-rule="evenodd">
        <g id="lead_form-copy" transform="translate(-541.000000, -540.000000)">
            <g id="add-a-note" transform="translate(540.000000, 537.000000)">
                <g id="icon-plus" transform="translate(0.000000, 2.000000)">
                    <g id="Group-4">
                        <rect id="Rectangle-1-Copy-1490" x="0" y="0" width="16" height="16"></rect>
                        <g id="Fill-1015" transform="translate(1.333333, 1.333333)" fill="#0970ce">
                            <path d="M10,7.33333333 L7.33333333,7.33333333 L7.33333333,10 L6,10 L6,7.33333333 L3.33333333,7.33333333 L3.33333333,6 L6,6 L6,3.33333333 L7.33333333,3.33333333 L7.33333333,6 L10,6 L10,7.33333333 Z M6.66666667,0 C2.99066667,0 0,2.99066667 0,6.66666667 C0,10.3426667 2.99066667,13.3333333 6.66666667,13.3333333 C10.3426667,13.3333333 13.3333333,10.3426667 13.3333333,6.66666667 C13.3333333,2.99066667 10.3426667,0 6.66666667,0 L6.66666667,0 Z"></path>
                        </g>
                    </g>
                </g>
            </g>
        </g>
    </g>
</svg>
