<?xml version="1.0" encoding="UTF-8"?>
<svg width="36px" height="36px" viewBox="0 0 36 36" version="1.1" xmlns="http://www.w3.org/2000/svg" xmlns:xlink="http://www.w3.org/1999/xlink">
    <!-- Generator: Sketch 57.1 (83088) - https://sketch.com -->
    <title>icon-pricing</title>
    <desc>Created with Sketch.</desc>
    <g id="help-center" stroke="none" stroke-width="1" fill="none" fill-rule="evenodd">
        <g id="help_center_root" transform="translate(-871.000000, -542.000000)">
            <g id="Group-6" transform="translate(851.000000, 522.000000)">
                <g id="icon-pricing" transform="translate(20.000000, 20.000000)">
                    <rect id="Rectangle" x="0" y="0" width="36" height="36"></rect>
                    <g id="Fill-2159-+-Fill-2160-+-Fill-2162" fill="#A3A9A0">
                        <g id="Fill-2159-+-Fill-2160-+-Fill-2161">
                            <path d="M22.5,21.75 C22.5,23.9745 20.874,25.8225 18.75,26.181 L18.75,27.75 C18.75,28.1625 18.414,28.5 18,28.5 C17.586,28.5 17.25,28.1625 17.25,27.75 L17.25,26.181 C15.1245,25.8225 13.5,23.9745 13.5,21.75 C13.5,21.336 13.836,21 14.25,21 C14.664,21 15,21.336 15,21.75 C15,23.1435 15.96,24.3075 17.25,24.6435 L17.25,18.681 C15.1245,18.3225 13.5,16.4745 13.5,14.25 C13.5,12.024 15.1245,10.176 17.25,9.8175 L17.25,8.25 C17.25,7.836 17.586,7.5 18,7.5 C18.414,7.5 18.75,7.836 18.75,8.25 L18.75,9.8175 C20.874,10.176 22.5,12.024 22.5,14.25 C22.5,14.6625 22.164,15 21.75,15 C21.336,15 21,14.6625 21,14.25 C21,12.855 20.0385,11.691 18.75,11.3565 L18.75,17.3175 C20.874,17.676 22.5,19.524 22.5,21.75 M36,18 C36,16.65 35.2785,15.4425 34.1715,14.7825 C34.941,13.749 35.1465,12.3585 34.629,11.112 C34.1175,9.876 33.006,9.027 31.71,8.8395 C32.025,7.59 31.6815,6.2265 30.7275,5.2725 C29.799,4.344 28.41,3.9735 27.159,4.2885 C26.973,3.015 26.1345,1.887 24.888,1.371 C23.664,0.864 22.2345,1.065 21.216,1.827 C20.5545,0.72 19.3485,0 18,0 C16.6515,0 15.444,0.72 14.784,1.827 C13.7655,1.0665 12.3345,0.8625 11.1105,1.371 C9.864,1.8855 9.0255,3.0135 8.8395,4.2885 C7.587,3.9735 6.201,4.344 5.271,5.2725 C4.317,6.2265 3.9735,7.59 4.2885,8.8395 C2.994,9.027 1.8825,9.876 1.3695,11.112 C0.8535,12.3585 1.059,13.749 1.8285,14.7825 C0.7215,15.4425 0,16.65 0,18 C0,19.3485 0.7215,20.556 1.8285,21.216 C1.0575,22.2495 0.8535,23.6415 1.3695,24.888 C1.881,26.1225 2.994,26.973 4.2885,27.1605 C3.9735,28.4085 4.317,29.7735 5.271,30.7275 C6.201,31.656 7.5885,32.025 8.8395,31.71 C9.027,32.9835 9.864,34.113 11.1105,34.629 C12.333,35.1375 13.7655,34.9335 14.784,34.173 C15.444,35.28 16.6515,36 18,36 C19.3485,36 20.5545,35.28 21.216,34.173 C22.233,34.9335 23.661,35.136 24.888,34.629 C26.1345,34.113 26.973,32.985 27.159,31.71 C28.41,32.0265 29.799,31.656 30.7275,30.7275 C31.6815,29.7735 32.025,28.4085 31.71,27.1605 C33.0045,26.973 34.1175,26.1225 34.6305,24.888 C35.1465,23.6415 34.9425,22.2495 34.1715,21.2175 C35.2785,20.5575 36,19.35 36,18" id="Fill-2161"></path>
                            <path d="M18.75,18.85605 C20.0385,19.19205 21,20.35605 21,21.74955 C21,23.14305 20.0385,24.30705 18.75,24.64305 L18.75,24.64305 Z M17.25,11.3565 L17.25,17.1435 C15.96,16.8075 15,15.6435 15,14.25 C15,12.855 15.96,11.691 17.25,11.3565 L17.25,11.3565 Z" id="Combined-Shape"></path>
                        </g>
                    </g>
                </g>
            </g>
        </g>
    </g>
</svg>