<?xml version="1.0" encoding="UTF-8"?>
<svg width="27px" height="36px" viewBox="0 0 27 36" version="1.1" xmlns="http://www.w3.org/2000/svg" xmlns:xlink="http://www.w3.org/1999/xlink">
    <!-- Generator: Sketch 57.1 (83088) - https://sketch.com -->
    <title>icon-service</title>
    <desc>Created with Sketch.</desc>
    <g id="help-center" stroke="none" stroke-width="1" fill="none" fill-rule="evenodd">
        <g id="help_center_root" transform="translate(-635.000000, -542.000000)">
            <g id="Group-7" transform="translate(611.000000, 522.000000)">
                <g id="icon-service" transform="translate(20.000000, 20.000000)">
                    <rect id="Rectangle" x="0" y="0" width="36" height="36"></rect>
                    <g id="Fill-1786" transform="translate(4.000000, 0.000000)" fill="#A3A9A0">
                        <path d="M17.25,9.75 L17.25,0.75 L26.25,9.75 L17.25,9.75 Z M20.25,16.5 L6.75,16.5 C6.336,16.5 6,16.164 6,15.75 C6,15.336 6.336,15 6.75,15 L20.25,15 C20.664,15 21,15.336 21,15.75 C21,16.164 20.664,16.5 20.25,16.5 L20.25,16.5 Z M20.25,21 L6.75,21 C6.336,21 6,20.664 6,20.25 C6,19.836 6.336,19.5 6.75,19.5 L20.25,19.5 C20.664,19.5 21,19.836 21,20.25 C21,20.664 20.664,21 20.25,21 L20.25,21 Z M20.25,25.5 L6.75,25.5 C6.336,25.5 6,25.164 6,24.75 C6,24.336 6.336,24 6.75,24 L20.25,24 C20.664,24 21,24.336 21,24.75 C21,25.164 20.664,25.5 20.25,25.5 L20.25,25.5 Z M20.25,30 L6.75,30 C6.336,30 6,29.664 6,29.25 C6,28.836 6.336,28.5 6.75,28.5 L20.25,28.5 C20.664,28.5 21,28.836 21,29.25 C21,29.664 20.664,30 20.25,30 L20.25,30 Z M6.75,10.5 L13.5,10.5 C13.914,10.5 14.25,10.836 14.25,11.25 C14.25,11.664 13.914,12 13.5,12 L6.75,12 C6.336,12 6,11.664 6,11.25 C6,10.836 6.336,10.5 6.75,10.5 L6.75,10.5 Z M26.7795,9.219 L17.7795,0.219 C17.64,0.0795 17.448,0 17.25,0 L0.75,0 C0.336,0 0,0.336 0,0.75 L0,35.25 C0,35.664 0.336,36 0.75,36 L26.25,36 C26.664,36 27,35.664 27,35.25 L27,9.75 C27,9.5505 26.9205,9.36 26.7795,9.219 L26.7795,9.219 Z"></path>
                    </g>
                </g>
            </g>
        </g>
    </g>
</svg>