<?xml version="1.0" encoding="UTF-8"?>
<svg width="80px" height="80px" viewBox="0 0 80 80" version="1.1" xmlns="http://www.w3.org/2000/svg" xmlns:xlink="http://www.w3.org/1999/xlink">
    <title>covid-19</title>
    <g id="root-icons_help" stroke="none" stroke-width="1" fill="none" fill-rule="evenodd">
        <g id="covid-19">
            <rect id="Rectangle" x="0" y="0" width="80" height="80"></rect>
            <g id="Group-9" transform="translate(12.000000, 11.000000)" fill="#A0A0A9">
                <path d="M50.0849292,44.2156536 L45.5054122,44.2156536 L45.5054122,48.7951707 L40.9258951,48.7951707 L40.9258951,44.2156536 L36.346378,44.2156536 L36.346378,39.6361366 L40.9258951,39.6361366 L40.9258951,35.0566195 L45.5054122,35.0566195 L45.5054122,39.6361366 L50.0849292,39.6361366 L50.0849292,44.2156536 Z M29.4771024,28.1873439 L29.4771024,44.2156536 C29.4771024,52.9465029 38.1713156,56.9902165 42.7668609,57.9084097 L43.2156536,58 L43.6644463,57.9084097 C48.2599917,56.9902165 56.9542048,52.9465029 56.9542048,44.2156536 L56.9542048,28.1873439 L29.4771024,28.1873439 Z" id="Fill-1773"></path>
                <path d="M34.9657975,4.08085992e-14 C38.1042347,4.08085992e-14 40.1305967,1.86219905 40.1305967,5.01632459 L40.1305967,5.01632459 L40.1305967,22.5734606 L30.0979475,22.5734606 C27.3289364,22.5734606 25.0816229,24.8207741 25.0816229,27.5897852 L25.0816229,27.5897852 L25.0816229,50.1632459 L5.01632459,50.1632459 C2.24982158,50.1632459 0,47.9134243 0,45.1469213 L0,45.1469213 L0,5.01632459 C0,2.24982158 2.24982158,0 5.01632459,0 L5.01632459,0 Z M16.8548506,24.078358 L4.8156716,24.078358 L4.8156716,28.8940296 L16.8548506,28.8940296 L16.8548506,24.078358 Z M16.8548506,14.4470148 L4.8156716,14.4470148 L4.8156716,19.2626864 L16.8548506,19.2626864 L16.8548506,14.4470148 Z M34.9136191,4.8156716 L4.8156716,4.8156716 L4.8156716,9.63134321 L34.9136191,9.63134321 L34.9136191,4.8156716 Z" id="Combined-Shape"></path>
            </g>
        </g>
    </g>
</svg>