<svg width="40" height="20" viewBox="0 0 40 20" xmlns="http://www.w3.org/2000/svg">
<g id="My-Account" fill="none" fill-rule="evenodd">
<g id="My_account_payments_edit" transform="translate(-813 -296)">
<g id="tile" transform="translate(490 78)">
<g id="ssl_secure" transform="translate(320 216)">
<rect id="Rectangle-380" width="44" height="24" rx="2"/>
<path d="M25.601 11.216c0 .58-.209 1.037-.626 1.37-.418.335-.998.502-1.743.502-.685 0-1.292-.129-1.819-.387v-1.265c.434.193.8.33 1.1.408.301.08.576.119.825.119.299 0 .528-.057.688-.171.16-.115.24-.285.24-.51a.563.563 0 0 0-.106-.336 1.18 1.18 0 0 0-.31-.284c-.136-.09-.414-.236-.833-.435-.392-.185-.687-.362-.883-.532a1.996 1.996 0 0 1-.47-.593 1.693 1.693 0 0 1-.176-.791c0-.568.192-1.015.578-1.34.385-.325.917-.488 1.597-.488.334 0 .653.04.956.119.303.079.62.19.951.334l-.44 1.059a6.43 6.43 0 0 0-.85-.295 2.737 2.737 0 0 0-.66-.083c-.259 0-.456.06-.594.18a.594.594 0 0 0-.207.47c0 .12.028.225.084.314.055.09.144.176.266.26.121.083.41.233.863.45.6.287 1.012.575 1.235.864.223.288.334.642.334 1.06zm4.957 0c0 .58-.209 1.037-.626 1.37-.418.335-.998.502-1.743.502-.685 0-1.292-.129-1.819-.387v-1.265c.434.193.8.33 1.1.408.301.08.576.119.825.119.299 0 .528-.057.688-.171.16-.115.24-.285.24-.51a.563.563 0 0 0-.106-.336 1.18 1.18 0 0 0-.31-.284c-.136-.09-.414-.236-.833-.435-.392-.185-.687-.362-.883-.532a1.996 1.996 0 0 1-.47-.593 1.693 1.693 0 0 1-.176-.791c0-.568.192-1.015.578-1.34.385-.325.917-.488 1.597-.488.334 0 .653.04.956.119.303.079.62.19.951.334l-.44 1.059a6.43 6.43 0 0 0-.85-.295 2.737 2.737 0 0 0-.66-.083c-.259 0-.456.06-.594.18a.594.594 0 0 0-.207.47c0 .12.028.225.084.314.056.09.144.176.266.26.121.083.41.233.863.45.6.287 1.012.575 1.235.864.223.288.334.642.334 1.06zM31.723 13V6.575h1.362v5.3h2.606V13h-3.968zm-7.688 6.837c0 .38-.138.68-.413.896-.275.217-.655.326-1.14.326-.484 0-.88-.076-1.189-.226v-.662c.195.092.403.164.623.217.22.052.424.079.613.079.278 0 .482-.053.614-.158a.516.516 0 0 0 .198-.425c0-.16-.06-.296-.182-.407-.12-.112-.37-.244-.75-.396-.39-.158-.666-.339-.826-.542a1.147 1.147 0 0 1-.24-.732c0-.358.127-.639.38-.844.255-.205.595-.308 1.023-.308.41 0 .818.09 1.225.27l-.223.571c-.38-.16-.72-.24-1.02-.24-.226 0-.398.05-.515.148a.486.486 0 0 0-.176.39.55.55 0 0 0 .07.287.724.724 0 0 0 .232.224c.107.07.3.163.58.278.314.13.545.253.691.366.147.114.254.241.323.384.068.143.102.31.102.504zM27.287 21h-2.423v-4.283h2.423v.592h-1.723v1.166h1.615v.586h-1.615v1.344h1.723V21zm2.748-3.744c-.402 0-.719.142-.95.428-.23.285-.345.678-.345 1.18 0 .526.111.923.333 1.193.221.27.542.404.962.404.182 0 .358-.018.527-.054a6.12 6.12 0 0 0 .53-.14v.601c-.335.127-.716.19-1.142.19-.627 0-1.108-.19-1.444-.57-.336-.38-.504-.923-.504-1.63 0-.445.081-.835.245-1.169.163-.334.399-.59.707-.767.309-.178.671-.267 1.087-.267.438 0 .842.092 1.213.276l-.252.583a3.762 3.762 0 0 0-.459-.18 1.652 1.652 0 0 0-.508-.078zm5.338-.54v2.772c0 .317-.068.594-.204.83a1.36 1.36 0 0 1-.588.549c-.257.128-.564.192-.922.192-.531 0-.944-.141-1.24-.422-.294-.282-.441-.668-.441-1.16v-2.76h.703v2.71c0 .353.082.614.246.782.164.168.416.252.756.252.66 0 .99-.347.99-1.04v-2.704h.7zm1.796 1.993h.486c.326 0 .563-.06.71-.182.146-.12.219-.3.219-.539 0-.242-.08-.416-.237-.521-.159-.106-.397-.158-.715-.158h-.463v1.4zm0 .58V21h-.7v-4.283h1.21c.552 0 .962.103 1.227.31.266.207.399.52.399.938 0 .533-.278.913-.832 1.14L39.683 21h-.797l-1.026-1.71h-.691zM42.727 21h-2.423v-4.283h2.423v.592h-1.723v1.166h1.614v.586h-1.614v1.344h1.723V21z" id="SSL" fill="#FFB800"/><path d="M11 9H5V5c0-1.654 1.346-3 3-3 1.653 0 3 1.346 3 3v4zm-3 7a1.5 1.5 0 1 1 0-3.001A1.5 1.5 0 0 1 8 16zm5-7V5c0-2.757-2.243-5-5-5-2.758 0-5 2.243-5 5v4c-1.103 0-2 .896-2 2v7c0 1.103.897 2 2 2h10c1.102 0 2-.897 2-2v-7c0-1.104-.898-2-2-2z" transform="translate(2 2)" id="Fill-561" fill="#e6f1fb"/></g></g></g></g></svg>
