<?xml version="1.0" encoding="UTF-8"?>
<svg width="80px" height="80px" viewBox="0 0 80 80" version="1.1" xmlns="http://www.w3.org/2000/svg" xmlns:xlink="http://www.w3.org/1999/xlink">
    <title>fences</title>
    <g id="root-icons_help" stroke="none" stroke-width="1" fill="none" fill-rule="evenodd">
        <g id="fences">
            <path d="M45.952381,46.0786615 L53.0952381,46.0786615 L53.0952381,51.8419362 L45.952381,51.8419362 L45.952381,46.0786615 Z M26.9047619,46.0786615 L34.047619,46.0786615 L34.047619,51.8419362 L26.9047619,51.8419362 L26.9047619,46.0786615 Z M34.047619,40.3153867 L26.9047619,40.3153867 L26.9047619,34.552112 L34.047619,34.552112 L34.047619,40.3153867 Z M53.0952381,40.3153867 L45.952381,40.3153867 L45.952381,34.552112 L53.0952381,34.552112 L53.0952381,40.3153867 Z M64.4595238,22.2302306 L60.9571429,17.0548099 C60.5095238,16.394915 59.8428571,16.0087755 59.1357143,16.0000645 C58.4285714,15.9943674 57.7547619,16.3660986 57.3,17.0202303 L53.6595238,22.2187041 C53.2952381,22.7402804 53.0952381,23.4001754 53.0952381,24.0831234 L53.0952381,28.7888373 L45.952381,28.7888373 L45.952381,24.0571887 C45.952381,23.3886488 45.7619048,22.7460437 45.4119048,22.2302306 L41.9095238,17.0548099 C41.4619048,16.394915 40.7952381,16.0087755 40.0880952,16.0000645 C39.3809524,15.9943674 38.7071429,16.3660986 38.252381,17.0202303 L34.6119048,22.2187041 C34.247619,22.7402804 34.047619,23.4001754 34.047619,24.0831234 L34.047619,28.7888373 L26.9047619,28.7888373 L26.9047619,24.0571887 C26.9047619,23.3886488 26.7142857,22.7460437 26.3642857,22.2302306 L22.8619048,17.0548099 C22.4142857,16.394915 21.747619,16.0087755 21.0404762,16.0000645 C20.3333333,15.9943674 19.6595238,16.3660986 19.2047619,17.0202303 L15.5642857,22.2187041 C15.2,22.7402804 15,23.4001754 15,24.0831234 L15,60.4868483 C15,62.0775121 16.0666667,63.3684857 17.3809524,63.3684857 L24.5238095,63.3684857 C25.8380952,63.3684857 26.9047619,62.0775121 26.9047619,60.4868483 L26.9047619,57.6052109 L34.047619,57.6052109 L34.047619,60.4868483 C34.047619,62.0775121 35.1142857,63.3684857 36.4285714,63.3684857 L43.5714286,63.3684857 C44.8857143,63.3684857 45.952381,62.0775121 45.952381,60.4868483 L45.952381,57.6052109 L53.0952381,57.6052109 L53.0952381,60.4868483 C53.0952381,62.0775121 54.1619048,63.3684857 55.4761905,63.3684857 L62.6190476,63.3684857 C63.9333333,63.3684857 65,62.0775121 65,60.4868483 L65,24.0571887 C65,23.3886488 64.8095238,22.7460437 64.4595238,22.2302306 L64.4595238,22.2302306 Z" id="Fill-1100" fill="#A0A0A9" fill-rule="nonzero"></path>
            <rect id="Rectangle-Copy-2" x="10" y="10" width="60" height="60"></rect>
            <rect id="Rectangle-Copy-5" x="0" y="0" width="80" height="80"></rect>
        </g>
    </g>
</svg>