<?xml version="1.0" encoding="UTF-8"?>
<svg width="36px" height="35px" viewBox="0 0 36 35" version="1.1" xmlns="http://www.w3.org/2000/svg" xmlns:xlink="http://www.w3.org/1999/xlink">
    <!-- Generator: Sketch 57.1 (83088) - https://sketch.com -->
    <title>icon-driveway-101</title>
    <desc>Created with Sketch.</desc>
    <g id="help-center" stroke="none" stroke-width="1" fill="none" fill-rule="evenodd">
        <g id="help_center_root" transform="translate(-150.000000, -543.000000)" fill="#A3A9A0">
            <g id="Group-5" transform="translate(130.000000, 522.000000)">
                <g id="icon-driveway-101" transform="translate(20.000000, 20.000000)">
                    <path d="M10,28 C10.5522847,28 11,28.4477153 11,29 L11,35 C11,35.5522847 10.5522847,36 10,36 L1,36 C0.44771525,36 6.76353751e-17,35.5522847 0,35 L0,29 C-6.76353751e-17,28.4477153 0.44771525,28 1,28 L10,28 Z M23,28 C23.5522847,28 24,28.4477153 24,29 L24,35 C24,35.5522847 23.5522847,36 23,36 L13,36 C12.4477153,36 12,35.5522847 12,35 L12,29 C12,28.4477153 12.4477153,28 13,28 L23,28 Z M35,28 C35.5522847,28 36,28.4477153 36,29 L36,35 C36,35.5522847 35.5522847,36 35,36 L26,36 C25.4477153,36 25,35.5522847 25,35 L25,29 C25,28.4477153 25.4477153,28 26,28 L35,28 Z M29,19 C29.5522847,19 30,19.4477153 30,20 L30,26 C30,26.5522847 29.5522847,27 29,27 L20,27 C19.4477153,27 19,26.5522847 19,26 L19,20 C19,19.4477153 19.4477153,19 20,19 L29,19 Z M17,19 C17.5522847,19 18,19.4477153 18,20 L18,26 C18,26.5522847 17.5522847,27 17,27 L8,27 C7.44771525,27 7,26.5522847 7,26 L7,20 C7,19.4477153 7.44771525,19 8,19 L17,19 Z M10,10 C10.5522847,10 11,10.4477153 11,11 L11,17 C11,17.5522847 10.5522847,18 10,18 L1,18 C0.44771525,18 6.76353751e-17,17.5522847 0,17 L0,11 C-6.76353751e-17,10.4477153 0.44771525,10 1,10 L10,10 Z M23,10 C23.5522847,10 24,10.4477153 24,11 L24,17 C24,17.5522847 23.5522847,18 23,18 L13,18 C12.4477153,18 12,17.5522847 12,17 L12,11 C12,10.4477153 12.4477153,10 13,10 L23,10 Z M35,10 C35.5522847,10 36,10.4477153 36,11 L36,17 C36,17.5522847 35.5522847,18 35,18 L26,18 C25.4477153,18 25,17.5522847 25,17 L25,11 C25,10.4477153 25.4477153,10 26,10 L35,10 Z M29,1 C29.5522847,1 30,1.44771525 30,2 L30,8 C30,8.55228475 29.5522847,9 29,9 L20,9 C19.4477153,9 19,8.55228475 19,8 L19,2 C19,1.44771525 19.4477153,1 20,1 L29,1 Z M17,1 C17.5522847,1 18,1.44771525 18,2 L18,8 C18,8.55228475 17.5522847,9 17,9 L8,9 C7.44771525,9 7,8.55228475 7,8 L7,2 C7,1.44771525 7.44771525,1 8,1 L17,1 Z" id="Combined-Shape"></path>
                </g>
            </g>
        </g>
    </g>
</svg>