<svg width="24px" height="24px" viewBox="0 0 24 24" version="1.1" xmlns="http://www.w3.org/2000/svg" xmlns:xlink="http://www.w3.org/1999/xlink">

    <title>secure.react</title>
    <desc>Created with Sketch.</desc>
    <g id="Page-1" stroke="none" stroke-width="1" fill="none" fill-rule="evenodd">
        <g id="secure.react">
            <polygon id="Rectangle-2" points="0 0 24 0 24 24 0 24"></polygon>
            <rect id="Rectangle" fill="#e6f1fb" fill-rule="nonzero" x="0" y="0" width="24" height="24" rx="12"></rect>
            <g id="Fill-2071-+-Fill-2072-+-Fill-2073" fill="#0970ce" fill-rule="nonzero">
                <path d="M13,5.5 C13,5.22385763 13.2238576,5 13.5,5 L15.5,5 C15.7761424,5 16,5.22385763 16,5.5 C16,5.77614237 15.7761424,6 15.5,6 L13.5,6 C13.2238576,6 13,5.77614237 13,5.5 M8.5,6 L3.5,6 C3.22385763,6 3,5.77614237 3,5.5 C3,5.22385763 3.22385763,5 3.5,5 L8.5,5 C8.77614237,5 9,5.22385763 9,5.5 C9,5.77614237 8.77614237,6 8.5,6 M6.5,8 L3.5,8 C3.22385763,8 3,7.77614237 3,7.5 C3,7.22385763 3.22385763,7 3.5,7 L6.5,7 C6.77614237,7 7,7.22385763 7,7.5 C7,7.77614237 6.77614237,8 6.5,8 M18,9.029 L18,4 L0,4 L0,10.5 C0,11.878 1.121,13 2.5,13 L14.029,13 C14.26583,10.9128212 15.9128212,9.26583 18,9.029" id="Fill-2071"></path>
                <path d="M18,2.5 C18,1.121 16.878,0 15.5,0 L2.5,0 C1.11974521,0.0011028809 0.0011028809,1.11974521 0,2.5 L0,3 L18,3 L18,2.5 Z" id="Fill-2072"></path>
                <path d="M21,15 L16,15 L16,13.5 C16,12.131 17.11,11 18.5,11 C19.882,11 21,12.124 21,13.5 L21,15 Z M18.975,19.875 C18.985,19.915 19,19.955 19,20 L19,21.5 C19,21.7761424 18.7761424,22 18.5,22 C18.2238576,22 18,21.7761424 18,21.5 L18,20 C18,19.955 18.014,19.915 18.025,19.875 C17.7030041,19.7014454 17.501609,19.3657868 17.5,19 C17.5,18.4477153 17.9477153,18 18.5,18 C19.0522847,18 19.5,18.4477153 19.5,19 C19.4986086,19.3658475 19.2971519,19.7016087 18.975,19.875 L18.975,19.875 Z M23.5,15 L22,15 L22,13.5 C22,11.578 20.438,10 18.5,10 C16.57,10 15,11.568 15,13.5 L15,15 L13.5,15 C13.2238576,15 13,15.2238576 13,15.5 L13,23.5 C13,23.7761424 13.2238576,24 13.5,24 L23.5,24 C23.775,24 24,23.775 24,23.5 L24,15.5 C24,15.2238576 23.7761424,15 23.5,15 Z" id="Fill-2073"></path>
            </g>
        </g>
    </g>
</svg>
