<?xml version="1.0" encoding="UTF-8"?>
<svg width="24px" height="24px" viewBox="0 0 24 24" version="1.1" xmlns="http://www.w3.org/2000/svg" xmlns:xlink="http://www.w3.org/1999/xlink">
    <!-- Generator: Sketch 57.1 (83088) - https://sketch.com -->
    <title>icon-billing</title>
    <desc>Created with Sketch.</desc>
    <g id="customer-app" stroke="none" stroke-width="1" fill="none" fill-rule="evenodd">
        <g id="quote-page" transform="translate(-250.000000, -2715.000000)">
            <g id="Group-6" transform="translate(210.000000, 2273.000000)">
                <g id="item-copy-3" transform="translate(40.000000, 442.000000)">
                    <g id="icon-billing">
                        <rect id="Rectangle" fill="#e6f1fb" fill-rule="nonzero" x="0" y="0" width="24" height="24" rx="12"></rect>
                        <g id="Fill-2052-+-Fill-2053" transform="translate(0.000000, 9.000000)" fill="#0970ce">
                            <path d="M17.9166667,0.832916667 L2.08333333,0.832916667 C0.934166667,0.832916667 0,1.76791667 0,2.91625 L0,4.16625 L20,4.16625 L20,2.91625 C20,1.76791667 19.065,0.832916667 17.9166667,0.832916667" id="Fill-2052"></path>
                            <path d="M2.91666667,8.33333333 L5.41666667,8.33333333 C5.64583333,8.33333333 5.83333333,8.52 5.83333333,8.75 C5.83333333,8.98 5.64583333,9.16666667 5.41666667,9.16666667 L2.91666667,9.16666667 C2.68666667,9.16666667 2.5,8.98 2.5,8.75 C2.5,8.52 2.68666667,8.33333333 2.91666667,8.33333333 L2.91666667,8.33333333 Z M2.91666667,6.66666667 L9.58333333,6.66666667 C9.8125,6.66666667 10,6.85333333 10,7.08333333 C10,7.31333333 9.8125,7.5 9.58333333,7.5 L2.91666667,7.5 C2.68666667,7.5 2.5,7.31333333 2.5,7.08333333 C2.5,6.85333333 2.68666667,6.66666667 2.91666667,6.66666667 L2.91666667,6.66666667 Z M14.5833333,6.66666667 L17.0833333,6.66666667 C17.3125,6.66666667 17.5,6.85333333 17.5,7.08333333 C17.5,7.31333333 17.3125,7.5 17.0833333,7.5 L14.5833333,7.5 C14.3533333,7.5 14.1666667,7.31333333 14.1666667,7.08333333 C14.1666667,6.85333333 14.3533333,6.66666667 14.5833333,6.66666667 L14.5833333,6.66666667 Z M0,11.25 C0,12.3983333 0.934166667,13.3333333 2.08333333,13.3333333 L17.9166667,13.3333333 C19.065,13.3333333 20,12.3983333 20,11.25 L20,5 L0,5 L0,11.25 Z" id="Fill-2053"></path>
                        </g>
                    </g>
                </g>
            </g>
        </g>
    </g>
</svg>
