<?xml version="1.0" encoding="UTF-8"?>
<svg width="24px" height="24px" viewBox="0 0 24 24" version="1.1" xmlns="http://www.w3.org/2000/svg" xmlns:xlink="http://www.w3.org/1999/xlink">
    <g id="ergeon" stroke="none" stroke-width="1" fill="none" fill-rule="evenodd">
        <g id="about" transform="translate(-486.000000, -1037.000000)">
            <g id="Group-2-Copy" transform="translate(370.000000, 981.000000)">
                <g id="linkedin" transform="translate(116.000000, 56.000000)">
                    <rect id="Rectangle" fill="#187FB8" x="0" y="0" width="24" height="24" rx="3"></rect>
                    <path d="M6.75646753,10.084987 L8.99750649,10.084987 L8.99750649,17.1858701 L6.75646753,17.1858701 L6.75646753,10.084987 Z M15.1206234,10.0167273 C16.7133506,10.0167273 17.9647792,11.0381299 17.9647792,13.2377143 L17.9647792,17.1858701 L15.4235844,17.1858701 L15.4235844,13.5113766 C15.4235844,12.5495065 15.0261818,11.8927792 14.1518961,11.8927792 C13.4833247,11.8927792 13.1114805,12.336 12.9384935,12.763013 C12.8736623,12.9163636 12.8836364,13.1298701 12.8836364,13.3433766 L12.8836364,17.1858701 L10.3661299,17.1858701 C10.3661299,17.1858701 10.3985455,10.6768831 10.3661299,10.084987 L12.8836364,10.084987 L12.8836364,11.1995844 C13.0323117,10.7121039 13.8367792,10.0167273 15.1206234,10.0167273 Z M7.83553247,6.73309091 C8.66244156,6.73309091 9.17080519,7.26327273 9.18701299,7.96394805 C9.18701299,8.65184416 8.66244156,9.19667532 7.81994805,9.19667532 L7.80374026,9.19667532 C6.99272727,9.19667532 6.4665974,8.65402597 6.4665974,7.96581818 C6.4665974,7.26451948 7.008,6.73309091 7.83553247,6.73309091 Z" id="Linkedin" fill="#FFFFFF"></path>
                </g>
            </g>
        </g>
    </g>
</svg>