<?xml version="1.0" encoding="UTF-8"?>
<svg width="181px" height="31px" viewBox="0 0 181 31" version="1.1" xmlns="http://www.w3.org/2000/svg" xmlns:xlink="http://www.w3.org/1999/xlink">
    <title>logo</title>
    <g id="kit" stroke="none" stroke-width="1" fill="none" fill-rule="evenodd">
        <g id="navigation" transform="translate(-132.000000, -21.000000)">
            <g id="logo" transform="translate(101.000000, 17.000000)">
                <rect id="bounds" x="0" y="0" width="250.5" height="36"></rect>
                <g id="Group" transform="translate(31.500000, 4.500000)" fill="#0970CE" fill-rule="nonzero">
                    <g id="logo-blue">
                        <path d="M33.4572568,14.6407358 L17.7818401,0.732899023 C17.494465,0.479329996 17.0632753,0.479329996 16.7759003,0.732899023 L1.09473528,14.6163058 C-0.264429277,15.8663457 -0.372483228,17.9744897 0.851751605,19.356943 C2.07598644,20.7393962 4.18172302,20.8871127 5.58697517,19.6891167 L17.2731219,9.34230696 L28.9607058,19.7121096 C30.3635904,20.9237363 32.4796808,20.7832461 33.7100751,19.3967922 C34.9404694,18.0103383 34.828466,15.892549 33.4586939,14.6436099 M3.6584448,18.5193524 C3.18644176,18.6264202 2.69255739,18.4830919 2.35119895,18.1399814 C2.0098405,17.7968709 1.86904243,17.3022592 1.97852528,16.8308105 C2.09770876,16.3118919 2.50291003,15.9066907 3.02182859,15.7875072 C3.51640133,15.6550428 4.04385796,15.8026012 4.39790079,16.1724697 C4.75194363,16.5423381 4.87631034,17.0757394 4.7223589,17.5640507 C4.56840746,18.0523621 4.16060288,18.417984 3.6584448,18.5179153 M31.5272894,18.5179153 C31.0552864,18.6249832 30.561402,18.4816548 30.2200436,18.1385443 C29.8786851,17.7954338 29.737887,17.3008222 29.8473699,16.8293734 C29.9665534,16.3104549 30.3717546,15.9052536 30.8906732,15.7860701 C31.3852459,15.6536058 31.9127026,15.8011642 32.2667454,16.1710326 C32.6207882,16.5409011 32.7451549,17.0743023 32.5912035,17.5626137 C32.4372521,18.050925 32.0294475,18.4165469 31.5272894,18.5164783 M71.0147391,0.291722552 L75.6966705,0.291722552 L75.6966705,3.34403142 L75.7800198,3.34403142 C77.3679677,1.21287603 79.6255841,0 82.0915738,0 L82.6764559,0 L82.6764559,5.22513892 C82.1332484,5.18346427 81.5900409,5.14178961 81.2552066,5.14178961 C77.702802,5.14178961 75.6952335,7.69112857 75.6952335,11.0337229 L75.6952335,20.6893083 L71.0147391,20.6893083 L71.0147391,0.291722552 Z M135.071551,10.5336271 C135.071551,4.51379575 139.335299,0 145.771876,0 C152.041756,0 156.472202,4.26374784 156.472202,10.5336271 C156.472202,16.7201571 152.041756,21.0241426 145.771876,21.0241426 C139.333862,21.0241426 135.071551,16.5103468 135.071551,10.5336271 M151.708359,10.5336271 C151.708359,6.77141215 149.121656,4.22207319 145.771876,4.22207319 C142.219472,4.22207319 139.835394,6.98122246 139.835394,10.5336271 C139.835394,14.0026825 142.259709,16.7618318 145.771876,16.7618318 C149.077107,16.7618318 151.708359,14.2124928 151.708359,10.5336271 M160.937138,0.291722552 L165.614758,0.291722552 L165.614758,3.09254646 L165.698108,3.09254646 C167.370842,1.08066679 169.836831,3.55271368e-15 172.511194,3.55271368e-15 C176.984753,3.55271368e-15 179.99395,2.54933895 179.99395,8.69419429 L179.99395,20.6907454 L175.312018,20.6907454 L175.312018,9.91281855 C175.312018,5.60164783 173.682396,4.22782142 170.881572,4.22782142 C167.704239,4.22782142 165.614758,6.44376317 165.614758,10.4560261 L165.614758,20.6979306 L160.932827,20.6979306 L160.937138,0.291722552 Z M56.9631967,16.7618318 C53.7858638,16.7618318 51.5713592,15.0057482 50.9850399,12.0382257 L65.8657642,12.0382257 C65.9439135,11.4420685 65.9856655,10.8417033 65.9907882,10.2404675 C65.9907882,4.30542249 62.1035492,0 56.3768775,0 C50.3987207,0 46.1364099,4.22207319 46.1364099,10.4905154 C46.1364099,16.8854187 50.5251817,21.0241426 56.7117117,21.0241426 C60.7527157,21.0241426 63.233076,19.6402568 64.9388625,17.6916076 L61.6594986,14.874976 C60.6061359,15.9398352 59.0727962,16.7603947 56.9631967,16.7603947 M56.3366399,4.22063614 C59.0124398,4.22063614 60.683737,5.89337038 61.2686192,8.35936003 L51.0655151,8.35936003 C51.7337466,5.68356007 53.7413151,4.22063614 56.3323287,4.22063614 M121.956969,16.7618318 C118.779637,16.7618318 116.565132,15.0057482 115.978813,12.0382257 L130.859537,12.0382257 C130.937686,11.4420685 130.979438,10.8417033 130.984561,10.2404675 C130.984561,4.30542249 127.097322,0 121.37065,0 C115.392493,0 111.130183,4.22207319 111.130183,10.4905154 C111.130183,16.8854187 115.518954,21.0241426 121.705484,21.0241426 C125.746488,21.0241426 128.226849,19.6402568 129.932635,17.6916076 L126.653271,14.874976 C125.599909,15.9398352 124.066569,16.7603947 121.956969,16.7603947 M121.330413,4.22063614 C124.006213,4.22063614 125.67751,5.89337038 126.262392,8.35936003 L116.059288,8.35936003 C116.727519,5.68356007 118.735088,4.22063614 121.326101,4.22063614 M101.750512,0.291722552 L101.750512,2.46742671 L101.665726,2.46742671 C99.9527541,0.837804177 97.653463,0.00143705691 95.3124973,0.00143705691 C89.6691748,0.00143705691 85.6152373,4.31260778 85.6152373,10.2835792 C85.6152373,16.3450853 89.8789851,20.3573482 95.5639823,20.3573482 C98.0716466,20.3573482 100.204239,19.4376317 101.743327,17.8913585 L101.826676,17.8913585 C101.826676,19.3284154 102.026427,20.9221115 101.499027,22.297375 C100.603741,24.6354666 98.1564329,25.7779268 95.7651702,25.7779268 C93.258943,25.7779268 91.5804605,25.1643035 89.7597094,24.2532094 L87.7104663,27.8760299 C90.0097573,29.2512934 92.9700945,30 96.0166552,30 C103.58276,30 106.425258,25.5278789 106.425258,19.3413489 L106.425258,0.291722552 L101.750512,0.291722552 Z M96.1905391,16.0504886 C92.8853082,16.0504886 90.380518,13.7928722 90.380518,10.1585553 C90.380518,6.6894999 92.7214837,4.26662196 96.1905391,4.26662196 C99.4512212,4.26662196 101.958886,6.60758766 101.958886,10.076643 C101.958886,13.5456984 99.5762451,16.0547998 96.1905391,16.0547998" id="Combined-Shape"></path>
                    </g>
                </g>
            </g>
        </g>
    </g>
</svg>