<?xml version="1.0" encoding="UTF-8"?>
<svg width="24px" height="24px" viewBox="0 0 24 24" version="1.1" xmlns="http://www.w3.org/2000/svg" xmlns:xlink="http://www.w3.org/1999/xlink">
    <!-- Generator: Sketch 52.2 (67145) - http://www.bohemiancoding.com/sketch -->
    <title>map</title>
    <desc>Created with Sketch.</desc>
    <g id="Page-1" stroke="none" stroke-width="1" fill="none" fill-rule="evenodd">
        <g id="map">
            <path d="M0.271,0.0557688603 C0.105,0.142724759 0,0.316636558 0,0.505715082 L0,16.6835568 C0,16.8463463 0.079,17.0000358 0.209,17.0950806 L7,22 L7,4.57949784 L0.79,0.0941912343 C0.638,-0.0150091971 0.438,-0.0311870388 0.271,0.0557688603" id="Fill-2399" fill="#09A873"></path>
            <path d="M19.5,10.671627 C20.396,10.671627 21.239,10.889881 21.987,11.2688492 C21.994,11.235119 22,11.202381 22,11.1676587 L22,5.21527778 C22,5.05456349 21.922,4.90376984 21.79,4.81150794 L15,0 L15,13 C15.995,11.5952381 17.64,10.671627 19.5,10.671627" id="Fill-2400" fill="#09A873"></path>
            <polygon id="Fill-2401" fill="#09A873" points="8 22 14 17.6163607 14 0 8 4.38261678"></polygon>
            <path d="M19.5,18.5 C18.396,18.5 17.5,17.602 17.5,16.5 C17.5,15.397 18.396,14.5 19.5,14.5 C20.602,14.5 21.5,15.397 21.5,16.5 C21.5,17.602 20.602,18.5 19.5,18.5 M19.5,12 C17.019,12 15,14.018 15,16.5 C15,18.502 17.839,22.303 19.116,23.82 C19.211,23.934 19.352,24 19.5,24 C19.648,24 19.789,23.934 19.884,23.82 C21.179,22.248 24,18.522 24,16.5 C24,14.018 21.981,12 19.5,12" id="Fill-2402" fill="#F68120"></path>
        </g>
    </g>
</svg>