<?xml version="1.0" encoding="UTF-8"?>
<svg width="32px" height="42px" viewBox="0 0 32 42" version="1.1" xmlns="http://www.w3.org/2000/svg" xmlns:xlink="http://www.w3.org/1999/xlink">
    <!-- Generator: Sketch 55.1 (78136) - https://sketchapp.com -->
    <title>marker</title>
    <desc>Created with Sketch.</desc>
    <g id="projects-gallery" stroke="none" stroke-width="1" fill="none" fill-rule="evenodd">
        <g id="map" transform="translate(-927.000000, -609.000000)" stroke="#0e61b4">
            <g id="map_popover" transform="translate(762.000000, 246.000000)">
                <g id="marker" transform="translate(166.000000, 364.000000)">
                    <path d="M15,0 C6.73,0 0,6.72666667 0,15 C0,21.6733333 9.46333333,34.3433333 13.72,39.4 C14.0366667,39.78 14.5066667,40 15,40 C15.4933333,40 15.9633333,39.78 16.28,39.4 C20.5966667,34.16 30,21.74 30,15 C30,6.72666667 23.27,0 15,0" id="Fill-2402" fill="#0970ce"></path>
                    <path d="M15,19 C12.792,19 11,17.204 11,15 C11,12.794 12.792,11 15,11 C17.204,11 19,12.794 19,15 C19,17.204 17.204,19 15,19" id="Path" fill="#FFFFFF"></path>
                </g>
            </g>
        </g>
    </g>
</svg>
