<?xml version="1.0" encoding="UTF-8"?>
<svg width="41px" height="30px" viewBox="0 0 41 30" version="1.1" xmlns="http://www.w3.org/2000/svg" xmlns:xlink="http://www.w3.org/1999/xlink">
    <!-- Generator: Sketch 50.2 (55047) - http://www.bohemiancoding.com/sketch -->
    <title>“</title>
    <desc>Created with Sketch.</desc>
    <defs></defs>
    <g id="ergeon" stroke="none" stroke-width="1" fill="none" fill-rule="evenodd" opacity="0.5">
        <g id="reviews" transform="translate(-581.000000, -610.000000)" fill="#e2e2ea">
            <g id="testimonial-copy" transform="translate(250.000000, 520.000000)">
                <g id="Group" transform="translate(331.000000, 90.000000)">
                    <path d="M35.1595442,0 L39.014245,3.8671875 C37.6904017,5.11719375 36.4833863,6.52342969 35.3931624,8.0859375 C34.3029385,9.64844531 33.4463469,11.1328055 32.8233618,12.5390625 C35.4710484,12.9296895 37.4957195,13.847649 38.8974359,15.2929688 C40.2991523,16.7382885 41,18.5937387 41,20.859375 C41,23.5156383 40.1434084,25.7031164 38.4301994,27.421875 C36.7169905,29.1406336 34.5365754,30 31.8888889,30 C29.0075829,30 26.651956,29.0039162 24.8219373,27.0117188 C22.9919187,25.0195213 22.0769231,22.421891 22.0769231,19.21875 C22.0769231,13.2812203 26.4377532,6.87503438 35.1595442,0 Z M13.0826211,0 L16.9373219,3.8671875 C15.6134787,5.11719375 14.4064632,6.50389863 13.3162393,8.02734375 C12.2260154,9.55078887 11.3694238,11.0546801 10.7464387,12.5390625 C13.3941253,12.9296895 15.4187964,13.847649 16.8205128,15.2929688 C18.2222292,16.7382885 18.9230769,18.5937387 18.9230769,20.859375 C18.9230769,23.5156383 18.0664853,25.7031164 16.3532764,27.421875 C14.6400674,29.1406336 12.4596524,30 9.81196581,30 C6.93065986,30 4.57503289,29.0039162 2.74501425,27.0117188 C0.914995598,25.0195213 0,22.421891 0,19.21875 C0,13.2030949 4.36083009,6.79690898 13.0826211,0 Z" id="“"></path>
                </g>
            </g>
        </g>
    </g>
</svg>
