<?xml version="1.0" encoding="UTF-8"?>
<svg width="24px" height="22px" viewBox="0 0 24 22" version="1.1" xmlns="http://www.w3.org/2000/svg" xmlns:xlink="http://www.w3.org/1999/xlink">
    <!-- Generator: Sketch 52.5 (67469) - http://www.bohemiancoding.com/sketch -->
    <title>Trusted provider@2x</title>
    <desc>Created with Sketch.</desc>
    <g id="fences" stroke="none" stroke-width="1" fill="none" fill-rule="evenodd">
        <g transform="translate(-258.000000, -2407.000000)" fill="#09A873" id="cards">
            <g transform="translate(130.000000, 2381.000000)">
                <g id="block-copy-3">
                    <g id="Trusted-provider" transform="translate(128.000000, 26.000000)">
                        <path d="M6.9297,19.8115 C8.5277,20.0405 9.4017,20.4185 10.1727,20.7515 C11.0627,21.1365 11.9027,21.4995 13.4997,21.4995 L18.9997,21.4995 C20.1027,21.4995 20.9997,20.6025 20.9997,19.4995 C20.9997,19.0885 20.8747,18.7065 20.6607,18.3875 C21.4407,18.1135 21.9997,17.3715 21.9997,16.4995 C21.9997,16.0885 21.8747,15.7065 21.6607,15.3875 C22.4407,15.1135 22.9997,14.3715 22.9997,13.4995 C22.9997,13.0885 22.8747,12.7065 22.6607,12.3875 C23.4407,12.1135 23.9997,11.3715 23.9997,10.4995 C23.9997,9.3975 23.1027,8.4995 21.9997,8.4995 L15.7007,8.4995 C16.1227,7.2095 16.8997,4.4815 16.4817,2.9925 C15.8437,0.7205 14.5187,0.5435 14.1277,0.5435 C13.1997,0.5435 12.4997,1.3065 12.4997,2.3175 C12.4997,5.4755 9.5497,10.3175 6.9997,10.3175 C6.7237,10.3175 6.4997,10.5405 6.4997,10.8175 L6.4997,19.3175 C6.4997,19.5665 6.6827,19.7765 6.9297,19.8115" id="Fill-1395"></path>
                        <path d="M3.5,18.8179 C3.775,18.8179 4,19.0409 4,19.3179 C4,19.5929 3.775,19.8179 3.5,19.8179 C3.224,19.8179 3,19.5929 3,19.3179 C3,19.0409 3.224,18.8179 3.5,18.8179 M0.5,21.4999 L5.5,21.4999 C5.775,21.4999 6,21.2759 6,20.9999 L6,9.9999 C6,9.7239 5.775,9.4999 5.5,9.4999 L0.5,9.4999 C0.224,9.4999 0,9.7239 0,9.9999 L0,20.9999 C0,21.2759 0.224,21.4999 0.5,21.4999" id="Fill-1396"></path>
                    </g>
                </g>
            </g>
        </g>
    </g>
</svg>