<?xml version="1.0" encoding="UTF-8"?>
<svg width="78px" height="47px" viewBox="0 0 78 47" version="1.1" xmlns="http://www.w3.org/2000/svg" xmlns:xlink="http://www.w3.org/1999/xlink">
    <title>Group 11</title>
    <g id="home" stroke="none" stroke-width="1" fill="none" fill-rule="evenodd">
        <g id="Group-11" transform="translate(0.000000, 0.668123)" fill="#000000">
            <path d="M21.5934552,20.7280095 C21.5724552,20.6400095 21.5474552,20.5610095 21.5364552,20.4810095 C21.3984552,19.4220095 21.2614552,18.3630095 21.1254552,17.3040095 C20.9894552,16.2580095 20.8564552,15.2120095 20.7204552,14.1660095 C20.5974552,13.2150095 20.4704552,12.2630095 20.3464552,11.3110095 C20.2524552,10.5880095 20.1584552,9.86400949 20.0684552,9.14000949 C19.9924552,8.54300949 19.9254552,7.94500949 19.8474552,7.34900949 C19.7884552,6.89300949 19.7194552,6.43900949 19.6544552,5.98400949 C19.6464552,5.92500949 19.6464552,5.85200949 19.5594552,5.85491997 C19.4924552,5.85800949 19.4744552,5.91100949 19.4684552,5.97000949 C19.4094552,6.50800949 19.3464552,7.04400949 19.2684552,7.58000949 C19.1414552,8.44900949 19.0644552,9.32600949 18.9384552,10.1950095 C18.8564552,10.7560095 18.7794552,11.3190095 18.7064552,11.8810095 C18.6084552,12.6310095 18.5144552,13.3830095 18.4154552,14.1330095 C18.3074552,14.9500095 18.2044552,15.7680095 18.0954552,16.5850095 C17.9784552,17.4620095 17.8774552,18.3420095 17.7464552,19.2170095 C17.7334552,19.3030095 17.7494552,19.3470095 17.8374552,19.3600095 C18.1264552,19.4040095 18.3954552,19.5200095 18.6734552,19.6060095 C19.2934552,19.7970095 19.9004552,20.0310095 20.4894552,20.3060095 C20.8014552,20.4520095 21.1074552,20.6130095 21.4184552,20.7630095 C21.4784552,20.7920095 21.5694552,20.8700095 21.5934552,20.7280095 M5.95045523,31.6870095 C5.95445523,32.6340095 6.06545523,33.0540095 6.51845523,33.7420095 C6.75745523,34.1030095 7.04945523,34.4160095 7.46645523,34.5690095 C8.21545523,34.8440095 8.93645523,34.5460095 9.33045523,33.8500095 C9.72545523,33.1530095 9.89045523,32.3840095 10.0384552,31.6170095 C10.2014552,30.7750095 10.3134552,29.9220095 10.4464552,29.0740095 C10.5964552,28.1130095 10.7374552,27.1500095 10.8954552,26.1890095 C10.9394552,25.9230095 10.9874552,25.6570095 11.0274552,25.3900095 C11.0384552,25.3120095 11.0324552,25.2230095 10.9104552,25.2800095 C10.5234552,25.4590095 10.1224552,25.6130095 9.75645523,25.8270095 C8.76545523,26.4040095 7.89245523,27.1180095 7.20645523,28.0520095 C6.41045523,29.1380095 5.96445523,30.3360095 5.95045523,31.6870095 M19.5834552,0.00500948911 C20.9924552,0.00500948911 22.4024552,0.00800948911 23.8114552,0 C24.0054552,-0.000990510888 24.0704552,0.0770094891 24.0964552,0.252009489 C24.2344552,1.16800949 24.3764552,2.08300949 24.5234552,2.99700949 C24.6574552,3.82400949 24.8034552,4.64900949 24.9234552,5.47800949 C25.0694552,6.48800949 25.2534552,7.49200949 25.4164552,8.49900949 C25.5114552,9.08600949 25.5954552,9.67600949 25.6904552,10.2630095 C25.8514552,11.2640095 26.0204552,12.2630095 26.1804552,13.2640095 C26.2924552,13.9650095 26.3854552,14.6690095 26.5034552,15.3690095 C26.6184552,16.0490095 26.7374552,16.7280095 26.8414552,17.4100095 C26.9834552,18.3450095 27.1424552,19.2780095 27.2804552,20.2140095 C27.4104552,21.0960095 27.5804552,21.9720095 27.7224552,22.8520095 C27.8394552,23.5730095 27.9214552,24.2990095 28.0534552,25.0170095 C28.1764552,25.6890095 28.2764552,26.3640095 28.3804552,27.0390095 C28.5234552,27.9670095 28.6954552,28.8910095 28.8284552,29.8210095 C28.9524552,30.6900095 29.1014552,31.5570095 29.2374552,32.4240095 C29.3524552,33.1580095 29.4634552,33.8940095 29.6014552,34.6230095 C29.7074552,35.1880095 29.7514552,35.7630095 29.8814552,36.3240095 C29.8964552,36.3900095 29.8984552,36.4580095 29.9094552,36.5250095 C29.9324552,36.6560095 29.8824552,36.7180095 29.7454552,36.7050095 C29.7184552,36.7020095 29.6924552,36.7050095 29.6644552,36.7050095 C27.7674552,36.7050095 25.8704552,36.7010095 23.9724552,36.7100095 C23.7604552,36.7110095 23.6794552,36.6270095 23.6544552,36.4420095 C23.5514552,35.6780095 23.4604552,34.9130095 23.3454552,34.1500095 C23.2354552,33.4220095 23.0964552,32.6990095 22.8884552,31.9910095 C22.7074552,31.3730095 22.4844552,30.7710095 22.2184552,30.1850095 C21.8074552,29.2740095 21.2964552,28.4270095 20.6484552,27.6610095 C20.2084552,27.1390095 19.7084552,26.6880095 19.1554552,26.2940095 C18.5494552,25.8610095 17.8804552,25.5610095 17.1674552,25.3500095 C16.9694552,25.2920095 16.9184552,25.3840095 16.9104552,25.5430095 C16.8944552,25.8610095 16.8574552,26.1760095 16.8144552,26.4920095 C16.7004552,27.3280095 16.5934552,28.1650095 16.4784552,29.0020095 C16.3914552,29.6310095 16.2984552,30.2600095 16.2024552,30.8880095 C16.0154552,32.1110095 15.8014552,33.3300095 15.4624552,34.5200095 C15.0824552,35.8540095 14.5084552,37.0970095 13.5774552,38.1460095 C13.0124552,38.7830095 12.3574552,39.3110095 11.5994552,39.7130095 C10.7784552,40.1490095 9.91745523,40.4490095 8.99345523,40.5660095 C8.03745523,40.6870095 7.09145523,40.6350095 6.15645523,40.3900095 C5.01145523,40.0890095 3.99245523,39.5480095 3.09745523,38.7760095 C2.23745523,38.0350095 1.55245523,37.1470095 1.01745523,36.1510095 C0.703455231,35.5660095 0.496455231,34.9360095 0.314455231,34.2940095 C-0.0135447692,33.1430095 -0.0375447692,31.9670095 0.0314552308,30.7910095 C0.0774552308,29.9970095 0.260455231,29.2170095 0.481455231,28.4480095 C0.769455231,27.4520095 1.18645523,26.5180095 1.70745523,25.6260095 C2.16245523,24.8470095 2.69745523,24.1260095 3.30245523,23.4550095 C3.83145523,22.8710095 4.40145523,22.3330095 5.01945523,21.8470095 C5.62645523,21.3700095 6.26845523,20.9470095 6.94345523,20.5670095 C7.79645523,20.0870095 8.69845523,19.7250095 9.62745523,19.4280095 C10.3504552,19.1970095 11.0874552,19.0200095 11.8464552,18.9550095 C12.0034552,18.9420095 12.0694552,18.8750095 12.0924552,18.7210095 C12.2394552,17.7510095 12.3914552,16.7830095 12.5464552,15.8150095 C12.6634552,15.0820095 12.7884552,14.3490095 12.9064552,13.6150095 C13.0444552,12.7610095 13.1774552,11.9060095 13.3134552,11.0520095 C13.4494552,10.1970095 13.5834552,9.34300949 13.7204552,8.48900949 C13.8414552,7.73500949 13.9664552,6.98100949 14.0874552,6.22800949 C14.2224552,5.38000949 14.3544552,4.53200949 14.4904552,3.68500949 C14.6114552,2.93700949 14.7374552,2.19100949 14.8594552,1.44400949 C14.9254552,1.03700949 14.9954552,0.630009489 15.0494552,0.222009489 C15.0714552,0.0490094891 15.1474552,0.00100948911 15.3144552,0.00100948911 C16.7374552,0.00700948911 18.1604552,0.00500948911 19.5834552,0.00500948911" id="Fill-1"></path>
            <path d="M57.1159552,22.8486095 C57.1159552,24.4476095 57.1159552,26.0466095 57.1159552,27.6456095 C57.1159552,28.1966095 57.1799552,28.7436095 57.3219552,29.2726095 C57.5239552,30.0316095 57.9529552,30.6096095 58.8639552,30.6896095 C59.9589552,30.7866095 60.7689552,30.3626095 61.0699552,29.1816095 C61.2409552,28.5046095 61.2739552,27.8146095 61.2779552,27.1276095 C61.2929552,24.1806095 61.2909552,21.2336095 61.2789552,18.2866095 C61.2769552,17.6516095 61.2509552,17.0116095 61.0379552,16.4016095 C60.8109552,15.7486095 60.4309552,15.2606095 59.6809552,15.1716095 C59.4149552,15.1396095 59.1569552,15.1526095 58.8929552,15.1856095 C58.1969552,15.2726095 57.7309552,15.6656095 57.4529552,16.2886095 C57.1949552,16.8676095 57.1199552,17.4866095 57.1179552,18.1126095 C57.1119552,19.6906095 57.1159552,21.2696095 57.1159552,22.8486095 M61.3899552,33.0366095 C61.1829552,33.3836095 61.0379552,33.7566095 60.8149552,34.0896095 C60.3999552,34.7096095 59.8659552,35.1966095 59.1949552,35.5276095 C58.7299552,35.7566095 58.2379552,35.8836095 57.7279552,35.9836095 C57.1009552,36.1066095 56.4749552,36.1156095 55.8519552,36.0376095 C54.9599552,35.9266095 54.1009552,35.6946095 53.3549552,35.1536095 C52.5629552,34.5796095 52.0289552,33.8126095 51.6649552,32.9166095 C51.3039552,32.0256095 51.1289552,31.0946095 51.0189552,30.1406095 C50.9479552,29.5196095 50.9279552,28.9016095 50.9149552,28.2786095 C50.8389552,24.7696095 50.8949552,21.2606095 50.8869552,17.7506095 C50.8849552,16.7846095 50.9619552,15.8176095 51.1639552,14.8676095 C51.3669552,13.9086095 51.6789552,12.9906095 52.2229552,12.1626095 C52.8379552,11.2276095 53.6519552,10.5496095 54.7079552,10.1636095 C55.9299552,9.71660949 57.1829552,9.67760949 58.4489552,9.89960949 C59.3869552,10.0636095 60.2079552,10.4686095 60.8359552,11.2116095 C61.2069552,11.6506095 61.4009552,12.1766095 61.5829552,12.7096095 C61.5959552,12.7466095 61.6089552,12.7846095 61.6349552,12.8576095 C61.6849552,12.5386095 61.6889552,12.2516095 61.7559552,11.9716095 C61.8769552,11.4646095 62.1939552,11.1076095 62.5949552,10.8136095 C63.2059552,10.3656095 63.8909552,10.1806095 64.6549552,10.2056095 C65.5479552,10.2356095 66.4439552,10.2176095 67.3379552,10.2086095 C67.5349552,10.2066095 67.6099552,10.2556095 67.6099552,10.4686095 C67.6009552,16.6276095 67.6199552,22.7876095 67.5829552,28.9466095 C67.5679552,31.5346095 67.6179552,34.1236095 67.5389552,36.7096095 C67.5039552,37.8686095 67.4229552,39.0326095 67.1779552,40.1736095 C66.9609552,41.1776095 66.6379552,42.1456095 66.0619552,43.0086095 C65.5879552,43.7166095 64.9789552,44.2836095 64.2419552,44.7166095 C63.5869552,45.1006095 62.8819552,45.3406095 62.1479552,45.5246095 C60.6859552,45.8906095 59.1979552,45.9126095 57.7109552,45.8286095 C56.5889552,45.7656095 55.4859552,45.5306095 54.4569552,45.0446095 C53.2039552,44.4516095 52.2459552,43.5496095 51.6489552,42.2846095 C51.2989552,41.5426095 51.1029552,40.7636095 51.0219552,39.9456095 C50.9869552,39.5946095 50.9689552,39.2456095 50.9619552,38.8936095 C50.9589552,38.7416095 51.0119552,38.6746095 51.1739552,38.6756095 C53.1189552,38.6786095 55.0639552,38.6786095 57.0089552,38.6756095 C57.1769552,38.6746095 57.2309552,38.7396095 57.2349552,38.9026095 C57.2469552,39.3836095 57.3439552,39.8416095 57.6299552,40.2446095 C57.8679552,40.5806095 58.2009552,40.7726095 58.5859552,40.8906095 C59.1859552,41.0736095 59.7609552,41.0156095 60.3069552,40.7016095 C60.6509552,40.5046095 60.8749552,40.2076095 61.0219552,39.8466095 C61.2239552,39.3506095 61.2849552,38.8266095 61.3279552,38.2996095 C61.4719552,36.5486095 61.3639552,34.7926095 61.3899552,33.0366095" id="Fill-3"></path>
            <path d="M37.9826552,12.7095095 C38.1936552,12.3665095 38.4126552,12.0345095 38.6566552,11.7195095 C39.2036552,11.0135095 39.8896552,10.4955095 40.7276552,10.1755095 C41.9336552,9.71550949 43.1736552,9.66750949 44.4236552,9.90250949 C45.7356552,10.1495095 46.7556552,10.8545095 47.4336552,12.0145095 C47.7556552,12.5655095 47.9756552,13.1625095 48.1236552,13.7865095 C48.3086552,14.5665095 48.3696552,15.3585095 48.4136552,16.1575095 C48.4476552,16.7815095 48.4396552,17.4035095 48.4396552,18.0255095 C48.4426552,24.1175095 48.4418152,30.2095095 48.4418152,36.3005095 C48.4418152,36.7045095 48.4406552,36.7045095 48.0286552,36.7045095 L42.5196552,36.7045095 C42.1836552,36.7045095 42.1826552,36.7045095 42.1826552,36.3705095 C42.1826552,30.1835095 42.1836552,23.9975095 42.1816552,17.8105095 C42.1816552,17.3285095 42.1246552,16.8525095 41.9656552,16.3925095 C41.6246552,15.3965095 40.9716552,15.0835095 39.9896552,15.1575095 C39.5956552,15.1865095 39.2086552,15.2575095 38.8936552,15.5295095 C38.4616552,15.9045095 38.2586552,16.4055095 38.1736552,16.9475095 C38.0536552,17.7165095 38.0056552,18.4935095 38.0066552,19.2735095 C38.0116552,24.9045095 38.0086552,30.5355095 38.0086552,36.1665095 L38.0086552,36.3695095 C38.0086552,36.7045095 38.0086552,36.7045095 37.6806552,36.7045095 C35.8036552,36.7045095 33.9266552,36.7055095 32.0496552,36.7045095 C31.7686552,36.7045095 31.7656552,36.7035095 31.7646552,36.4215095 C31.7636552,34.3555095 31.7786552,32.2885095 31.7596552,30.2225095 C31.6966552,23.6635095 31.7426552,17.1055095 31.7196552,10.5465095 C31.7176552,10.2125095 31.7176552,10.2125095 32.0486552,10.2125095 C33.1126552,10.2125095 34.1766552,10.2035095 35.2406552,10.2145095 C36.2956552,10.2265095 37.1126552,10.6955095 37.6826552,11.5745095 C37.8996552,11.9095095 37.9606552,12.3045095 37.9826552,12.7095095" id="Fill-5"></path>
            <path d="M76.7921552,23.4585095 L76.7921552,36.3065095 C76.7921552,36.3805095 76.7891552,36.4555095 76.7911552,36.5305095 C76.7941552,36.6465095 76.7451552,36.7085095 76.6231552,36.7046916 C76.5751552,36.7025095 76.5281552,36.7046916 76.4801552,36.7046916 L70.8901552,36.7046916 C70.5921552,36.7046916 70.5911552,36.7035095 70.5911552,36.4185095 L70.5911552,10.4995095 C70.5911552,10.2135095 70.5921552,10.2125095 70.8701552,10.2125095 C72.7471552,10.2125095 74.6241552,10.2125095 76.5001552,10.2125095 C76.7911552,10.2125095 76.7921552,10.2135095 76.7921552,10.5085095 C76.7921552,14.8255095 76.7921552,19.1425095 76.7921552,23.4585095" id="Fill-7"></path>
            <path d="M73.6896552,7.79640949 C71.6806552,7.79740949 70.2846552,6.26040949 70.3006552,4.42040949 C70.3176552,2.46240949 71.7386552,1.00440949 73.6986552,0.994361711 C75.5646552,0.984409489 77.1666552,2.54540949 77.1156552,4.51840949 C77.0706552,6.31540949 75.6216552,7.81640949 73.6896552,7.79640949" id="Fill-9"></path>
        </g>
    </g>
</svg>