<?xml version="1.0" encoding="UTF-8"?>
<svg width="33px" height="48px" viewBox="0 0 33 48" version="1.1" xmlns="http://www.w3.org/2000/svg" xmlns:xlink="http://www.w3.org/1999/xlink">
    <title>Group 28</title>
    <g id="home" stroke="none" stroke-width="1" fill="none" fill-rule="evenodd">
        <g id="Group-28" transform="translate(0.009411, 0.000000)" fill="#000000">
            <path d="M20.5532444,22.6959587 C20.4722444,22.6969326 20.4372444,22.6689326 20.4002444,22.6429326 C20.2842444,22.5619326 20.1722444,22.4759326 20.0512444,22.4039326 C19.9472444,22.3419326 19.9462444,22.2789326 20.0112444,22.1859326 C20.2352444,21.8629326 20.4082444,21.5149326 20.5132444,21.1339326 C20.6072444,20.7969326 20.6222444,20.4529326 20.6012444,20.1059326 C20.5402444,19.1139326 20.0642444,18.3389326 19.3072444,17.7369326 C18.8722444,17.3919326 18.3892444,17.1099326 17.9312444,16.7939326 C17.0352444,16.1769326 16.1262444,15.5809326 15.2402444,14.9519326 C14.6402444,14.5279326 14.0222444,14.1299326 13.4162444,13.7129326 C12.4782444,13.0659326 11.7272444,12.2539326 11.2152444,11.2259326 C10.9072444,10.6079326 10.6902444,9.95893265 10.6252444,9.27693265 C10.5732444,8.71893265 10.5742444,8.15593265 10.6552444,7.59193265 C10.7682444,6.78693265 11.0802444,6.06993265 11.4802444,5.37993265 C11.6682444,5.05293265 11.9022444,4.75593265 12.1292444,4.45593265 C12.5232444,3.93593265 12.9202444,3.41893265 13.3172444,2.90093265 C13.5812444,2.55593265 13.8452444,2.20993265 14.1122444,1.86593265 C14.5412444,1.30893265 14.9732444,0.753932647 15.4042444,0.197932647 C15.5952444,-0.049067353 15.6062444,-0.052067353 15.8572444,0.117932647 C16.2192444,0.362932647 16.2192444,0.362932647 16.0102444,0.749932647 C15.7152444,1.29693265 15.8102444,2.07793265 16.1902444,2.57993265 C16.4972444,2.98593265 16.9232444,3.22993265 17.3242444,3.51093265 C17.8892444,3.90893265 18.4582444,4.29893265 19.0282444,4.68893265 C19.6342444,5.10493265 20.2432444,5.51493265 20.8502444,5.92993265 C21.4932444,6.37093265 22.1392444,6.80993265 22.7752444,7.26093265 C23.1812444,7.54893265 23.6122444,7.80193265 24.0002444,8.11393265 C24.7952444,8.75193265 25.4492444,9.50093265 25.8862444,10.4309326 C26.0902444,10.8659326 26.2272444,11.3239326 26.3432444,11.7869326 C26.4592444,12.2499326 26.4332444,12.7259326 26.4382444,13.1989326 C26.4492444,14.2119326 26.1512444,15.1359326 25.6542444,16.0039326 C25.3552444,16.5269326 24.9652444,16.9849326 24.6052444,17.4649326 C24.1662444,18.0479326 23.7292444,18.6319326 23.2782444,19.2059326 C22.6212444,20.0389326 22.0052444,20.9039326 21.3352444,21.7259326 C21.1332444,21.9739326 20.9542444,22.2389326 20.7632444,22.4949326 C20.6992444,22.5809326 20.6362444,22.6709326 20.5532444,22.6959587" id="Fill-12"></path>
            <path d="M15.1753444,27.6632326 C15.1663444,27.2102326 14.9793444,26.9342326 14.6893444,26.7332326 C14.0293444,26.2722326 13.3583444,25.8262326 12.6933444,25.3712326 C12.1383444,24.9932326 11.5893444,24.6042326 11.0303444,24.2312326 C10.5853444,23.9332326 10.1233444,23.6542326 9.71334444,23.3102326 C9.18334444,22.8672326 8.74434444,22.3422326 8.48234444,21.6892326 C8.27934444,21.1872326 8.16634444,20.6742326 8.15934444,20.1262326 C8.15234444,19.4662326 8.26134444,18.8432326 8.55234444,18.2532326 C8.72934444,17.8952326 8.95834444,17.5732326 9.20834444,17.2632326 C9.54134444,16.8502326 9.85734444,16.4232326 10.1813444,16.0032326 C10.4673444,15.6332326 10.7533444,15.2642326 11.0403444,14.8942326 C11.1573444,14.7442326 11.2843444,14.5992326 11.3933444,14.4422326 C11.4793444,14.3162326 11.5693444,14.3072326 11.6823444,14.3922326 C11.8203444,14.4962326 11.9613444,14.5942326 12.1123444,14.6792326 C12.2173444,14.7382326 12.2743444,14.8232326 12.2033444,14.9502326 C11.8913444,15.5162326 12.1333444,16.0272326 12.5953444,16.3482326 C12.9743444,16.6112326 13.3563444,16.8702326 13.7373444,17.1292326 C14.7513444,17.8202326 15.7623444,18.5162326 16.7813444,19.1982326 C17.2513444,19.5122326 17.7083444,19.8382326 18.0733444,20.2732326 C18.4503444,20.7222326 18.7103444,21.2332326 18.8953444,21.7912326 C19.0933444,22.3932326 19.0943444,23.0112326 19.0243444,23.6142326 C18.9423444,24.3162326 18.6373444,24.9552326 18.2083444,25.5292326 C17.7493444,26.1432326 17.2463444,26.7232326 16.7983444,27.3462326 C16.4873444,27.7772326 16.1493444,28.1872326 15.8243444,28.6072326 C15.7443444,28.7112326 15.6613444,28.7362326 15.5473444,28.6502326 C15.3943444,28.5362326 15.2333444,28.4312326 15.0733444,28.3232326 C14.9803444,28.2602326 14.9473444,28.1902326 15.0213444,28.0832326 C15.1243444,27.9342326 15.1813444,27.7672326 15.1753444,27.6632326" id="Fill-14"></path>
            <path d="M14.8120444,38.9953326 C14.4090444,38.9953326 14.0040444,39.0003326 13.6010444,38.9923326 C13.4390444,38.9893326 13.3720444,39.0343326 13.3740444,39.2083326 C13.3820444,39.8043326 13.3820444,40.4003326 13.3740444,40.9963326 C13.3720444,41.1653326 13.4270444,41.2193326 13.5950444,41.2163326 C14.2300444,41.2083326 14.8650444,41.2073326 15.4990444,41.2153326 C15.8780444,41.2203326 16.2490444,41.1753326 16.6100444,41.0673326 C17.0270444,40.9423326 17.3510444,40.7393326 17.3810444,40.2413326 C17.4130444,39.7353326 17.3210444,39.4623326 16.8670444,39.2213326 C16.5740444,39.0663326 16.2510444,39.0143326 15.9270444,38.9993326 C15.5560444,38.9823326 15.1840444,38.9953326 14.8120444,38.9953326 M15.0860444,43.2733326 L15.0860444,43.2723326 C14.5850444,43.2723326 14.0840444,43.2773326 13.5840444,43.2693326 C13.4240444,43.2663326 13.3730444,43.3233326 13.3750444,43.4813326 C13.3810444,44.1103326 13.3800444,44.7393326 13.3750444,45.3673326 C13.3740444,45.5153326 13.4220444,45.5763326 13.5750444,45.5703326 C14.6940444,45.5253326 15.8150444,45.6433326 16.9330444,45.5003326 C17.4980444,45.4283326 17.8540444,45.1723326 18.0060444,44.6353326 C18.1320444,44.1893326 17.9480444,43.7583326 17.5370444,43.5403326 C17.2040444,43.3633326 16.8410444,43.2893326 16.4720444,43.2773326 C16.0100444,43.2613326 15.5480444,43.2733326 15.0860444,43.2733326 M18.6000444,42.0393326 C19.1220444,42.2383326 19.5890444,42.4723326 19.9590444,42.8613326 C20.3810444,43.3053326 20.6220444,43.8293326 20.6180444,44.4453326 C20.6160444,44.7883326 20.6460444,45.1293326 20.5560444,45.4753326 C20.4220444,45.9933326 20.1600444,46.4173326 19.7610444,46.7553326 C19.2550444,47.1833326 18.6510444,47.4173326 18.0130444,47.5763326 C17.5250444,47.6973326 17.0320444,47.7363326 16.5300444,47.7344052 C14.7340444,47.7273326 12.9370444,47.7313326 11.1400444,47.7313326 C10.8330444,47.7313326 10.8310444,47.7293326 10.8310444,47.4203326 L10.8310444,37.1623326 C10.8310444,36.8593326 10.8310444,36.8593326 11.1220444,36.8593326 C12.9440444,36.8593326 14.7660444,36.8593326 16.5880444,36.8593326 C17.2750444,36.8593326 17.9310444,37.0163326 18.5390444,37.3243326 C19.3000444,37.7123326 19.8490444,38.3173326 19.9770444,39.1783326 C20.1240444,40.1763326 19.8920444,41.0783326 19.0260444,41.7193326 C18.8930444,41.8173326 18.7620444,41.9183326 18.6000444,42.0393326" id="Fill-16"></path>
            <path d="M3.96144444,38.9953326 C3.56444444,38.9953326 3.16644444,39.0013326 2.76944444,38.9923326 C2.59844444,38.9883326 2.54644444,39.0513326 2.54844444,39.2163326 C2.55544444,39.8063326 2.55644444,40.3963326 2.54844444,40.9863326 C2.54544444,41.1623326 2.60444444,41.2193326 2.78044444,41.2173326 C3.40844444,41.2083326 4.03744444,41.2073326 4.66544444,41.2153326 C5.05144444,41.2203326 5.42944444,41.1753326 5.79444444,41.0593326 C6.17844444,40.9373326 6.47344444,40.7353326 6.53044444,40.2783326 C6.60744444,39.6783326 6.34344444,39.3393326 5.93344444,39.1703326 C5.64744444,39.0533326 5.33544444,38.9933326 5.02044444,38.9953326 C4.66644444,38.9963326 4.31444444,38.9953326 3.96144444,38.9953326 M4.24244444,43.2713326 C3.75644444,43.2713326 3.26944444,43.2783326 2.78144444,43.2683326 C2.60744444,43.2653326 2.54544444,43.3213326 2.54844444,43.4983326 C2.55644444,44.1073326 2.55844444,44.7163326 2.54744444,45.3253326 C2.54344444,45.5253326 2.61644444,45.5743326 2.80444444,45.5723326 C3.65644444,45.5643326 4.50944444,45.5623326 5.36144444,45.5713326 C5.73644444,45.5753326 6.09744444,45.5143326 6.45344444,45.4113326 C6.90444444,45.2803326 7.23444444,44.9003326 7.22844444,44.4473326 C7.22344444,44.0863326 7.07544444,43.6813326 6.57044444,43.4813326 C6.21644444,43.3413326 5.85344444,43.2713326 5.47444444,43.2723326 C5.06444444,43.2733326 4.65344444,43.2723326 4.24244444,43.2713326 M0.000444444444,42.2873326 C0.000444444444,40.5673326 -0.000555555556,38.8473326 0.000444444444,37.1273326 C0.000444444444,36.8603326 0.00144444444,36.8593326 0.265444444,36.8593326 C2.11244444,36.8593326 3.96144444,36.8453326 5.80944444,36.8663326 C6.71344444,36.8763326 7.56144444,37.1163326 8.27144444,37.7153326 C8.67644444,38.0583326 8.96844444,38.4733326 9.07944444,39.0043326 C9.24644444,39.8013326 9.17244444,40.5523326 8.68444444,41.2313326 C8.47444444,41.5223326 8.19544444,41.7373326 7.89944444,41.9333326 C7.86344444,41.9563326 7.80344444,41.9633326 7.80144444,42.0153326 C7.79944444,42.0873326 7.87544444,42.0733326 7.91644444,42.0923326 C8.31444444,42.2713326 8.70544444,42.4603326 9.02344444,42.7703326 C9.51144444,43.2473326 9.78844444,43.8143326 9.79344444,44.5083326 C9.79644444,44.9523326 9.80244444,45.3923326 9.61344444,45.8093326 C9.31544444,46.4743326 8.81744444,46.9363326 8.16144444,47.2373326 C7.60944444,47.4903326 7.02744444,47.6273326 6.43344444,47.7183326 C6.35144444,47.7303326 6.26644444,47.7293326 6.18344444,47.7293326 C4.21344444,47.7303326 2.24244444,47.7313326 0.273444444,47.7313326 C0.00144444444,47.7313326 0.000444444444,47.7293326 0.000444444444,47.4473326 C-0.000555555556,45.7263326 0.000444444444,44.0073326 0.000444444444,42.2873326" id="Fill-18"></path>
            <path d="M25.5757444,38.9953326 C25.1787444,38.9953326 24.7807444,39.0023326 24.3837444,38.9923326 C24.2047444,38.9873326 24.1487444,39.0503326 24.1507444,39.2243326 C24.1587444,39.8083326 24.1597444,40.3913326 24.1507444,40.9753326 C24.1477444,41.1593326 24.2057444,41.2243326 24.3917444,41.2163326 C25.2987444,41.1793326 26.2067444,41.2683326 27.1137444,41.1443326 C27.6367444,41.0733326 28.0417444,40.7783326 28.1257444,40.2683326 C28.2157444,39.7243326 28.0247444,39.4413326 27.6307444,39.2183326 C27.3537444,39.0613326 27.0377444,39.0203326 26.7287444,39.0013326 C26.3467444,38.9773326 25.9607444,38.9953326 25.5757444,38.9953326 M25.8577444,43.2723326 L25.8577444,43.2713326 C25.3647444,43.2713326 24.8707444,43.2773326 24.3777444,43.2693326 C24.2147444,43.2663326 24.1487444,43.3143326 24.1507004,43.4863326 C24.1587444,44.1083326 24.1587444,44.7293326 24.1517444,45.3513326 C24.1487444,45.5203326 24.2107444,45.5723326 24.3757444,45.5713326 C25.3497444,45.5653326 26.3247444,45.5853326 27.2987444,45.5593326 C27.6627444,45.5493326 28.0307444,45.4693326 28.3567444,45.2713326 C28.6797444,45.0743326 28.8097444,44.7663326 28.8077671,44.4123326 C28.8047444,44.0483326 28.6607444,43.7463326 28.3207444,43.5573326 C27.9657444,43.3603326 27.5807444,43.2873326 27.1847444,43.2753326 C26.7427444,43.2633326 26.3007444,43.2723326 25.8577444,43.2723326 M29.3847444,42.0383326 C29.8447444,42.2343326 30.2827444,42.4303326 30.6307444,42.7753326 C31.1127444,43.2543326 31.3937444,43.8253326 31.3917444,44.5143326 C31.3907444,44.8313326 31.4207444,45.1493326 31.3247444,45.4673326 C31.1137444,46.1653326 30.7187444,46.7133326 30.0797444,47.0683326 C29.5167444,47.3813326 28.9167444,47.5763326 28.2747444,47.6703326 C27.9537444,47.7173326 27.6377444,47.7293326 27.3187444,47.7303326 C25.5147444,47.7333326 23.7127444,47.7313326 21.9087444,47.7313326 C21.6027444,47.7313326 21.6027444,47.7303326 21.6027444,47.4223326 L21.6027444,37.1613326 C21.6027444,36.8593326 21.6037444,36.8593326 21.9117444,36.8593326 C23.7657444,36.8593326 25.6217444,36.8463326 27.4747444,36.8673326 C28.2167444,36.8753326 28.9207444,37.0733326 29.5567444,37.4773326 C30.1827444,37.8743326 30.6007444,38.4293326 30.7257444,39.1563326 C30.7917444,39.5333326 30.7847444,39.9293326 30.6977444,40.3193326 C30.5297444,41.0733326 30.0687444,41.5883326 29.4307444,41.9753326 C29.4167444,41.9843326 29.4087444,42.0043326 29.3847444,42.0383326" id="Fill-20"></path>
            <path d="M15.7007444,29.8239326 L25.1327444,29.8239326 C25.4317444,29.8239326 25.4377444,29.8229326 25.5337444,30.1119326 C25.7267444,30.6929326 25.9147444,31.2759326 26.1017444,31.8599326 C26.1647444,32.0529326 26.0967444,32.1309326 25.8677444,32.1319326 C24.3277444,32.1329326 22.7877444,32.1319326 21.2477444,32.1319326 C20.9337444,32.1319326 20.9427444,32.1349326 20.8467444,32.4439326 C20.6657444,33.0269326 20.4717444,33.6059326 20.2857444,34.1879326 C20.2117444,34.4179326 20.1397444,34.6489326 20.0697444,34.8809326 C20.0247444,35.0329326 19.9447444,35.1089326 19.7677444,35.1089326 C17.0547444,35.1039326 14.3407444,35.1039326 11.6257444,35.1089326 C11.4497444,35.1089326 11.3747444,35.0329326 11.3257444,34.8809326 C11.0537444,34.0369326 10.7757444,33.1949326 10.5037444,32.3499326 C10.4507444,32.1879326 10.3607444,32.1269326 10.1807444,32.1279326 C8.64774444,32.1359326 7.11374444,32.1319326 5.58074444,32.1319326 C5.25774444,32.1319326 5.22774444,32.0809326 5.33074444,31.7689326 C5.52174444,31.1829326 5.71074444,30.5959326 5.88674444,30.0059326 C5.92674444,29.8729326 5.99074444,29.8249326 6.11374444,29.8249326 C6.18474444,29.8249326 6.25574444,29.8239326 6.32574444,29.8239326 L15.7007444,29.8239326 Z" id="Fill-22"></path>
            <path d="M32.1108444,47.4606326 C32.5408444,47.5036326 32.7878444,47.1396326 32.7758444,46.8386326 C32.7608444,46.4466326 32.5268444,46.2436326 32.0998444,46.2236326 C31.6808444,46.2046326 31.4488444,46.5196326 31.4468444,46.8406326 C31.4438444,47.1586326 31.6718444,47.5036326 32.1108444,47.4606326 M32.9468444,46.8296326 C33.0218444,47.2646326 32.5218444,47.6706326 32.1048444,47.6706326 C31.6758444,47.6696326 31.2528444,47.2456326 31.2528444,46.8436326 C31.2528444,46.3796326 31.6828444,46.0256326 32.1008444,46.0236326 C32.5508444,46.0196326 33.0118444,46.3976326 32.9468444,46.8296326" id="Fill-24"></path>
            <path d="M32.0347444,46.3449326 C32.1587444,46.3469326 32.2677444,46.3389326 32.3697444,46.3929326 C32.5537444,46.4909326 32.6047444,46.6839326 32.4897444,46.8639326 C32.4487444,46.9259326 32.4187444,46.9739326 32.4597444,47.0529326 C32.4847444,47.1009326 32.5657444,47.1589326 32.4977444,47.2189326 C32.4437444,47.2659326 32.3627444,47.2439326 32.2937444,47.2359326 C32.2377444,47.2289326 32.1977444,47.1919326 32.1717444,47.1489326 C32.0967444,47.0279326 32.0387444,46.9519326 32.0007444,47.1689326 C31.9867444,47.2499326 31.9067444,47.2409326 31.8427444,47.2389326 C31.7707444,47.2369326 31.7377444,47.1929326 31.7367444,47.1269326 C31.7347444,46.9089326 31.7207444,46.6899326 31.7407444,46.4729326 C31.7607444,46.2719326 31.9407444,46.3769326 32.0347444,46.3449326" id="Fill-26"></path>
        </g>
    </g>
</svg>