<?xml version="1.0" encoding="UTF-8"?>
<svg width="49px" height="51px" viewBox="0 0 49 51" version="1.1" xmlns="http://www.w3.org/2000/svg" xmlns:xlink="http://www.w3.org/1999/xlink">
    <title>Google__G__Logo</title>
    <g id="REFRESH" stroke="none" stroke-width="1" fill="none" fill-rule="evenodd">
        <g id="general-city|desktop-" transform="translate(-466.000000, -723.000000)" fill="#1D1E1C" fill-rule="nonzero">
            <g id="logo-banner-2-copy-2" transform="translate(0.000000, 675.000000)">
                <g id="Group-24-Copy-2" transform="translate(390.000000, 48.000000)">
                    <g id="Google__G__Logo" transform="translate(76.000000, 0.377483)">
                        <path d="M48.9795918,25.4149721 C48.9795918,23.7612944 48.8335021,22.1913472 48.5830625,20.6632653 L25,20.6632653 L25,30.103881 L38.5028685,30.103881 C37.8976395,33.2019102 36.1236923,35.8184888 33.4940765,37.5977623 L33.4940765,43.877551 L41.5498837,43.877551 C46.2664962,39.5026315 48.9795918,33.0553818 48.9795918,25.4149721 Z" id="Path"></path>
                        <path d="M25.085399,50 C31.8253482,50 37.4627748,47.7584649 41.5816327,43.9603081 L33.5519401,37.7338216 C31.3052904,39.2281784 28.4553736,40.1413964 25.085399,40.1413964 C18.5742752,40.1413964 13.0616624,35.7621009 11.0854428,29.8469388 L2.80612245,29.8469388 L2.80612245,36.2602198 C6.90417798,44.3961622 15.3291145,50 25.085399,50 Z" id="Path"></path>
                        <path d="M10.9693878,29.7777103 C10.4490183,28.2755481 10.1784262,26.6690691 10.1784262,25 C10.1784262,23.3309309 10.4698331,21.7244519 10.9693878,20.2222897 L10.9693878,13.7755102 L2.6851063,13.7755102 C0.978294544,17.1553752 0,20.9525074 0,25 C0,29.0474926 0.978294544,32.8446248 2.6851063,36.2244898 L10.9693878,29.7777103 Z" id="Path"></path>
                        <path d="M25.1242141,9.85860359 C28.8126382,9.85860359 32.1051298,11.1246558 34.7099491,13.5944955 L41.8367347,6.49630089 C37.5231539,2.46983964 31.8759057,0 25.1242141,0 C15.3509322,0 6.91131765,5.60383783 2.80612245,13.7397802 L11.0998671,20.1530612 C13.0795297,14.2378991 18.6017466,9.85860359 25.1242141,9.85860359 Z" id="Path"></path>
                    </g>
                </g>
            </g>
        </g>
    </g>
</svg>