<?xml version="1.0" encoding="UTF-8"?>
<svg width="50px" height="51px" viewBox="0 0 50 51" version="1.1" xmlns="http://www.w3.org/2000/svg" xmlns:xlink="http://www.w3.org/1999/xlink">
    <title>Group 16</title>
    <g id="REFRESH" stroke="none" stroke-width="1" fill="none" fill-rule="evenodd">
        <g id="general-city|desktop-" transform="translate(-945.000000, -723.000000)" fill="#333631">
            <g id="logo-banner-2-copy-2" transform="translate(0.000000, 675.000000)">
                <g id="Group-26-Copy-2" transform="translate(870.000000, 48.000000)">
                    <g id="logo" transform="translate(75.000000, 0.375957)">
                        <path d="M25,0 C38.8083292,0 50,11.1481391 50,24.8989364 C50,38.6514448 38.8083292,49.7978723 25,49.7978723 C11.1933888,49.7978723 0,38.6514448 0,24.8989364 C0,11.1481391 11.1933888,0 25,0 Z M27.5510204,20.6644232 C24.88516,20.8289957 23.1924415,21.6090006 21.7687075,23.4861548 L21.7687075,23.4861548 L21.7687075,33.3896453 C21.7687075,37.2673835 22.8789115,39.5628264 24.6949861,42.3451295 C26.5830181,39.4479685 27.5510204,37.0359533 27.5510204,33.3896453 L27.5510204,33.3896453 Z M37.414966,13.2116804 L12.585034,13.2116804 L12.585034,18.293096 L37.414966,18.293096 L37.414966,13.2116804 Z" id="Combined-Shape"></path>
                    </g>
                </g>
            </g>
        </g>
    </g>
</svg>