<?xml version="1.0" encoding="UTF-8"?>
<svg width="124px" height="51px" viewBox="0 0 124 51" version="1.1" xmlns="http://www.w3.org/2000/svg" xmlns:xlink="http://www.w3.org/1999/xlink">
    <title>Yelp_Logo</title>
    <g id="REFRESH" stroke="none" stroke-width="1" fill="none" fill-rule="evenodd">
        <g id="general-city|desktop-" transform="translate(-168.000000, -723.000000)" fill="#1D1E1C">
            <g id="logo-banner-2-copy-2" transform="translate(0.000000, 675.000000)">
                <g id="Group-22-Copy-2" transform="translate(130.000000, 48.000000)">
                    <g id="Yelp_Logo" transform="translate(38.000000, 0.377483)">
                        <path d="M97.7599608,28.7574953 L99.7432759,28.3247452 C99.7846945,28.3157296 99.8547876,28.3007036 99.9376248,28.2751593 C101.076257,27.9871945 101.768573,26.9003764 101.503568,25.8168983 L101.495602,25.783841 C101.430041,25.5340927 101.315494,25.2981272 101.157881,25.0881352 C100.935806,24.8222473 100.660932,24.5997225 100.348625,24.4329996 C99.9809452,24.2353832 99.5961824,24.0674933 99.1984616,23.9311297 L97.0239836,23.1813301 C95.803727,22.7530878 94.5834705,22.3368663 93.3504698,21.9296605 C92.5523647,21.6621969 91.8753294,21.426288 91.2875034,21.2534885 C91.175619,21.224286 91.0645972,21.1922186 90.9545614,21.1573218 C90.2440726,20.9529676 89.743863,20.8673191 89.3217116,20.8643139 C89.0395624,20.8544076 88.7585129,20.9026071 88.4981181,21.0055588 C88.2260636,21.1166511 87.9818231,21.2804751 87.7812572,21.4863922 C87.6817552,21.5929433 87.5881723,21.7042853 87.5008849,21.8199704 C87.3311686,22.065915 87.1911728,22.3290062 87.0835126,22.6043299 C86.6795189,23.7298228 86.4781385,24.9111702 86.4877215,26.099388 C86.4956867,27.1722476 86.5259541,28.5501359 87.1520126,29.4847559 C87.3033499,29.7251726 87.505664,29.9325321 87.7462107,30.0933107 C88.1922574,30.3833134 88.6414903,30.4223811 89.1114324,30.4539358 C89.812363,30.5005166 90.4893983,30.3397379 91.1664336,30.19098 L97.7551817,28.7559927 L97.7599608,28.7574953 Z M119.887067,18.8267822 C119.345681,17.7548937 118.617675,16.7761653 117.733298,15.9312634 C117.61901,15.8238084 117.496552,15.7243718 117.366903,15.6337477 C117.247115,15.5490044 117.122688,15.4702594 116.994135,15.3978388 C116.861775,15.329441 116.725644,15.2677467 116.586321,15.2130184 C116.311287,15.111021 116.016523,15.0649382 115.721309,15.077784 C115.439343,15.0928101 115.16375,15.1679403 114.913645,15.2926565 C114.536099,15.4699638 114.126691,15.7554586 113.581877,16.2317843 C113.507005,16.3024067 113.413017,16.3820447 113.326993,16.4571749 C112.879353,16.8553651 112.379144,17.3467168 111.784946,17.9177065 C110.865771,18.7937249 109.962526,19.6742512 109.062467,20.5622904 L107.453513,22.1370199 C107.159709,22.4242337 106.892189,22.734375 106.653815,23.0641269 C106.449721,23.3431649 106.305248,23.6570516 106.228477,23.9882287 C106.185398,24.242643 106.191876,24.5023353 106.247594,24.754557 L106.255559,24.7876143 C106.519829,25.869925 107.645042,26.5606637 108.801211,26.3503229 C108.86818,26.3414244 108.934639,26.3293886 109.000339,26.3142604 L117.573996,24.4450204 C118.251031,24.2977652 118.936031,24.1625308 119.542974,23.8289526 C119.950788,23.6080697 120.337893,23.3871869 120.603928,22.9424159 C120.745635,22.6974349 120.831375,22.4271748 120.855626,22.1490408 C120.987847,21.0461291 120.377718,19.7944595 119.887067,18.8267822 Z M104.538279,22.2271762 C105.159558,21.4909 105.159558,20.3939987 105.213721,19.4954412 C105.401698,16.4977453 105.59764,13.5000493 105.755349,10.5008507 C105.814291,9.36488174 105.943326,8.24393878 105.87164,7.09895416 C105.812698,6.15531854 105.806326,5.07043809 105.173895,4.29509417 C104.058778,2.92772408 101.6788,3.04041942 100.055509,3.25378926 C99.5547506,3.31903369 99.0576667,3.40729147 98.566031,3.51824765 C98.0721935,3.62944038 97.581542,3.75115135 97.1036348,3.89690398 C95.5456571,4.37773742 93.3552489,5.26126886 92.9856672,6.95470413 C92.775388,7.91186319 93.2724116,8.89005872 93.6547374,9.76457453 C94.1214935,10.8224081 94.7571101,11.7765619 95.336971,12.7727887 C96.8710533,15.4038492 98.432217,18.0198836 99.9886016,20.6374207 C100.455358,21.418775 100.960346,22.4074887 101.860405,22.813192 C101.92094,22.8372336 101.981475,22.8582701 102.043603,22.877804 C102.446638,23.022054 102.887906,23.0491009 103.306871,22.957442 L103.381743,22.9424159 C103.770441,22.8417414 104.120906,22.641895 104.3965,22.3669184 C104.447476,22.3218403 104.493674,22.2767622 104.539872,22.2271762 L104.538279,22.2271762 Z M103.794336,30.2525868 C103.296932,29.5926022 102.405826,29.309394 101.586405,29.5508705 C101.492429,29.5800646 101.40085,29.6157219 101.312405,29.6575554 C101.175513,29.7234121 101.044927,29.8003326 100.922114,29.8874539 C100.571426,30.1481041 100.25816,30.4506607 99.9901946,30.787514 C99.9216946,30.8701573 99.8579736,30.9798474 99.7751364,31.0519724 L98.3955774,32.8400717 C97.6149956,33.8438115 96.8423788,34.849054 96.0793202,35.8693224 C95.5791106,36.5289658 95.1489941,37.086432 94.8064939,37.5777837 C94.7427729,37.6709452 94.6758659,37.7731223 94.615331,37.8572682 C94.2059238,38.4522995 93.9749353,38.8880548 93.8554584,39.2757268 C93.766207,39.5332694 93.7379302,39.8061427 93.7726212,40.0751124 C93.8108538,40.3545968 93.9112143,40.623563 94.0657376,40.8654824 C94.1485749,40.9856907 94.2377843,41.1028939 94.3333657,41.2155892 C94.5398171,41.4397321 94.7722571,41.6413383 95.0263312,41.816631 C95.9789597,42.4417145 97.0207975,42.8909932 98.1167982,43.2380948 C99.029601,43.5235897 99.9774504,43.6948866 100.936451,43.7459752 C101.100532,43.7534882 101.264614,43.750483 101.427102,43.7369595 C101.577774,43.7236674 101.727688,43.7036099 101.876335,43.6768554 C102.025059,43.6442036 102.171827,43.6040769 102.31601,43.556647 C102.596333,43.4575681 102.851429,43.3039832 103.064731,43.1058657 C103.267045,42.9150349 103.423162,42.6851364 103.520336,42.4311962 C103.679639,42.0555451 103.784778,41.5807221 103.854871,40.874498 C103.85965,40.7738235 103.875581,40.6536151 103.886732,40.543925 C103.940895,39.9579092 103.966383,39.2667112 104.004616,38.45831 C104.073116,37.2126508 104.125685,35.9730021 104.167104,34.7303482 L104.256313,32.5185144 C104.277023,32.0106341 104.259499,31.4456548 104.109755,30.9392771 C104.043918,30.6960413 103.937446,30.4642434 103.794336,30.2525868 Z M119.362962,33.713085 C119.076218,33.4140667 118.668403,33.1180536 118.024822,32.7514181 C117.932426,32.7018321 117.822507,32.6372201 117.722147,32.5801212 C117.186891,32.2750925 116.541716,31.9565403 115.788216,31.570371 C114.630087,30.9693292 113.471958,30.3863186 112.301086,29.8063133 L110.234933,28.7725214 C110.128201,28.7424693 110.019875,28.6703443 109.917921,28.6237635 C109.520633,28.4323475 109.098669,28.2904163 108.662618,28.2015317 C108.512407,28.1741772 108.359973,28.1590952 108.207013,28.1564238 C108.107972,28.1559656 108.009001,28.1614865 107.910711,28.1729822 C107.062273,28.2965579 106.393992,28.920241 106.253966,29.7191622 C106.223698,29.967092 106.233256,30.2180269 106.284233,30.4614488 C106.384594,30.98135 106.629919,31.4937381 106.884803,31.9430169 L107.987176,33.8949001 C108.602083,34.9948066 109.223363,36.0887027 109.860573,37.1795935 C110.271573,37.8903255 110.614073,38.4988803 110.934271,39.0037554 C110.994806,39.0984195 111.063306,39.2005966 111.115876,39.2892502 C111.506167,39.8947998 111.818399,40.2764614 112.135411,40.551438 C112.562945,40.939344 113.151901,41.1267239 113.741179,41.0623235 C113.892771,41.0449035 114.043263,41.019824 114.192005,40.9871933 C114.496749,40.9102423 114.791227,40.8008511 115.069762,40.6611281 C115.908268,40.2178034 116.681168,39.6721669 117.368496,39.0383153 C118.193682,38.271987 118.923287,37.4365389 119.490404,36.4808824 C119.570055,36.345648 119.636962,36.2059058 119.694311,36.0601532 C119.747695,35.9266881 119.793951,35.7907822 119.832904,35.6529474 C119.866358,35.5117025 119.891846,35.3704577 119.909369,35.2277103 C119.937941,34.9471575 119.90375,34.6640719 119.809009,34.39677 C119.715484,34.140245 119.563193,33.9063047 119.362962,33.7115824 L119.362962,33.713085 Z" id="path817" fill-rule="nonzero"></path>
                        <path d="M51.5449233,13.368181 C51.5449233,11.7436335 52.8929193,10.4166667 54.5210386,10.4166667 C56.1259432,10.4166667 57.4290576,11.7436335 57.4987015,13.3924733 L57.4987015,36.4306825 C57.4987015,38.05523 56.1491578,39.3821969 54.5210386,39.3821969 C53.7261893,39.3818337 52.9644796,39.0697273 52.4054967,38.515365 C51.8465138,37.9610027 51.5366607,37.2104041 51.5449233,36.4306825 L51.5449233,13.368181 Z M48.776192,27.5989135 C48.7529774,28.0559124 48.6369042,28.9031063 48.0333239,29.5210417 C47.3817667,30.1845251 46.4980632,30.3439433 45.9857937,30.3439433 C43.8577862,30.3560895 41.7297786,30.3621625 39.6017711,30.3667174 C37.4737635,30.3727904 35.345756,30.3788635 33.2177484,30.3894914 C33.4034655,30.9618787 33.7748995,31.8318466 34.6121737,32.6319743 C35.1228956,33.1132654 35.6119504,33.3865538 35.8224297,33.5019422 C36.0777906,33.6613604 36.9614941,34.1198776 38.0541292,34.1198776 C39.2179559,34.1198776 40.2409472,33.7524566 41.2422714,33.2499096 L41.3242965,33.2073981 C42.0207353,32.8536415 42.7372935,32.489257 43.4971856,32.3571676 C44.2400537,32.2432975 45.0324464,32.3799416 45.612812,32.8840069 C46.3107985,33.4791682 46.5909217,34.3476179 46.3340132,35.2403599 C46.032223,36.246972 45.1717341,37.11694 44.264816,37.642261 C43.7457736,37.9402466 43.2009571,38.1927511 42.6366968,38.3968405 C41.1972583,38.8979108 39.6751697,39.131159 38.1485354,39.0846162 C37.7771013,39.0846162 37.380905,39.0846162 36.9847087,39.0390682 C36.5668454,38.9935201 36.1489821,38.9009057 35.7527858,38.8098096 C35.1104742,38.6731527 34.4859226,38.4658642 33.8909726,38.1918742 C33.2958052,37.9330196 32.7272868,37.6188208 32.1932095,37.2535842 C31.6605132,36.877971 31.1628043,36.4567745 30.7059257,35.9949394 C30.2515956,35.5273624 29.8389301,35.0224636 29.4724551,34.4857803 C28.2173176,32.6092002 27.6354043,30.2983953 27.7514774,28.0559124 C27.8443359,25.8604959 28.5887516,23.6635611 29.9382953,21.8795953 C30.0837737,21.6548916 30.2524666,21.465108 30.4118737,21.2859523 C30.4815176,21.2070023 30.5496139,21.1310889 30.6130672,21.0551754 C32.2783298,19.0571338 34.5038388,18.425534 35.4215904,18.1643918 L35.4726626,18.1492091 C37.3353192,17.6303588 39.3084233,17.6303588 41.1710799,18.1492091 C41.6137055,18.2645976 44.1023136,19.0191771 46.032223,21.0551754 C46.1250815,21.1462716 46.3819901,21.4438522 46.7069948,21.8795953 C47.5324902,22.9823758 48.1389003,24.2278047 48.4945212,25.550769 L48.4976165,25.5629152 C48.6369042,26.0654621 48.776192,26.7517196 48.776192,27.5973953 L48.776192,27.5989135 Z M35.1244432,23.8244975 C34.2061416,24.5571338 33.5669909,25.5725638 33.3106069,26.7061715 L43.4507564,26.7061715 C43.1771258,25.5735391 42.5316642,24.560508 41.6137055,23.8229793 C40.6890517,23.09557 39.5426233,22.6930622 38.357467,22.6797229 C37.1785506,22.6912064 36.0383794,23.0941988 35.1228956,23.8229793 L35.1244432,23.8244975 Z M73.6854877,17.7605324 C71.0343772,17.7605324 68.6154129,18.928081 66.8944352,20.8274351 L66.8944352,20.7575948 C66.8226488,19.1706619 65.4670937,17.933297 63.8484864,17.9772208 C62.229879,18.0211446 60.9461233,19.330132 60.9636898,20.9185312 L60.9636898,42.9045803 C60.9601594,43.6811249 61.2724357,44.4270263 61.8314382,44.9768444 C62.3904406,45.5266625 63.1499595,45.8349469 63.9415345,45.833327 C64.7328416,45.8345421 65.4919616,45.526079 66.0506286,44.976305 C66.6092957,44.4265311 66.9213601,43.6808613 66.9176498,42.9045803 L66.9176498,36.0404875 C68.6386276,37.9170676 71.0343772,39.1073902 73.7087023,39.1073902 C79.0356856,39.1073902 83.3613445,34.3703919 83.3613445,28.4673632 C83.3381299,22.5658528 79.0124709,17.7605324 73.6854877,17.7605324 Z M72.3839209,34.3248438 C69.3598287,34.3248438 66.8944352,31.7392323 66.8944352,28.5144295 C66.8944352,25.2653345 69.336614,22.6797229 72.3839209,22.6797229 C75.4064654,22.6797229 77.8718589,25.2653345 77.8718589,28.5144295 C77.8486442,31.7392323 75.4064654,34.3248438 72.3839209,34.3248438 L72.3839209,34.3248438 Z M23.2865306,30.0008146 L22.3099686,32.1066533 C21.8673431,33.020651 21.4247175,33.9589411 21.0068542,34.8972311 L20.6029197,35.777827 C18.7426542,39.834641 16.5372645,44.6505893 11.7271936,45.6723841 C9.40108792,46.1764493 5.88948855,45.4901919 4.58637411,43.3388051 C3.28480731,41.1661626 5.2147167,38.6716471 7.70332481,39.2440344 C8.09642584,39.3290575 8.48178866,39.5173228 8.87179441,39.7086247 C9.52025634,40.0274611 10.1780041,40.3478158 10.8899194,40.2050985 C11.5646912,40.0912284 11.9825545,39.6099372 12.5180386,38.9920018 C13.2609067,38.1463262 13.5874591,37.2535842 13.7267469,36.7267449 L13.6926988,36.647795 C13.6819131,36.6205249 13.6700387,36.5936814 13.657103,36.5673267 C13.0519751,35.4589906 12.5226815,34.4690794 12.0816036,33.6416229 C11.8336347,33.1743641 11.5834298,32.7082504 11.3309973,32.2432975 L10.3172919,30.3545712 C9.57442381,28.9729467 9.45061246,28.7452064 9.12251239,28.1485268 C8.39919433,26.8091979 7.63902333,25.4893382 6.84283593,24.1904003 C5.98234706,22.7708191 5.09864356,21.1933379 5.81984467,19.521724 C6.38186798,18.1798644 7.89819842,17.4842658 9.30822941,17.9214688 C10.8047991,18.3663216 11.4687374,19.764647 12.0877942,21.0703581 C12.200772,21.307208 12.3106546,21.5410214 12.4251801,21.7642038 C13.4249567,23.7091091 14.4015188,25.6540113 15.3780808,27.5989135 C15.4647487,27.7917336 15.5947506,28.0543941 15.7557054,28.3762671 C15.8980884,28.6617016 16.0636861,28.9942025 16.2385696,29.3601052 L16.4970258,29.8884627 C16.5976225,30.0949473 16.6858381,30.2710664 16.7508391,30.4122654 C17.2042982,29.3039293 17.6639478,28.2001479 18.1220498,27.0948483 C18.5816994,25.991067 19.041349,24.8872856 19.4948081,23.7774312 C19.5071892,23.7167005 19.6155242,23.4798505 19.7795742,23.1230574 C19.9173143,22.8209219 20.0937455,22.4337634 20.2856531,21.9934655 L20.4822036,21.527357 C21.0857839,20.0850017 21.8131756,18.3496206 23.4258184,17.8759208 C24.5990702,17.5418976 25.8592553,17.9732813 26.5659837,18.950855 C26.9142032,19.4306279 27.0534909,19.9802412 27.0767055,20.5298545 C27.0952773,21.7444694 26.4978875,23.047144 25.9840704,24.1645897 C25.8602591,24.4378781 25.739543,24.6990203 25.635851,24.9449798 L25.5739453,25.0785875 C25.4315623,25.3928691 25.0446518,26.2430996 24.3791658,27.6444616 C24.1392813,28.1454903 23.9086827,28.6495555 23.6749888,29.1581755 L23.2865306,30.0008146 Z" id="path819"></path>
                    </g>
                </g>
            </g>
        </g>
    </g>
</svg>